<svg width="180" height="40" viewBox="0 0 180 40" fill="none" xmlns="http://www.w3.org/2000/svg"><g clip-path="url(#headerClip0)"><g clip-path="url(#headerClip1)"><path d="M17.8836 15.8596V6.45159C17.8836 5.60251 17.1962 4.91464 16.3476 4.91464C15.4991 4.91464 14.8116 5.60251 14.8116 6.45159V15.8596H9.5091C4.36768 15.8596 0.0783855 19.9438 -0.000382824 25.0884C-0.0791512 30.3226 4.15286 34.6075 9.36589 34.6075H13.7483C16.0326 34.6075 17.8836 32.7517 17.8836 30.466V18.9299H24.1099C24.9584 18.9299 25.6459 18.242 25.6459 17.3929C25.6459 16.5439 24.9584 15.856 24.1099 15.856H17.8836V15.8596ZM14.8152 30.4265C14.8152 31.0392 14.3211 31.5336 13.7089 31.5336H9.36947C5.8965 31.5336 3.07158 28.7069 3.07158 25.2317C3.07158 21.7566 5.8965 18.9299 9.36947 18.9299H14.8152V30.4265Z" class="sc-2aa762a1-0 jpVQcw"></path><path d="M21.6505 34.4463C22.6985 34.4463 23.5481 33.5961 23.5481 32.5475C23.5481 31.4988 22.6985 30.6487 21.6505 30.6487C20.6025 30.6487 19.7529 31.4988 19.7529 32.5475C19.7529 33.5961 20.6025 34.4463 21.6505 34.4463Z" class="sc-2aa762a1-1 krrhXL"></path><path d="M45.5746 29.4377C45.1664 29.5774 44.6401 29.7136 44.0064 29.8426C43.3691 29.9715 42.5635 30.0324 41.5896 30.0324C40.7841 30.0324 40.0501 29.9035 39.3841 29.6491C38.7325 29.3804 38.1668 28.9971 37.687 28.5027C37.2216 28.0083 36.8528 27.4064 36.5843 26.7006C36.3301 25.9948 36.2012 25.1959 36.2012 24.3038C36.2012 23.4691 36.3086 22.706 36.5198 22.0109C36.7454 21.3052 37.0712 20.6961 37.4937 20.1874C37.9162 19.6786 38.4353 19.281 39.0404 18.9979C39.6634 18.7149 40.3687 18.5752 41.16 18.5752C41.8797 18.5752 42.5026 18.6827 43.0254 18.894C43.5624 19.0911 43.9527 19.2846 44.1926 19.4673V13.5703L45.571 13.3159V29.4377H45.5746ZM44.1997 20.8036C44.0708 20.7033 43.9097 20.5994 43.7128 20.4847C43.5302 20.3701 43.3118 20.2662 43.054 20.1659C42.7998 20.0656 42.5241 19.9903 42.2269 19.933C41.9298 19.8614 41.6183 19.8255 41.2925 19.8255C40.6122 19.8255 40.0429 19.9473 39.5739 20.1874C39.1228 20.4274 38.754 20.7534 38.4711 21.1619C38.1883 21.5595 37.9842 22.0324 37.8553 22.5842C37.7264 23.1216 37.6655 23.6948 37.6655 24.3038C37.6655 25.7476 38.0272 26.8582 38.7468 27.6357C39.4665 28.3988 40.4224 28.7821 41.6111 28.7821C42.2914 28.7821 42.832 28.7534 43.2438 28.6961C43.6663 28.6245 43.9849 28.5564 44.1962 28.4847V20.8036H44.1997ZM48.5678 24.2823C48.5678 23.3186 48.7039 22.4874 48.9724 21.7781C49.2552 21.058 49.6168 20.4561 50.0537 19.976C50.5048 19.4959 51.0132 19.1413 51.5789 18.9155C52.1589 18.6755 52.7533 18.5537 53.3583 18.5537C54.701 18.5537 55.7679 18.9908 56.5592 19.8685C57.3648 20.7463 57.7694 22.0969 57.7694 23.9205C57.7694 24.0351 57.7622 24.1462 57.7479 24.2608C57.7479 24.3755 57.7407 24.4794 57.7264 24.5797H50.0286C50.0716 25.9232 50.4045 26.955 51.0239 27.6787C51.6469 28.3988 52.6351 28.7606 53.9921 28.7606C54.7404 28.7606 55.3347 28.689 55.7715 28.5492C56.2083 28.4095 56.527 28.2877 56.7275 28.1874L56.9817 29.3768C56.7848 29.4915 56.4088 29.624 55.8574 29.7781C55.3204 29.9321 54.6831 30.0109 53.9491 30.0109C52.9896 30.0109 52.1697 29.8712 51.4894 29.5882C50.8091 29.3052 50.2542 28.9075 49.8138 28.3988C49.377 27.89 49.0583 27.2881 48.8614 26.5967C48.6645 25.8873 48.5678 25.1171 48.5678 24.2823ZM56.348 23.4117C56.3193 22.2653 56.0508 21.3732 55.5424 20.7391C55.034 20.1014 54.3107 19.7825 53.3798 19.7825C52.8857 19.7825 52.4382 19.8829 52.0443 20.0799C51.6612 20.2769 51.3247 20.5456 51.0275 20.886C50.7447 21.212 50.5191 21.5918 50.3472 22.0324C50.1933 22.4695 50.1002 22.9317 50.0716 23.4117H56.348ZM64.1496 28.2949C64.4468 27.6858 64.7511 26.9944 65.0626 26.2169C65.3741 25.4252 65.6713 24.6119 65.9541 23.7772C66.2513 22.9281 66.5198 22.079 66.7597 21.2299C67.0139 20.3665 67.2252 19.5604 67.397 18.8116H68.7755C68.5212 19.8148 68.2384 20.8072 67.9269 21.7816C67.6154 22.7561 67.2824 23.7127 66.9316 24.6478C66.5914 25.5828 66.2334 26.4785 65.8503 27.3419C65.4815 28.2053 65.1235 29.0186 64.769 29.7817H63.455C63.0862 29.0186 62.721 28.2053 62.3523 27.3419C61.9835 26.4785 61.6254 25.5792 61.271 24.6478C60.9308 23.7127 60.605 22.7597 60.2971 21.7816C59.9856 20.8072 59.7028 19.8148 59.4486 18.8116H60.9129C61.0812 19.5604 61.2889 20.3665 61.5288 21.2299C61.783 22.079 62.0515 22.9281 62.3344 23.7772C62.6315 24.6119 62.9359 25.4252 63.2473 26.2169C63.5481 26.9908 63.8524 27.6858 64.1496 28.2949ZM70.3723 24.2823C70.3723 23.3186 70.5048 22.4874 70.7733 21.7781C71.0562 21.058 71.4178 20.4561 71.8546 19.976C72.3057 19.4959 72.8141 19.1413 73.3798 18.9155C73.9598 18.6755 74.5542 18.5537 75.1593 18.5537C76.5019 18.5537 77.5689 18.9908 78.3601 19.8685C79.1657 20.7463 79.5703 22.0969 79.5703 23.9205C79.5703 24.0351 79.5631 24.1462 79.5488 24.2608C79.5488 24.3755 79.5416 24.4794 79.5273 24.5797H71.8295C71.8725 25.9232 72.2055 26.955 72.8249 27.6787C73.4478 28.3988 74.436 28.7606 75.793 28.7606C76.5413 28.7606 77.1356 28.689 77.5724 28.5492C78.0093 28.4095 78.3279 28.2877 78.5248 28.1874L78.779 29.3768C78.5821 29.4915 78.2062 29.624 77.6548 29.7781C77.1177 29.9321 76.4804 30.0109 75.7464 30.0109C74.7869 30.0109 73.967 29.8712 73.2867 29.5882C72.6065 29.3052 72.0515 28.9075 71.6111 28.3988C71.1743 27.89 70.8557 27.2881 70.6587 26.5967C70.469 25.8873 70.3723 25.1171 70.3723 24.2823ZM78.1525 23.4117C78.1238 22.2653 77.8553 21.3732 77.3469 20.7391C76.8385 20.1014 76.1152 19.7825 75.1843 19.7825C74.6902 19.7825 74.2427 19.8829 73.8488 20.0799C73.4657 20.2769 73.1292 20.5456 72.832 20.886C72.5492 21.212 72.3236 21.5918 72.1518 22.0324C71.9978 22.4695 71.9047 22.9317 71.8761 23.4117H78.1525ZM85.4242 29.968C84.9588 29.9536 84.547 29.8891 84.1961 29.7781C83.856 29.6778 83.566 29.5237 83.3261 29.3123C83.1005 29.0866 82.9215 28.8036 82.7962 28.4633C82.6816 28.1086 82.6279 27.6715 82.6279 27.1484V13.5703L84.0064 13.3159V27.1054C84.0064 27.4458 84.035 27.7216 84.0923 27.933C84.1639 28.1301 84.2606 28.2949 84.3895 28.4203C84.5184 28.5349 84.6795 28.6173 84.8764 28.6746C85.0877 28.7319 85.3347 28.7821 85.6176 28.8215L85.4242 29.968ZM97.4006 24.3038C97.4006 25.1672 97.2717 25.9518 97.0175 26.6576C96.7776 27.3634 96.4303 27.9653 95.9792 28.4597C95.5424 28.9541 95.0196 29.3446 94.411 29.6276C93.8023 29.8963 93.1328 30.0289 92.3952 30.0289C91.6612 30.0289 90.9881 29.8963 90.3795 29.6276C89.7708 29.3446 89.2409 28.9541 88.7898 28.4597C88.353 27.9653 88.0057 27.3634 87.7515 26.6576C87.5116 25.9518 87.3898 25.1636 87.3898 24.3038C87.3898 23.4404 87.5116 22.6558 87.7515 21.95C88.0057 21.2443 88.353 20.6424 88.7898 20.148C89.2409 19.6392 89.7708 19.2487 90.3795 18.98C90.9881 18.697 91.6576 18.5573 92.3952 18.5573C93.1292 18.5573 93.8023 18.697 94.411 18.98C95.0196 19.2487 95.5424 19.6392 95.9792 20.148C96.4303 20.6424 96.7776 21.2443 97.0175 21.95C97.2717 22.6558 97.4006 23.4404 97.4006 24.3038ZM95.9362 24.3038C95.9362 22.9317 95.6175 21.8426 94.9802 21.0365C94.3429 20.216 93.4836 19.8076 92.3952 19.8076C91.3068 19.8076 90.4439 20.216 89.8102 21.0365C89.1729 21.8426 88.8542 22.9317 88.8542 24.3038C88.8542 25.676 89.1729 26.7651 89.8102 27.5712C90.4475 28.3773 91.3104 28.7821 92.3952 28.7821C93.4836 28.7821 94.3465 28.3773 94.9802 27.5712C95.6175 26.7651 95.9362 25.676 95.9362 24.3038ZM101.769 27.804C101.898 27.9044 102.051 28.0083 102.234 28.1229C102.431 28.2375 102.657 28.3414 102.914 28.4418C103.169 28.5421 103.444 28.6245 103.741 28.6961C104.039 28.7534 104.35 28.7821 104.676 28.7821C105.356 28.7821 105.918 28.6675 106.373 28.4418C106.838 28.2017 107.214 27.8829 107.497 27.4852C107.78 27.0768 107.984 26.6003 108.113 26.0629C108.242 25.5112 108.303 24.9308 108.303 24.3217C108.303 22.8779 107.941 21.7745 107.222 21.0114C106.502 20.234 105.546 19.8434 104.357 19.8434C103.677 19.8434 103.126 19.8793 102.703 19.9509C102.295 20.0082 101.983 20.0727 101.769 20.1408V27.804ZM101.769 33.7046H100.39V19.1914C100.802 19.0517 101.325 18.9155 101.958 18.7866C102.596 18.6576 103.401 18.5967 104.375 18.5967C105.181 18.5967 105.908 18.7328 106.559 19.0015C107.225 19.2559 107.787 19.6321 108.256 20.1265C108.736 20.6209 109.105 21.2228 109.359 21.9285C109.628 22.6343 109.764 23.4332 109.764 24.3253C109.764 25.1601 109.649 25.9303 109.423 26.6397C109.212 27.3311 108.894 27.933 108.468 28.4418C108.045 28.9362 107.522 29.3267 106.899 29.6097C106.291 29.8927 105.592 30.0324 104.801 30.0324C104.082 30.0324 103.451 29.9321 102.914 29.7351C102.392 29.5237 102.009 29.3231 101.769 29.1404V33.7046ZM115.002 28.8036C115.793 28.8036 116.445 28.6746 116.953 28.4203C117.476 28.1516 117.737 27.7073 117.737 27.0839C117.737 26.7866 117.687 26.5322 117.59 26.3208C117.504 26.1095 117.358 25.916 117.146 25.7476C116.935 25.5792 116.652 25.4144 116.298 25.2604C115.958 25.1063 115.535 24.92 115.027 24.7087C114.619 24.5403 114.228 24.3683 113.86 24.1999C113.491 24.0172 113.169 23.8094 112.886 23.5837C112.603 23.3437 112.377 23.0606 112.205 22.7346C112.037 22.4086 111.951 22.0145 111.951 21.5452C111.951 20.6531 112.284 19.933 112.947 19.3813C113.627 18.8296 114.551 18.5537 115.725 18.5537C116.473 18.5537 117.089 18.6182 117.569 18.7436C118.063 18.8726 118.41 18.9836 118.607 19.0839L118.289 20.3128C118.12 20.2268 117.83 20.1157 117.418 19.9724C117.021 19.8327 116.437 19.761 115.657 19.761C115.345 19.761 115.048 19.7969 114.765 19.8685C114.497 19.9258 114.257 20.0226 114.046 20.1659C113.835 20.2949 113.663 20.4632 113.537 20.6746C113.408 20.8717 113.348 21.1189 113.348 21.4162C113.348 21.7136 113.405 21.9679 113.516 22.1793C113.63 22.3907 113.792 22.5842 114.003 22.7525C114.228 22.9066 114.497 23.0571 114.808 23.1968C115.134 23.3365 115.499 23.4941 115.911 23.6625C116.334 23.8309 116.738 24.01 117.121 24.1928C117.519 24.3611 117.862 24.5761 118.16 24.8305C118.457 25.0705 118.697 25.3679 118.879 25.7225C119.062 26.0629 119.155 26.4928 119.155 27.0159C119.155 28.0047 118.779 28.757 118.031 29.2658C117.297 29.7745 116.283 30.0289 114.998 30.0289C114.039 30.0289 113.301 29.9429 112.793 29.7745C112.284 29.6204 111.944 29.4986 111.776 29.4126L112.137 28.1623C112.18 28.191 112.273 28.2411 112.413 28.3092C112.553 28.3665 112.746 28.4382 112.986 28.5206C113.226 28.5922 113.509 28.6531 113.835 28.7105C114.175 28.7749 114.561 28.8036 115.002 28.8036Z" class="sc-2aa762a1-0 jpVQcw"></path><path d="M161.779 30.2438V30.2474H162.066C161.969 30.251 161.876 30.251 161.779 30.2438ZM150.268 30.2904V30.3011H150.662C150.53 30.3011 150.401 30.294 150.268 30.2904ZM142.642 21.8891C142.37 21.1583 141.99 20.5313 141.496 20.0154C141.013 19.4995 140.419 19.0982 139.731 18.8081C139.058 18.5214 138.31 18.3781 137.49 18.3781C136.688 18.3781 135.936 18.5214 135.249 18.8081C134.575 19.1018 133.981 19.4995 133.483 20.0154C132.993 20.5313 132.606 21.1583 132.32 21.8891C132.048 22.62 131.912 23.4332 131.912 24.3253C131.912 25.221 132.048 26.0306 132.32 26.783C132.592 27.5138 132.971 28.148 133.458 28.6782C133.949 29.1941 134.525 29.5953 135.206 29.8855C135.897 30.1722 136.656 30.3119 137.49 30.3119C138.335 30.3119 139.097 30.1722 139.774 29.8855C140.465 29.5918 141.052 29.1941 141.539 28.6782C142.03 28.148 142.402 27.5138 142.66 26.783C142.914 26.0342 143.047 25.221 143.047 24.3253C143.054 23.4368 142.918 22.6236 142.642 21.8891ZM139.176 26.697C138.79 27.2774 138.224 27.564 137.497 27.564C136.767 27.564 136.194 27.2774 135.793 26.697C135.388 26.1095 135.188 25.3213 135.188 24.3289C135.188 23.3401 135.388 22.5591 135.793 21.9966C136.197 21.4198 136.763 21.1332 137.497 21.1332C138.227 21.1332 138.79 21.4198 139.176 21.9966C139.581 22.5591 139.778 23.3365 139.778 24.3289C139.778 25.3177 139.581 26.1095 139.176 26.697ZM176.677 18.371C176.534 18.9263 176.366 19.5389 176.183 20.1981C176.008 20.8502 175.825 21.5094 175.621 22.1829C175.438 22.8421 175.245 23.4905 175.041 24.1247C174.84 24.7588 174.647 25.332 174.457 25.8515C174.257 25.3356 174.046 24.7552 173.809 24.1247C173.591 23.4905 173.372 22.8457 173.161 22.1829C172.946 21.5094 172.739 20.8502 172.538 20.1981C172.348 19.5389 172.184 18.9263 172.041 18.371H168.639C169.287 20.5994 169.978 22.6056 170.709 24.4077C171.439 26.1883 172.173 27.8005 172.903 29.2371C172.692 29.7816 172.427 30.2044 172.109 30.5089C171.811 30.8242 171.367 30.9854 170.798 30.9854C170.505 30.9854 170.232 30.9639 169.978 30.9173C169.724 30.8779 169.427 30.7955 169.094 30.6845L168.539 33.2496C168.811 33.3679 169.155 33.4646 169.57 33.5506C170.007 33.6545 170.472 33.7046 170.97 33.7046C171.575 33.7046 172.098 33.633 172.545 33.4897C173.004 33.3607 173.415 33.1422 173.777 32.8412C174.131 32.5546 174.461 32.182 174.765 31.7198C175.066 31.2756 175.367 30.731 175.667 30.0862C176.502 28.2877 177.271 26.4355 177.977 24.5259C178.679 22.6128 179.352 20.5671 180.003 18.3817V18.3781H176.677V18.371Z" class="sc-2aa762a1-0 jpVQcw"></path><path d="M125.7 25.2604C125.7 25.9375 125.661 26.457 125.89 26.8582C126.137 27.263 126.792 27.4422 127.504 27.4422C127.852 27.4422 128.206 27.4135 128.561 27.3526C128.933 27.281 129.273 27.2129 129.574 27.1018L129.577 29.7386C129.191 29.8963 129.191 29.9106 128.715 30.0252C128.238 30.1435 127.658 30.1972 126.967 30.1972C126.087 30.1972 125.363 30.0862 124.79 29.8497C124.218 29.6061 123.759 29.2765 123.412 28.8573C123.072 28.4274 122.828 27.9079 122.682 27.306C122.556 26.7006 122.488 26.0306 122.488 25.2962V14.8743H125.7V18.3996H129.824V21.3589H125.7V25.2604Z" class="sc-2aa762a1-0 jpVQcw"></path><path d="M166.842 21.0902C166.681 20.5134 166.409 20.0297 166.022 19.6249C165.646 19.2201 165.148 18.9084 164.515 18.6934C163.881 18.4784 163.093 18.371 162.144 18.371C161.768 18.371 161.396 18.3925 161.02 18.439C160.666 18.4677 160.318 18.5071 159.985 18.5644C159.652 18.6074 159.352 18.6647 159.058 18.7364C158.786 18.7901 158.557 18.851 158.367 18.9084L158.775 21.4986C159.162 21.3553 159.624 21.2442 160.154 21.1762C160.684 21.0938 161.224 21.0472 161.768 21.0472C162.585 21.0472 163.161 21.2156 163.494 21.5452C163.827 21.8784 163.992 22.3154 163.992 22.86V23.1645C163.791 23.1072 163.526 23.0642 163.197 23.0356C162.878 22.9926 162.517 22.9711 162.098 22.9711C161.478 22.9711 160.881 23.0356 160.311 23.1645C159.735 23.2792 159.226 23.4726 158.779 23.7449C158.338 24.0172 157.977 24.3862 157.701 24.8448C157.44 25.3034 157.314 25.8623 157.314 26.525C157.314 27.2165 157.429 27.7969 157.658 28.2698C157.891 28.7463 158.217 29.1332 158.646 29.4377C159.08 29.7243 159.588 29.9357 160.179 30.0647C160.673 30.1686 161.203 30.2331 161.779 30.2546C161.908 30.2581 162.048 30.2581 162.184 30.2581H167.075V23.0069C167.078 22.3083 166.996 21.667 166.842 21.0902ZM161.002 27.4923C160.669 27.2953 160.512 26.9406 160.512 26.4355C160.512 26.1739 160.565 25.9626 160.684 25.7906C160.798 25.6186 160.956 25.4825 161.156 25.3786C161.357 25.2783 161.589 25.2138 161.847 25.1851C162.119 25.1421 162.406 25.1171 162.71 25.1171C162.925 25.1171 163.161 25.1314 163.415 25.1601C163.677 25.1887 163.87 25.2174 163.999 25.2425V27.6786C163.827 27.7073 163.594 27.7288 163.308 27.7431C163.022 27.7575 162.721 27.7646 162.402 27.7646C161.808 27.7718 161.346 27.6822 161.002 27.4923Z" class="sc-2aa762a1-0 jpVQcw"></path><path d="M152.123 14.3584V18.9334C151.765 18.7794 151.407 18.6504 151.045 18.568C150.702 18.482 150.308 18.4426 149.86 18.4426C149.058 18.4426 148.339 18.5788 147.708 18.851C147.089 19.1233 146.563 19.5174 146.137 20.0369C145.703 20.5564 145.374 21.1869 145.145 21.9321C144.919 22.663 144.805 23.4941 144.805 24.4113C144.805 25.3177 144.934 26.1345 145.191 26.8654C145.463 27.5855 145.847 28.2053 146.351 28.7212C146.856 29.2228 147.472 29.6097 148.206 29.882C148.833 30.1184 149.534 30.251 150.311 30.2868C150.44 30.2904 150.573 30.294 150.705 30.294H155.338V14.362L152.123 14.3584ZM148.546 26.6934C148.106 26.0844 147.995 25.1995 148.041 24.1175C148.127 22.1435 148.804 21.3016 150.326 21.2192C150.666 21.2012 150.977 21.2013 151.292 21.2872C151.625 21.3768 151.89 21.4807 152.087 21.6097V27.4494C151.933 27.478 151.729 27.5067 151.486 27.5389C151.242 27.5533 150.977 27.5676 150.687 27.5604C149.806 27.5246 149.062 27.4064 148.546 26.6934Z" class="sc-2aa762a1-0 jpVQcw"></path></g></g><defs><clipPath id="headerClip0"><rect width="180" height="39.5489" fill="white"></rect></clipPath><clipPath id="headerClip1"><rect width="180" height="29.6928" fill="white" transform="translate(0 4.91466)"></rect></clipPath></defs></svg>
