<svg width="1920" height="588" viewBox="0 0 1920 588" fill="none" xmlns="http://www.w3.org/2000/svg">
<circle cx="-15.5" cy="531.5" r="470" stroke="#F9F9F9" stroke-opacity="0.4"/>
<g clip-path="url(#clip0_890_37)">
<line x1="1128.79" y1="164.779" x2="1256.7" y2="12.3363" stroke="#F9F9F9" stroke-opacity="0.6" stroke-width="2"/>
<line x1="1248.29" y1="265.054" x2="1376.21" y2="112.611" stroke="#F9F9F9" stroke-opacity="0.6" stroke-width="2"/>
<line x1="1189.18" y1="214.15" x2="1317.1" y2="61.7074" stroke="#F9F9F9" stroke-opacity="0.6" stroke-width="2"/>
<line x1="1158.02" y1="190.614" x2="1285.94" y2="38.1707" stroke="#F9F9F9" stroke-opacity="0.6" stroke-width="2"/>
<line x1="1218.42" y1="239.985" x2="1346.33" y2="87.5423" stroke="#F9F9F9" stroke-opacity="0.6" stroke-width="2"/>
<line x1="1118.83" y1="156.423" x2="1246.74" y2="3.97982" stroke="#F9F9F9" stroke-opacity="0.6" stroke-width="2"/>
<line x1="1261.93" y1="283.026" x2="1389.85" y2="130.583" stroke="#F9F9F9" stroke-opacity="0.6" stroke-width="2"/>
<line x1="1238.33" y1="256.698" x2="1366.25" y2="104.255" stroke="#F9F9F9" stroke-opacity="0.6" stroke-width="2"/>
<line x1="1179.22" y1="205.794" x2="1307.14" y2="53.3514" stroke="#F9F9F9" stroke-opacity="0.6" stroke-width="2"/>
<line x1="1148.06" y1="182.258" x2="1275.98" y2="29.8148" stroke="#F9F9F9" stroke-opacity="0.6" stroke-width="2"/>
<line x1="1208.46" y1="231.629" x2="1336.37" y2="79.1859" stroke="#F9F9F9" stroke-opacity="0.6" stroke-width="2"/>
<line x1="1139.39" y1="172.369" x2="1267.3" y2="19.9266" stroke="#F9F9F9" stroke-opacity="0.6" stroke-width="2"/>
<line x1="1258.89" y1="272.644" x2="1386.81" y2="120.201" stroke="#F9F9F9" stroke-opacity="0.6" stroke-width="2"/>
<line x1="1199.78" y1="221.741" x2="1327.7" y2="69.2977" stroke="#F9F9F9" stroke-opacity="0.6" stroke-width="2"/>
<line x1="1168.62" y1="198.204" x2="1296.54" y2="45.7611" stroke="#F9F9F9" stroke-opacity="0.6" stroke-width="2"/>
<line x1="1229.02" y1="247.575" x2="1356.93" y2="95.1327" stroke="#F9F9F9" stroke-opacity="0.6" stroke-width="2"/>
</g>
<defs>
<clipPath id="clip0_890_37">
<rect x="1243.56" width="200" height="200" rx="100" transform="rotate(40 1243.56 0)" fill="white"/>
</clipPath>
</defs>
</svg>
