<svg width="295" height="102" viewBox="0 0 295 102" fill="none" xmlns="http://www.w3.org/2000/svg">
<path d="M224.1 0.799988C231 1.89999 236.8 5.00001 241.5 10.1C243.6 12.3 244.1 14.5 240 15.1C237.8 15.7 236.7 13.9 235.4 12.8C224.3 3.69999 210.8 4.09999 200.4 13.8C199.1 15 197.8 16.4 196 16.9C195 18.8 193.9 20.6 192.9 22.5C192.2 23.9 191.4 25.4 189.6 24.7C187.7 23.9 187.7 22.3 188.5 20.5C192.2 11.4 198.8 5.29999 208 1.89999C209.5 1.29999 211.2 1.09999 212.8 0.799988C214.4 -1.2219e-05 216.4 1.2 218 0C218.3 0 218.7 0 219 0C220.5 1.2 222.4 -1.2219e-05 224.1 0.799988Z" fill="#DF3925"/>
<path d="M293 61.3001C292.9 61.5001 292.8 61.6001 292.6 61.6001C291.4 61.9001 290.2 62.4001 288.9 62.8001C288.3 63.0001 287.7 63.1001 287 63.1001C286.5 63.1001 285.9 63.2 285.4 63C285.3 63 285.2 62.9001 285.1 62.8001H285C284.8 62.7001 284.6 62.5001 284.4 62.3001C284.3 62.3001 284.1 62.4001 284 62.3001L283.9 62.2001C283.3 61.8001 282.8 61.3 282.7 60.5C282.6 60 282.7 59.6001 282.8 59.1001C282.9 58.7001 283.1 58.3001 283.2 57.9001C283.3 57.6001 283.6 57.5001 283.8 57.6001C284.1 57.7001 284.2 58.0001 284.1 58.2001V58.3001C284.1 58.4001 284.1 58.4 284.1 58.5C284.1 58.7 284.2 58.9001 284.3 59.1001C284.4 59.4001 284.5 59.8001 284.6 60.1001C284.7 60.5001 284.7 60.9001 284.9 61.3001C285 61.4001 285.1 61.6001 285.2 61.7001C285.2 61.8001 285.3 61.8001 285.3 61.9001C285.4 61.8001 285.6 61.8001 285.7 61.9001C286.1 62.1001 286.6 62 287 62C287.6 61.9 288.1 61.8001 288.7 61.7001C289.5 61.5001 290.3 61.2001 291.1 60.9001C291.3 60.7001 291.6 60.4001 291.8 60.1001C293.4 57.6001 294.8 55.1001 292.6 52.3001C290.8 49.9001 288.1 49.6001 285.4 50.2001C280 51.5001 276.3 57.9 278 63C279.6 67.8 285.6 70.2 290.8 68C292.2 67.5 293.4 66.6001 294.7 65.9001V61.9001C294.2 61.6001 293.6 61.4001 293 61.3001Z" fill="#2E2D2C"/>
<path d="M132.9 101.8C131.5 99.1999 132.3 96.2999 132.1 93.5999C132 92.4999 131.7 90.8999 133.2 90.7999C135.3 90.6999 134.5 92.5998 134.7 93.6998C134.8 94.1998 134.8 94.6999 134.8 95.2999C137.8 95.0999 137.1 89.9999 140.8 90.8999C141.6 94.1999 141.6 97.4999 140.8 100.8L140.9 101.3C140.4 101.3 140 101.2 139.6 101C138.5 100.3 139.3 98.5999 138 98.0999C136.9 99.7999 135.5 100.9 133.8 101.8C133.6 101.8 133.3 101.8 132.9 101.8Z" fill="#504F4E"/>
<path d="M95.9 101.8C95.6 100.5 95.1 99.2 95.2 98C95.4 95.2 95.3 92.6 91.5 91.7C94.8 90.3 97.7 90.4 102 91.5C95.2 93.4 99.3 98.8 96.9 101.9C96.6 101.8 96.3 101.8 95.9 101.8Z" fill="#4A4948"/>
<path d="M197.9 101.8C197.3 100.9 196.2 100 198.2 99.4C199.4 99 200 98.2 199.5 96.9C199.8 96.5 200.3 96.3 200.8 96.4C201.8 96.9 202.3 97.5 201.9 98.7C201.2 99.7 200.6 100.7 199.9 101.8C199.2 101.8 198.5 101.8 197.9 101.8Z" fill="#4A4948"/>
<path d="M217.9 0C216.4 1.5 214.5 0.999988 212.7 0.799988C212.8 0.499988 212.8 0.2 212.9 0C214.5 0 216.2 0 217.9 0Z" fill="#E8786B"/>
<path d="M224.1 0.799988C222.3 0.999988 220.4 1.5 218.9 0C220.6 0 222.2 0 223.9 0C223.9 0.3 224 0.499988 224.1 0.799988Z" fill="#E8786B"/>
<path d="M213.1 65.6998C213.1 65.6998 213.2 65.6998 213.1 65.6998C213 65.5998 212.8 65.4998 212.6 65.4998C208.7 65.5998 209.6 62.8998 209.6 60.7998C209.5 57.9998 209.4 55.0998 209.7 52.2998C210.1 48.5998 208.5 47.3998 205.1 47.9998C203.9 48.0998 202.1 49.4998 201.9 46.7998C203.2 45.2998 203.4 43.7998 201.7 42.4998C199.9 41.1998 198.6 42.3998 197.4 43.5998C193.6 47.5998 192.3 52.9998 189.4 58.4998C188.8 55.9998 188.1 54.3998 188.1 52.7998C188.3 47.7998 187 46.5998 182.8 48.9998C179 51.1998 175.7 50.7998 171.7 49.7998C167.1 48.5998 163.6 51.1998 161.4 54.9998C159.3 58.4998 158.9 62.2998 161.9 65.5998C165 68.9998 168.9 69.0998 172.9 67.2998C178.3 64.9998 180.5 60.4998 181.7 53.7998C184.7 60.1998 186.1 65.6998 186.8 71.3998C187 72.9998 187.3 74.3998 189.1 74.6998C191.3 74.8998 191.8 73.3998 192.1 71.5998C193.1 65.6998 195 59.9998 197.2 54.4998C197.7 53.0998 198.1 51.4998 200.1 53.2998C201.3 54.3998 205 52.5998 204 56.0998C203 59.3998 207.4 64.1998 201.4 66.1998C200 66.5998 199.3 67.7998 199.7 69.3998C200 70.6998 200.9 71.4998 202.2 71.3998C205.5 71.1998 208.8 70.8998 212.1 70.4998C213.4 70.3998 214.2 69.4998 214.3 68.0998C214.3 67.4998 214.3 66.8998 214.1 66.3998C213.5 66.4998 213.1 66.1998 213.1 65.6998ZM175 58.2998C174.9 58.7998 174.6 59.2998 174.3 59.6998C174.2 59.8998 174 59.8998 173.9 59.8998C173.4 60.3998 173.1 60.8998 172.6 61.3998C172.3 61.6998 171.9 61.8998 171.5 62.0998C171.4 62.0998 171.4 62.1998 171.3 62.1998C171.1 62.2998 170.8 62.3998 170.6 62.4998C170.4 62.5998 170.2 62.6998 169.9 62.7998C169 63.0998 168 63.2998 167.1 62.9998C166.9 62.8998 166.6 62.7998 166.4 62.6998C166.1 62.5998 165.9 62.3998 165.7 62.1998C165.6 62.0998 165.5 61.8998 165.5 61.7998C165.3 61.4998 165.2 61.1998 165.2 60.7998C165.1 60.0998 165.4 59.5998 165.6 58.9998C165.9 58.3998 166 57.7998 166.6 57.4998C167.2 57.0998 167.9 57.3998 168.3 57.9998C168.4 58.0998 168.4 58.1998 168.5 58.1998L168.6 58.2998C168.7 58.2998 168.8 58.3998 169 58.3998C169.6 58.5998 170.2 58.7998 170.9 58.7998C171.1 58.7998 171.4 58.6998 171.6 58.5998L171.8 58.4998C171.9 58.4998 171.9 58.3998 172 58.3998C172.2 58.1998 172.4 57.9998 172.6 57.7998C172.7 57.5998 172.8 57.2998 172.8 57.0998C173 56.5998 173.3 56.0998 173.9 55.9998C174.5 55.8998 174.9 56.2998 175 56.7998C175.1 57.3998 175.1 57.7998 175 58.2998ZM188.2 62.4998C187.6 62.4998 187.6 61.4998 188.2 61.4998C188.8 61.4998 188.8 62.4998 188.2 62.4998Z" fill="#2C2B2A"/>
<path d="M147.9 30.4C147.4 38.1 146.7 38.6 141.3 36.2C141 38.1 142.2 39.6001 142.7 41.3001C143.1 42.8001 142.7 44 141.3 44.5C140 45 139.1 44 138.6 42.9C137.7 40.8 136.8 38.6 136 36.5C135.2 34.2 133.9 31.5 136 29.5C138.3 27.3 140.5 29.8 142.6 30.7C142.9 29.3 143 28.0001 143.5 26.8001C144.9 23.1001 146.8 22.6 149.7 25.1C150.6 25.9 151.5 26.7 152.1 27.6C153.9 30 155 30.3 156.8 27.2C160.2 21.2 162.3 21.2 166.6 26.6C167.7 28 168.3 27.8 169.3 27C170.5 26.1 171.6 25 172.8 24.2C177 21.5 178.9 22.2 179.9 27.2C180.4 30 181.7 30.3 184 29.5C186.3 28.8 188.8 28 190.2 30.7C191.5 33.3 189.2 35 187.6 36.6C186.1 38.2 184.4 39.5 183 41.1C181.8 42.3 180.7 44 178.9 42.6C176.7 40.9 178.4 39.4 179.5 38C179.9 37.5 180.3 37.1 181.3 35.9C173.1 37 176.7 31.3 175.9 28.1C165.2 33.9 165.2 33.9 161.9 28.7C159 30.3 159.7 35.4 155.8 35.6C152.5 35.9 150.8 32.4 147.9 30.4Z" fill="#2C2B2A"/>
<path d="M263 86.6002C261.5 86.5002 258.8 86.3001 256.5 84.7001C255.4 83.9001 254.7 82.7002 255.5 81.3002C256.2 79.8002 257.4 79.5002 258.8 80.1002C261.7 81.4002 264.6 81.5002 267.6 80.9002C269.9 80.5002 271.7 79.4002 271.9 76.8002C272.1 74.1002 269.9 73.5002 268 73.1002C263.5 72.0002 259.5 70.7002 260.4 64.8002C260.5 64.3002 259.9 63.6001 259.5 63.2001C255.2 58.3001 258.3 52.0002 262.8 49.9002C265.9 48.5002 268 47.0002 267.9 43.3002C267.9 42.4002 268.5 41.4002 269.1 40.6002C270.2 39.0002 271.5 36.9001 273.9 38.5001C275.9 39.8001 275.2 41.6001 273.9 43.2001C272.3 45.2001 272.8 47.0002 273.9 49.1002C277.2 55.2002 274.6 61.8001 268.1 64.2001C267.2 64.5001 266 64.6002 266 65.9002C265.9 67.2002 267.2 67.3001 268 67.7001C268.3 67.9001 268.6 67.9001 268.9 68.0001C276 70.6001 278.3 73.1001 277.8 77.5001C277.3 82.2001 272.5 86.0001 266.2 86.7001C265.4 86.7001 264.8 86.6002 263 86.6002Z" fill="#2C2B2A"/>
<path d="M72.7 70.8999C73.3 73.0999 73 74.6998 70.7 75.1998C68 75.7998 65.2 77.5999 62.7 75.5999C61 74.1999 61.7 71.7999 63.9 71.3999C67.1 70.7999 67 68.8998 67 66.4998C66.9 61.1998 67.1001 55.8999 67.1001 50.5999C67.1001 47.4999 68.6 43.7998 63.7 42.6998C62.8 42.4998 62.3001 40.9999 62.8001 40.0999C64.9001 35.6999 69.0001 38.8999 72.1001 38.0999C74.4001 37.4999 74.2001 40.1998 73.6001 42.1998C72.5001 46.0998 72.4001 54.5999 73.3001 59.0999C77.0001 57.0999 78.5001 53.6999 79.8001 50.0999C80.3001 48.5999 80.9 47.0998 82.7 47.4998C84.6 47.8998 85.2 49.4999 84.9 51.3999C84 55.9999 81.9 59.8999 78 62.3999C75.1 64.2999 75.6001 65.8999 77.8001 67.7999C80.2001 69.8999 83.1001 71.2998 86.3001 71.6998C88.0001 71.8998 89.2 72.4998 89 74.4998C88.7 76.5998 87.2 77.1998 85.4 76.9998C80.5 76.3998 76.5 74.1999 72.7 70.8999Z" fill="#2C2B2A"/>
<path d="M241.6 18.0001C240.4 19.5001 239.2 21.1001 236.9 20.9001C236.6 20.6001 236.2 20.3001 235.9 20.0001C233 17.6001 230.9 14.3001 227.1 12.9001C225.1 12.2001 223.1 11.7001 221 11.3001C214.3 10.5001 208.6 12.4001 203.8 17.1001C202.7 18.2001 201.6 19.6001 199.6 19.0001C197.6 19.5001 196.9 17.9001 195.9 16.7001C206.9 2.20005 224.5 0.700072 237.6 13.0001C238.3 13.7001 239.1 14.3001 239.9 14.9001C240.5 16.1001 241.1 17.0001 241.6 18.0001Z" fill="#E49017"/>
<path d="M221.7 78.9C219.9 75.7 220.4 72.2 220.4 68.7C220.5 61.1 220.8 53.5 220.9 45.9C220.9 44.1 221.1 41.9 218.5 41.8C216 41.7 215.7 43.7 215.7 45.7C215.7 50.7 215.7 55.6 215.7 60.6C215.7 60.7 215.7 60.7 215.8 60.8C215.8 61 215.8 61.1 215.8 61.3C215.9 61.4 215.9 61.5 215.9 61.7C215.9 61.8 215.9 61.9 215.9 61.9V61.9999C215.8 62.2999 215.8 62.6 215.6 62.9C215.6 63 215.6 63 215.5 63.1C215.5 63.3 215.4 63.5 215.4 63.7V63.8C215.4 64.1 215.3 64.4 215.2 64.7C215.2 64.9 215.2 65 215.1 65.2C215.1 65.3 215 65.5 215 65.7C215 65.8 214.9 66 214.9 66.1C214.9 69.4 214.9 72.8 214.9 76.1C214.9 78.3 215.3 80.4 217.3 81.8C218.4 82.6 219.5 83.3999 220.9 82.4999C222.3 81.4999 222.4 80.2 221.7 78.9Z" fill="#2E2D2C"/>
<path d="M229.8 65.9001C229 69.7001 228.8 73.4001 230.7 77.0001C231.5 78.5001 231.9 79.9001 230.1 80.8001C228.4 81.6001 226.8 81.0001 225.7 79.6001C224.3 77.8001 224.1 75.6001 224.1 73.5001C224.3 63.6001 224.7 53.6001 225 43.7001C225.1 41.2001 226.3 40.1001 228.7 40.2001C231 41.0001 231.3 43.0001 231.4 45.0001C231.6 51.9001 231.8 59.0001 229.8 65.9001Z" fill="#2F2E2D"/>
<path d="M199.6 19.2C205.7 13 212.5 8.50005 221.8 10.2C223.1 12 222.9 13.7 221.3 15.2C220.6 15.7 219.8 16.1001 219 16.0001C211.8 15.6001 207.6 20.7 202.7 24.7C201.4 26 200.9 29.3 198 27.5C195.7 26.1 197.4 24.0001 198 22.3001C198.6 21.2001 199.2 20.2 199.6 19.2Z" fill="#FCE406"/>
<path d="M202.8 24.7002C206.5 17.0002 213 14.6002 221 14.8002C222.7 13.9002 224.2 14.8002 225.7 15.2002C228.3 16.4002 230.5 18.1002 232 20.5002C232.2 21.0002 232.1 21.4002 231.8 21.8002C230.6 22.7002 229.4 23.7002 228.2 24.6002C226.5 24.4002 225.3 23.0002 223.9 22.3002C219.2 20.1002 214 20.7002 210.1 24.1002C209 25.0002 208.3 26.6002 206.6 26.6002C204.8 27.1002 203.9 25.8002 202.8 24.7002Z" fill="#97BD2A"/>
<path d="M159 84C152.9 84.1 148.7 82.3 144.8 79.7C143.4 78.7 141.9 77.6 143.1 75.7C144.3 74 145.7 75.1 147 75.9C154 80.8 161 81.2 168 75.9C169.1 75.1 170 74.9 171 75.9C172.3 77.3 171.4 78.5 170.5 79.3C166.9 82.8 162.4 83.8 159 84Z" fill="#2F2E2D"/>
<path d="M206.6 26.8001C212.8 18.1001 221.7 17.2001 228.2 24.7001C227.1 25.8001 226 26.8001 224.8 27.9001C219 23.1001 215.3 23.4 211 29.5C210 31 209 31.7 207.4 31C205.3 30.1 206.3 28.3001 206.6 26.8001Z" fill="#0E65A6"/>
<path d="M290.9 35.7001C286.4 40.6001 281.4 41.0001 277.8 37.0001C274.5 33.4001 275.2 28.0001 279.5 24.6001C280.7 32.0001 282.9 34.3001 290.9 35.7001Z" fill="#902E7B"/>
<path d="M87.9 100.8C85.6 100.9 83.2 100.9 80.9 101C80.1 99.6001 80.5 98.1001 80.4 96.6001C80.3 89.9001 80.7 89.6001 87.9 91.5001C87.2 94.3001 84.2 91.7001 83 93.7001C83.4 96.4001 86.5001 93.8001 87.3001 95.9001C86.9001 98.5001 83.9 95.9001 83 98.0001C83.2 101 87.9 97.2002 87.9 100.8Z" fill="#464544"/>
<path d="M208.2 44.9002C206.4 44.8002 202.7 39.6002 202.9 37.6002C203.1 36.1002 204 35.2002 205.5 35.1002C207.4 35.0002 211 39.8001 210.9 42.2001C210.8 44.0001 209.6 44.7002 208.2 44.9002Z" fill="#333231"/>
<path d="M267.3 26.4C262.2 29.1 265.3 22.8 263 22.4C263.7 20.3 266.3 20.2 267.3 18.5C268.4 20.2 270.8 20.4 271.6 22.4C269.4 22.9 272.2 28.8 267.3 26.4Z" fill="#FCE510"/>
<path d="M191 90.8C191.1 94.2 191.7 97.5 190.5 101.3C188.2 99.5 189.4 97.4 189 95.7C188.7 94.6 189.7 92.8 187.5 92.8C185.8 92.8 185.9 94.2 185.9 95.3C185.9 97.8 184.9 99.7 182.9 101.2C182.4 101.1 181.9 101 181.5 100.9C183 97.8 183.7 94.6 184.6 91.3C185 89.7 188.7 90.9 191 90.8Z" fill="#373635"/>
<path d="M262.7 38.1001C262.4 40.3001 261.2 41.8001 258.9 41.9001C256.6 42.0001 255.1 40.5001 255 38.3001C254.9 35.9001 256.4 34.2001 258.9 34.3001C261.3 34.3001 262.4 35.9001 262.7 38.1001Z" fill="#1C6EAE"/>
<path d="M177.2 99.8C176.9 101.1 176.2 101.5 175.2 100.6C174 99.5 173.6 97.7 171.9 97.1C169.9 97.7 172 100.4 170 101C168 96.6999 168.4 92.3999 171 90.9999C171.2 92.1999 170.6 93.6 171.5 94.8C173 94.9 173.4 93.6 174.1 92.7C174.8 91.9 175.1 90.5 177.1 91.1C175.8 93.9 173.2 97.1 177.2 99.8Z" fill="#333332"/>
<path d="M127 99.8C126.9 101.3 126 101.4 125.1 100.6C123.9 99.5 123 98.2 122 97.1C119.8 97.6 121.9 100.5 119.8 100.9C117.8 96.4 118.2 92.3 120.9 91C121.1 92.2 120.3 93.8 121.4 94.6C122.4 95.4 123 93.9 123.7 93.5C124.4 93.7 124.5 94.3 124.8 94.9C124.7 96.9 125.4 98.6 127 99.8Z" fill="#3B3A39"/>
<path d="M152 97.0002C150.6 98.7002 150.4 101.9 146.9 100.8C146.9 97.5003 146.9 94.2002 147 90.9002C148.6 89.6002 149.3 90.8002 149.7 92.1002C150.1 93.3002 150.2 94.6003 151.5 95.3003C152 95.8003 152.5 96.3002 152 97.0002Z" fill="#393837"/>
<path d="M105.9 99.0001C104 96.5001 104.5 94.0001 106.5 92.0001C108.4 90.1001 110.7 90.3001 113.7 91.7001C111 93.5001 106.6 92.5001 107 96.9001C106.3 97.4001 106.8 98.5001 105.9 99.0001Z" fill="#313030"/>
<path d="M201.9 98.7998C201.6 98.1998 201.2 97.4998 200.9 96.8998C200.3 95.6998 201.5 95.3998 201.9 94.7998C202.2 93.8998 202.6 92.8998 202.9 91.9998C203.3 90.7998 204.3 90.4998 205.2 91.0998C206.2 91.7998 205.1 92.5998 204.9 93.1998C203.9 94.9998 202.9 96.8998 201.9 98.7998Z" fill="#414040"/>
<path d="M201.8 94.6999C201.5 95.3999 201.1 96.1 200.8 96.8C200.3 96.8 199.9 96.8999 199.4 96.8999C198.3 94.9999 197.1 93.1 196 91.1C200.1 89.4 198.7 95.4999 201.8 94.6999Z" fill="#464544"/>
<path d="M44.7 63C43.6 60.7 41.7 61.6 40 62.5C37.5 64.3 35.2 64.1 32.6 61.1C35.4 61.4 37.6 62.2 39.7 61.3C39.8 61.3 39.9 61.2 40 61.1C43 58.6 45.4 55.8 42.2 51.9C39.9 49.2 35.3 49.2 31.8 51.9C27.7 55 26.3 60.9 28.7 64.7C31.3 68.8 37.2 70.1 42 67.5C43.8 66.5 45.8 65.4 44.7 63Z" fill="#2E2D2C"/>
<path d="M105.9 98.9999C106 98.1999 106.1 97.2999 106.9 96.8999C107.6 97.5999 108.2 98.2999 108.9 98.9999C110 100.2 112.6 98.0999 112.9 100.9V101C111.2 101 109.5 101 107.8 101C107 100.5 106.1 100.1 105.9 98.9999Z" fill="#302F2E"/>
<path d="M140.9 100.8C140.9 97.4999 140.9 94.1999 140.9 90.8999C142.3 94.1999 142.3 97.4999 140.9 100.8Z" fill="#525251"/>
<path d="M153.9 89.8C152.2 89.8 150.5 89.9 149 88.8C150.4 87.4 152.3 88.6 153.8 88C153.8 88.5 153.8 89.1 153.9 89.8Z" fill="#474645"/>
<path d="M124.8 94.7999C124.4 94.2999 124.1 93.8999 123.7 93.3999C124.1 91.9999 124.6 90.5999 126.9 90.7999C127 92.5999 125.8 93.6999 124.8 94.7999Z" fill="#3A3938"/>
<path d="M212.9 92.7001C214.4 91.3001 216.2 92.1001 217.8 91.9001C216.5 93.8001 214.6 92.5001 212.9 92.7001Z" fill="#403F3E"/>
<path d="M0 46.9001C5.2 39.0001 10.1 36.7001 17.5 38.8001C23.4 40.4001 26.8 44.2001 26.9 49.5001C27 54.9001 23.6 57.9001 19.1 59.9001C17.1 60.8001 14.4 60.9001 15 64.3001C15.3 66.0001 14.6 67.9001 17.4 68.1001C19 68.2001 19.2 69.8001 19.1 71.2001C19 72.6001 18 73.2001 16.8 73.4001C14 73.9001 11.2 74.2001 8.5 74.6001C7 74.8001 5.90002 74.1001 5.40002 72.7001C4.80002 71.3001 5.30001 69.9001 6.70001 69.4001C11.1 67.7001 10.1 64.4001 8.30005 62.0001C6.40005 59.5001 7.4 58.2001 10 55.8001C4 58.0001 2.50001 53.8001 0.200012 50.9001C1.22041e-05 49.6001 0 48.2001 0 46.9001ZM21.1 49.8001C21 46.2001 18.3 44.7001 15.2 44.2001C11.9 43.7001 8.50004 43.8001 6.60004 47.4001C5.80004 48.9001 5.70002 50.3001 7.40002 51.2001C9.90002 52.5001 9.00002 50.1001 9.40002 49.2001C10 47.9001 10.8 46.9001 12.4 47.1001C14.1 47.3001 14.9 48.6001 14.9 50.3001C14.9 51.8001 14.9 53.3001 14.9 55.7001C18.1 54.4001 21.2 53.7001 21.1 49.8001Z" fill="#2C2B2A"/>
<path d="M139.9 100.8C137.9 99.8001 140.6 96.9001 138 96.1001C138.9 94.8001 139.6 95.1001 139.8 96.4001C140 97.8001 139.9 99.3001 139.9 100.8Z" fill="#525251"/>
<path d="M150.8 95.8002C151.8 94.1002 152.8 92.5002 153.9 90.8002C154.9 90.7002 156 90.6001 156 92.0001C156.1 95.0001 156 97.9002 156 101.8C153.3 100.1 154.2 98.3002 153.8 96.9002C153.2 94.8002 152.5 97.0002 151.9 96.9002C151.6 96.6002 151.2 96.2002 150.8 95.8002Z" fill="#393838"/>
<path d="M230.8 37.9002C230.3 35.7002 233.1 31.4002 227.4 32.5002C226 32.8002 224.4 33.6002 223.4 32.0002C222 30.0002 224.6 29.4002 225 27.9002C225.5 26.4002 226.5 25.2002 227.6 24.1002C228.9 22.8002 230.1 21.5002 231.9 21.0002C233.4 20.6002 234.9 20.2002 236.3 19.8002C238.2 19.4002 239.7 18.2002 241.6 17.9002C246.5 15.1002 251.4 12.3002 256.9 11.0002C260.1 10.2002 261.4 11.5002 260.6 14.6002C259 20.4002 256.7 25.9002 252.8 30.5002C251.7 31.8002 250.6 33.0002 250.6 34.8002C250.3 40.3002 246.9 43.8002 242.9 46.9002C240.6 49.3002 238.5 49.1002 238.2 45.7002C237.9 42.3002 236.3 41.6002 233.4 41.5002C230.8 41.7002 229.6 40.6002 230.8 37.9002ZM250.2 25.6002C247.6 26.1002 245.6 25.6002 244.7 22.8002C244.5 22.4002 244.2 22.1002 243.8 21.8002C240.2 24.0002 238 27.4002 235.7 31.4002C239.7 30.9002 242.2 31.5002 239.1 36.2002C244.1 33.5002 248.7 31.2002 250.7 25.9002C250.7 25.8002 250.5 25.7002 250.2 25.6002ZM250.9 26.0002C250.9 26.0002 250.9 25.9002 250.9 26.0002C253.7 24.3002 254 21.1002 255.4 18.6002C255.8 17.9002 256.2 17.0002 255.4 16.3002C254.7 15.7002 253.8 16.0002 253.1 16.3002C249.8 17.7002 246.4 19.0002 243.9 21.8002C243.9 22.2002 244 22.7002 244 23.1002C247 22.2002 249.5 22.7002 250.9 26.0002Z" fill="#2C2B2A"/>
<path d="M231.9 21.9001C231.9 21.6001 231.8 21.3001 231.9 21.0001C232.9 17.7001 234.9 19.2001 236.8 20.0001C236.9 20.3001 236.9 20.6001 236.9 20.9001C235.2 21.2001 233.8 22.4001 231.9 21.9001Z" fill="#FEEC02"/>
<path d="M119.8 50.6002C125.8 45.5002 129.6 44.4002 132.8 46.8002C136.1 49.2002 136.6 55.5002 133.9 61.1002C131.4 66.3002 127.5 69.6001 121.5 69.5001C119.9 69.5001 118.8 69.5001 117.9 71.2001C117.2 72.5001 115.9 72.9001 114.5 72.0001C113.3 71.2001 112.7 70.0002 113 68.6002C114.8 59.4002 113.7 50.1002 114.1 40.8002C114.2 38.6002 113.5 35.5001 117 35.7001C120.5 35.8001 119.6 38.9002 119.7 41.1002C119.8 44.1002 119.8 47.2002 119.8 50.6002ZM129.2 51.2001C127.9 50.7001 126.9 51.5002 126.1 52.3002C123.8 54.8002 122.6 57.9001 121.3 60.9001C120.9 61.8001 120.5 62.8001 121.4 63.7001C122.2 64.5001 123.3 64.1002 124.2 63.8002C128.4 62.0002 129.7 58.4001 130.3 54.5001C130.1 53.1001 130.5 51.8001 129.2 51.2001Z" fill="#2D2C2B"/>
<path d="M242.9 49.1001C243.8 48.8001 244.8 48.4001 245.7 48.1001C248.1 47.2001 250.6 46.3001 252.8 48.2001C255.1 50.3001 252.5 52.0001 251.8 53.9001C250.6 57.5001 251 61.1001 252.1 64.7001C252.4 65.7001 253 67.5001 254.9 66.6001C256.7 65.7001 257.9 66.3001 258.3 68.1001C258.8 70.0001 257.7 71.2001 256.1 72.0001C253.2 73.4001 250.9 72.3001 249.2 70.0001C247.8 68.2001 246.9 66.0001 246.6 63.4001C242.8 65.9001 240.7 70.9001 235.3 70.1001C232.9 69.7001 231.6 68.0001 230.8 66.0001C229.8 64.7001 229.8 63.1001 230.5 61.7001C233 55.9001 236.6 51.1001 242.9 49.1001ZM242.1 57.6001C239.1 59.0001 237.6 60.8001 236.5 64.6001C239.8 62.6001 241.5 61.0001 242.1 57.6001Z" fill="#2C2B2A"/>
<path d="M99.7 63.6C97.5 65.6 96 68 93.3 69.3C90.8 70.4 88.5 70.5 86.3 68.8C84.1 67 84.1 64.5 85.1 62.4C88.6 54.8 94.3 49.5 102.5 47.3C106.4 46.3 108.2 48.7 106.5 52.4C104.8 55.9 104.7 59.4 105.7 63C106.3 65.2 106.4 67.9 110 66.2C111 65.7 111.9 66.7 112.1 67.7C112.4 69.1 112.2 70.4 111.1 71.3C108.1 73.4 105.4 72.9 103.3 70.1C101.9 68.3 101 66.1 99.7 63.6ZM95.6 57.6C92.9 59.3 91 60.7 90.9 64.4C93.4 62.4 95.7 61.2 95.6 57.6Z" fill="#2C2B2A"/>
<path d="M158.4 57.2C158.4 62.9 152.2 68.7 146.2 68.8C141.4 68.8 137.6 65.2 137.7 60.4C137.8 54.8 142.8 49.6 148.1 49.8C154.9 49.9 158.4 52.4 158.4 57.2ZM146.6 58.3C145.9 57.8 145.9 55.6 144.3 57.3C143.4 58.3 142.7 59.4 142.9 60.9C143.1 62.3 144.1 62.8 145.2 63.1C148.7 64 152.6 60.2 152.4 55.4C150.4 57.3 149.5 60.5 146.6 58.3Z" fill="#2C2B2A"/>
<path d="M236.8 20.0001C235.1 20.2001 233.3 19.3001 231.9 21.0001C229.9 19.4001 227.9 17.9001 226 16.3001C224.5 13.8001 226.1 12.9001 228.1 12.1001C231.8 13.8001 234.6 16.6001 236.8 20.0001Z" fill="#FBE308"/>
<path d="M61.9001 61.6002C60.6001 61.8002 59.3001 62.0002 58.1001 62.1002C58.1001 62.1002 58.0001 62.1002 58.0001 62.2002C55.5001 64.0002 53.3001 64.0002 50.8001 60.6002C53.6001 61.8002 55.8001 62.1002 58.0001 61.1002C58.0001 61.0002 58.1001 61.0002 58.1001 60.9002C58.2001 60.8002 58.3001 60.8002 58.4001 60.8002C58.9001 60.5002 59.4001 60.1002 60.0001 59.8002C62.4001 54.7002 61.8001 51.8002 58.2001 50.3002C54.2001 48.7002 49.2001 50.9002 46.9001 55.2002C44.6001 59.5002 45.7001 64.7002 49.3001 67.1002C53.1001 69.7002 59.5001 69.1002 62.1001 66.0002C63.5001 64.5002 63.1001 63.1002 61.9001 61.6002Z" fill="#2E2D2C"/>
<path d="M217.1 18C218 18.1 219.6 18.1 219.6 18.3C219.7 19.5 218.7 18.8 218.1 19C217.7 19.1 217.2 18.8 216.8 18.7C216.9 18.4 217 18.2 217.1 18Z" fill="#9CC124"/>
<path d="M73.9 90.9C74 94.1 73.6 97.3 74.6 100.7C71 100.7 67.6 100.7 64.2 100.7C65.5 98.2 66.8 95.8 67.3 92.8C67.8 88.6 71.5 91.4 73.9 90.9ZM70.3 92.9C67.8 93.2 69.2999 95.9 68.4999 97.3C67.5999 98.8 68.8 99.2 70.1 99.2C72.5 99.2 71.7999 97.4 71.9999 96C71.5999 94.9 72.8 92.6 70.3 92.9Z" fill="#333231"/>
<path d="M217 101C210.2 100.9 210.2 100.9 210.9 90.8001C213.2 91.1001 215.9 89.5001 217.9 91.8001C216.4 92.9001 214.5 91.7001 213 92.6001C210.8 96.2001 214.3 94.3001 215 94.5001C216.6 94.9001 218.3 94.9001 218.8 96.9001C219.2 98.7001 218.7 100.1 217 101ZM212 97.4001C211.8 97.6001 212.1 98.9001 212.4 99.1001C214 99.9001 215.4 99.2001 217.5 97.2001C214.9 97.0001 213.4 96.1001 212 97.4001Z" fill="#3F3E3D"/>
<path d="M244 23.1999C245.3 21.7999 246.6 20.1 248.9 21C251.3 21.9 250.9 24.0999 250.9 25.9999C247.2 28.3999 244.7 27.8999 244 23.1999Z" fill="#3D3C3B"/>
</svg>
