<svg width="295" height="102" xmlns="http://www.w3.org/2000/svg" fill="none">

 <g>
  <title>Layer 1</title>
  <path id="svg_1" fill="#DF3925" d="m224.1,0.79999c6.9,1.1 12.7,4.20002 17.4,9.30001c2.1,2.2 2.6,4.4 -1.5,5c-2.2,0.6 -3.3,-1.2 -4.6,-2.3c-11.1,-9.10001 -24.6,-8.70001 -35,1c-1.3,1.2 -2.6,2.6 -4.4,3.1c-1,1.9 -2.1,3.7 -3.1,5.6c-0.7,1.4 -1.5,2.9 -3.3,2.2c-1.9,-0.8 -1.9,-2.4 -1.1,-4.2c3.7,-9.1 10.3,-15.20001 19.5,-18.60001c1.5,-0.6 3.2,-0.8 4.8,-1.1c1.6,-0.8 3.6,0.40001 5.2,-0.79999c0.3,0 0.7,0 1,0c1.5,1.2 3.4,-0.00001 5.1,0.79999z"/>
  <path id="svg_2" fill="#2E2D2C" d="m293,61.3001c-0.1,0.2 -0.2,0.3 -0.4,0.3c-1.2,0.3 -2.4,0.8 -3.7,1.2c-0.6,0.2 -1.2,0.3 -1.9,0.3c-0.5,0 -1.1,0.0999 -1.6,-0.1001c-0.1,0 -0.2,-0.0999 -0.3,-0.1999l-0.1,0c-0.2,-0.1 -0.4,-0.3 -0.6,-0.5c-0.1,0 -0.3,0.1 -0.4,0l-0.1,-0.1c-0.6,-0.4 -1.1,-0.9001 -1.2,-1.7001c-0.1,-0.5 0,-0.8999 0.1,-1.3999c0.1,-0.4 0.3,-0.8 0.4,-1.2c0.1,-0.3 0.4,-0.4 0.6,-0.3c0.3,0.1 0.4,0.4 0.3,0.6l0,0.1c0,0.1 0,0.0999 0,0.1999c0,0.2 0.1,0.4001 0.2,0.6001c0.1,0.3 0.2,0.7 0.3,1c0.1,0.4 0.1,0.8 0.3,1.2c0.1,0.1 0.2,0.3 0.3,0.4c0,0.1 0.1,0.1 0.1,0.2c0.1,-0.1 0.3,-0.1 0.4,0c0.4,0.2 0.9,0.0999 1.3,0.0999c0.6,-0.1 1.1,-0.1999 1.7,-0.2999c0.8,-0.2 1.6,-0.5 2.4,-0.8c0.2,-0.2 0.5,-0.5 0.7,-0.8c1.6,-2.5 3,-5 0.8,-7.8c-1.8,-2.4 -4.5,-2.7 -7.2,-2.1c-5.4,1.3 -9.1,7.6999 -7.4,12.7999c1.6,4.8 7.6,7.2 12.8,5c1.4,-0.5 2.6,-1.3999 3.9,-2.0999l0,-4c-0.5,-0.3 -1.1,-0.5 -1.7,-0.6z"/>
  <path id="svg_6" fill="#E8786B" d="m217.9,0c-1.5,1.5 -3.4,0.99999 -5.2,0.79999c0.1,-0.3 0.1,-0.59999 0.2,-0.79999c1.6,0 3.3,0 5,0z"/>
  <path id="svg_7" fill="#E8786B" d="m224.1,0.79999c-1.8,0.2 -3.7,0.70001 -5.2,-0.79999c1.7,0 3.3,0 5,0c0,0.3 0.1,0.49999 0.2,0.79999z"/>
  <path id="svg_8" fill="#2C2B2A" d="m213.1,65.6998c0,0 0.1,0 0,0c-0.1,-0.1 -0.3,-0.2 -0.5,-0.2c-3.9,0.1 -3,-2.6 -3,-4.7c-0.1,-2.8 -0.2,-5.7 0.1,-8.5c0.4,-3.7 -1.2,-4.9 -4.6,-4.3c-1.2,0.1 -3,1.5 -3.2,-1.2c1.3,-1.5 1.5,-3 -0.2,-4.3c-1.8,-1.3 -3.1,-0.1 -4.3,1.1c-3.8,4 -5.1,9.4 -8,14.9c-0.6,-2.5 -1.3,-4.1 -1.3,-5.7c0.2,-5 -1.1,-6.2 -5.3,-3.8c-3.8,2.2 -7.1,1.8 -11.1,0.8c-4.6,-1.2 -8.1,1.4 -10.3,5.2c-2.1,3.5 -2.5,7.3 0.5,10.6c3.1,3.4 7,3.5 11,1.7c5.4,-2.3 7.6,-6.8 8.8,-13.5c3,6.4 4.4,11.9 5.1,17.6c0.2,1.6 0.5,3 2.3,3.3c2.2,0.2 2.7,-1.3 3,-3.1c1,-5.9 2.9,-11.6 5.1,-17.1c0.5,-1.4 0.9,-3 2.9,-1.2c1.2,1.1 4.9,-0.7 3.9,2.8c-1,3.3 3.4,8.1 -2.6,10.1c-1.4,0.4 -2.1,1.6 -1.7,3.2c0.3,1.3 1.2,2.1 2.5,2c3.3,-0.2 6.6,-0.5 9.9,-0.9c1.3,-0.1 2.1,-1 2.2,-2.4c0,-0.6 0,-1.2 -0.2,-1.7c-0.6,0.1 -1,-0.2 -1,-0.7zm-38.1,-7.4c-0.1,0.5 -0.4,1 -0.7,1.4c-0.1,0.2 -0.3,0.2 -0.4,0.2c-0.5,0.5 -0.8,1 -1.3,1.5c-0.3,0.3 -0.7,0.5 -1.1,0.7c-0.1,0 -0.1,0.1 -0.2,0.1c-0.2,0.1 -0.5,0.2 -0.7,0.3c-0.2,0.1 -0.4,0.2 -0.7,0.3c-0.9,0.3 -1.9,0.5 -2.8,0.2c-0.2,-0.1 -0.5,-0.2 -0.7,-0.3c-0.3,-0.1 -0.5,-0.3 -0.7,-0.5c-0.1,-0.1 -0.2,-0.3 -0.2,-0.4c-0.2,-0.3 -0.3,-0.6 -0.3,-1c-0.1,-0.7 0.2,-1.2 0.4,-1.8c0.3,-0.6 0.4,-1.2 1,-1.5c0.6,-0.4 1.3,-0.1 1.7,0.5c0.1,0.1 0.1,0.2 0.2,0.2l0.1,0.1c0.1,0 0.2,0.1 0.4,0.1c0.6,0.2 1.2,0.4 1.9,0.4c0.2,0 0.5,-0.1 0.7,-0.2l0.2,-0.1c0.1,0 0.1,-0.1 0.2,-0.1c0.2,-0.2 0.4,-0.4 0.6,-0.6c0.1,-0.2 0.2,-0.5 0.2,-0.7c0.2,-0.5 0.5,-1 1.1,-1.1c0.6,-0.1 1,0.3 1.1,0.8c0.1,0.6 0.1,1 0,1.5zm13.2,4.2c-0.6,0 -0.6,-1 0,-1c0.6,0 0.6,1 0,1z"/>
  <path id="svg_9" fill="#2C2B2A" d="m147.9,30.4c-0.5,7.7 -1.2,8.2 -6.6,5.8c-0.3,1.9 0.9,3.4001 1.4,5.1001c0.4,1.5 0,2.6999 -1.4,3.1999c-1.3,0.5 -2.2,-0.5 -2.7,-1.6c-0.9,-2.1 -1.8,-4.3 -2.6,-6.4c-0.8,-2.3 -2.1,-5 0,-7c2.3,-2.2 4.5,0.3 6.6,1.2c0.3,-1.4 0.4,-2.6999 0.9,-3.8999c1.4,-3.7 3.3,-4.2001 6.2,-1.7001c0.9,0.8 1.8,1.6 2.4,2.5c1.8,2.4 2.9,2.7 4.7,-0.4c3.4,-6 5.5,-6 9.8,-0.6c1.1,1.4 1.7,1.2 2.7,0.4c1.2,-0.9 2.3,-2 3.5,-2.8c4.2,-2.7 6.1,-2 7.1,3c0.5,2.8 1.8,3.1 4.1,2.3c2.3,-0.7 4.8,-1.5 6.2,1.2c1.3,2.6 -1,4.3 -2.6,5.9c-1.5,1.6 -3.2,2.9 -4.6,4.5c-1.2,1.2 -2.3,2.9 -4.1,1.5c-2.2,-1.7 -0.5,-3.2 0.6,-4.6c0.4,-0.5 0.8,-0.9 1.8,-2.1c-8.2,1.1 -4.6,-4.6 -5.4,-7.8c-10.7,5.8 -10.7,5.8 -14,0.6c-2.9,1.6 -2.2,6.7 -6.1,6.9c-3.3,0.3 -5,-3.2 -7.9,-5.2z"/>
  <path id="svg_10" fill="#2C2B2A" d="m263,86.6002c-1.5,-0.1 -4.2,-0.3001 -6.5,-1.9001c-1.1,-0.8 -1.8,-1.9999 -1,-3.3999c0.7,-1.5 1.9,-1.8 3.3,-1.2c2.9,1.3 5.8,1.4 8.8,0.8c2.3,-0.4 4.1,-1.5 4.3,-4.1c0.2,-2.7 -2,-3.3 -3.9,-3.7c-4.5,-1.1 -8.5,-2.4 -7.6,-8.3c0.1,-0.5 -0.5,-1.2001 -0.9,-1.6001c-4.3,-4.9 -1.2,-11.1999 3.3,-13.2999c3.1,-1.4 5.2,-2.9 5.1,-6.6c0,-0.9 0.6,-1.9 1.2,-2.7c1.1,-1.6 2.4,-3.7001 4.8,-2.1001c2,1.3 1.3,3.1 0,4.7c-1.6,2 -1.1,3.8001 0,5.9001c3.3,6.1 0.7,12.6999 -5.8,15.0999c-0.9,0.3 -2.1,0.4001 -2.1,1.7001c-0.1,1.3 1.2,1.3999 2,1.7999c0.3,0.2 0.6,0.2 0.9,0.3c7.1,2.6 9.4,5.1 8.9,9.5c-0.5,4.7 -5.3,8.5 -11.6,9.2c-0.8,0 -1.4,-0.0999 -3.2,-0.0999z"/>
  <path id="svg_11" fill="#2C2B2A" d="m72.7,70.8999c0.6,2.2 0.3,3.7999 -2,4.2999c-2.7,0.6 -5.5,2.4001 -8,0.4001c-1.7,-1.4 -1,-3.8 1.2,-4.2c3.2,-0.6 3.1,-2.5001 3.1,-4.9001c-0.1,-5.3 0.1001,-10.5999 0.1001,-15.8999c0,-3.1 1.4999,-6.8001 -3.4001,-7.9001c-0.9,-0.2 -1.3999,-1.6999 -0.8999,-2.5999c2.1,-4.4 6.2,-1.2 9.3,-2c2.3,-0.6 2.1,2.0999 1.5,4.0999c-1.1,3.9 -1.2,12.4001 -0.3,16.9001c3.7,-2 5.2,-5.4 6.5,-9c0.5,-1.5 1.0999,-3.0001 2.8999,-2.6001c1.9,0.4 2.5,2.0001 2.2,3.9001c-0.9,4.6 -3,8.5 -6.9,11c-2.9,1.9 -2.3999,3.5 -0.1999,5.4c2.4,2.1 5.3,3.4999 8.5,3.8999c1.7,0.2 2.8999,0.8 2.6999,2.8c-0.3,2.1 -1.8,2.7 -3.6,2.5c-4.9,-0.6 -8.9,-2.7999 -12.7,-6.0999z"/>
  <path id="svg_12" fill="#E49017" d="m241.6,18.0001c-1.2,1.5 -2.4,3.1 -4.7,2.9c-0.3,-0.3 -0.7,-0.6 -1,-0.9c-2.9,-2.4 -5,-5.7 -8.8,-7.1c-2,-0.7 -4,-1.2 -6.1,-1.6c-6.7,-0.8 -12.4,1.1 -17.2,5.8c-1.1,1.1 -2.2,2.5 -4.2,1.9c-2,0.5 -2.7,-1.1 -3.7,-2.3c11,-14.50005 28.6,-16.00003 41.7,-3.7c0.7,0.7 1.5,1.3 2.3,1.9c0.6,1.2 1.2,2.1 1.7,3.1z"/>
  <path id="svg_13" fill="#2E2D2C" d="m221.7,78.9c-1.8,-3.2 -1.3,-6.7 -1.3,-10.2c0.1,-7.6 0.4,-15.2 0.5,-22.8c0,-1.8 0.2,-4 -2.4,-4.1c-2.5,-0.1 -2.8,1.9 -2.8,3.9c0,5 0,9.9 0,14.9c0,0.1 0,0.1 0.1,0.2c0,0.2 0,0.3 0,0.5c0.1,0.1 0.1,0.2 0.1,0.4c0,0.1 0,0.2 0,0.2l0,0.0999c-0.1,0.3 -0.1,0.6001 -0.3,0.9001c0,0.1 0,0.1 -0.1,0.2c0,0.2 -0.1,0.4 -0.1,0.6l0,0.1c0,0.3 -0.1,0.6 -0.2,0.9c0,0.2 0,0.3 -0.1,0.5c0,0.1 -0.1,0.3 -0.1,0.5c0,0.1 -0.1,0.3 -0.1,0.4c0,3.3 0,6.7 0,10c0,2.2 0.4,4.3 2.4,5.7c1.1,0.8 2.2,1.5999 3.6,0.6999c1.4,-1 1.5,-2.2999 0.8,-3.5999z"/>
  <path id="svg_14" fill="#2F2E2D" d="m229.8,65.9001c-0.8,3.8 -1,7.5 0.9,11.1c0.8,1.5 1.2,2.9 -0.6,3.8c-1.7,0.8 -3.3,0.2 -4.4,-1.2c-1.4,-1.8 -1.6,-4 -1.6,-6.1c0.2,-9.9 0.6,-19.9 0.9,-29.8c0.1,-2.5 1.3,-3.6 3.7,-3.5c2.3,0.8 2.6,2.8 2.7,4.8c0.2,6.9 0.4,14 -1.6,20.9z"/>
  <path id="svg_15" fill="#FCE406" d="m199.6,19.2c6.1,-6.2 12.9,-10.69995 22.2,-9c1.3,1.8 1.1,3.5 -0.5,5c-0.7,0.5 -1.5,0.9001 -2.3,0.8001c-7.2,-0.4 -11.4,4.6999 -16.3,8.6999c-1.3,1.3 -1.8,4.6 -4.7,2.8c-2.3,-1.4 -0.6,-3.4999 0,-5.1999c0.6,-1.1 1.2,-2.1001 1.6,-3.1001z"/>
  <path id="svg_16" fill="#97BD2A" d="m202.8,24.7002c3.7,-7.7 10.2,-10.1 18.2,-9.9c1.7,-0.9 3.2,0 4.7,0.4c2.6,1.2 4.8,2.9 6.3,5.3c0.2,0.5 0.1,0.9 -0.2,1.3c-1.2,0.9 -2.4,1.9 -3.6,2.8c-1.7,-0.2 -2.9,-1.6 -4.3,-2.3c-4.7,-2.2 -9.9,-1.6 -13.8,1.8c-1.1,0.9 -1.8,2.5 -3.5,2.5c-1.8,0.5 -2.7,-0.8 -3.8,-1.9z"/>
  <path id="svg_17" fill="#2F2E2D" d="m159,84c-6.1,0.1 -10.3,-1.7 -14.2,-4.3c-1.4,-1 -2.9,-2.1 -1.7,-4c1.2,-1.7 2.6,-0.6 3.9,0.2c7,4.9 14,5.3 21,0c1.1,-0.8 2,-1 3,0c1.3,1.4 0.4,2.6 -0.5,3.4c-3.6,3.5 -8.1,4.5 -11.5,4.7z"/>
  <path id="svg_18" fill="#0E65A6" d="m206.6,26.8001c6.2,-8.7 15.1,-9.6 21.6,-2.1c-1.1,1.1 -2.2,2.1 -3.4,3.2c-5.8,-4.8 -9.5,-4.5001 -13.8,1.5999c-1,1.5 -2,2.2 -3.6,1.5c-2.1,-0.9 -1.1,-2.6999 -0.8,-4.1999z"/>
  <path id="svg_19" fill="#902E7B" d="m290.9,35.7001c-4.5,4.9 -9.5,5.3 -13.1,1.3c-3.3,-3.6 -2.6,-9 1.7,-12.4c1.2,7.4 3.4,9.7 11.4,11.1z"/>
  <path id="svg_21" fill="#333231" d="m208.2,44.9002c-1.8,-0.1 -5.5,-5.3 -5.3,-7.3c0.2,-1.5 1.1,-2.4 2.6,-2.5c1.9,-0.1 5.5,4.6999 5.4,7.0999c-0.1,1.8 -1.3,2.5001 -2.7,2.7001z"/>
  <path id="svg_22" fill="#FCE510" d="m267.3,26.4c-5.1,2.7 -2,-3.6 -4.3,-4c0.7,-2.1 3.3,-2.2 4.3,-3.9c1.1,1.7 3.5,1.9 4.3,3.9c-2.2,0.5 0.6,6.4 -4.3,4z"/>
  <path id="svg_24" fill="#1C6EAE" d="m262.7,38.1001c-0.3,2.2 -1.5,3.7 -3.8,3.8c-2.3,0.1 -3.8,-1.4 -3.9,-3.6c-0.1,-2.4 1.4,-4.1 3.9,-4c2.4,0 3.5,1.6 3.8,3.8z"/>
  <path id="svg_31" fill="#2E2D2C" d="m44.7,63c-1.1,-2.3 -3,-1.4 -4.7,-0.5c-2.5,1.8 -4.8,1.6 -7.4,-1.4c2.8,0.3 5,1.1 7.1,0.2c0.1,0 0.2,-0.1 0.3,-0.2c3,-2.5 5.4,-5.3 2.2,-9.2c-2.3,-2.7 -6.9,-2.7 -10.4,0c-4.1,3.1 -5.5,9 -3.1,12.8c2.6,4.1 8.5,5.4 13.3,2.8c1.8,-1 3.8,-2.1 2.7,-4.5z"/>
  <path id="svg_37" fill="#2C2B2A" d="m0,46.9001c5.2,-7.9 10.1,-10.2 17.5,-8.1c5.9,1.6 9.3,5.4 9.4,10.7c0.1,5.4 -3.3,8.4 -7.8,10.4c-2,0.9 -4.7,1 -4.1,4.4c0.3,1.7 -0.4,3.6 2.4,3.8c1.6,0.1 1.8,1.7 1.7,3.1c-0.1,1.4 -1.1,2 -2.3,2.2c-2.8,0.5 -5.6,0.8 -8.3,1.2c-1.5,0.2 -2.59998,-0.5 -3.09998,-1.9c-0.6,-1.4 -0.10001,-2.8 1.29999,-3.3c4.39999,-1.7 3.39999,-5 1.60004,-7.4c-1.9,-2.5 -0.90005,-3.8 1.69995,-6.2c-6,2.2 -7.49999,-2 -9.79999,-4.9c-0.2,-1.3 -0.20001,-2.7 -0.20001,-4zm21.1,2.9c-0.1,-3.6 -2.8,-5.1 -5.9,-5.6c-3.3,-0.5 -6.69996,-0.4 -8.59996,3.2c-0.8,1.5 -0.90002,2.9 0.79998,3.8c2.5,1.3 1.6,-1.1 2,-2c0.59998,-1.3 1.39998,-2.3 2.99998,-2.1c1.7,0.2 2.5,1.5 2.5,3.2c0,1.5 0,3 0,5.4c3.2,-1.3 6.3,-2 6.2,-5.9z"/>
  <path id="svg_40" fill="#2C2B2A" d="m230.8,37.9002c-0.5,-2.2 2.3,-6.5 -3.4,-5.4c-1.4,0.3 -3,1.1 -4,-0.5c-1.4,-2 1.2,-2.6 1.6,-4.1c0.5,-1.5 1.5,-2.7 2.6,-3.8c1.3,-1.3 2.5,-2.6 4.3,-3.1c1.5,-0.4 3,-0.8 4.4,-1.2c1.9,-0.4 3.4,-1.6 5.3,-1.9c4.9,-2.8 9.8,-5.6 15.3,-6.9c3.2,-0.8 4.5,0.5 3.7,3.6c-1.6,5.8 -3.9,11.3 -7.8,15.9c-1.1,1.3 -2.2,2.5 -2.2,4.3c-0.3,5.5 -3.7,9 -7.7,12.1c-2.3,2.4 -4.4,2.2 -4.7,-1.2c-0.3,-3.4 -1.9,-4.1 -4.8,-4.2c-2.6,0.2 -3.8,-0.9 -2.6,-3.6zm19.4,-12.3c-2.6,0.5 -4.6,0 -5.5,-2.8c-0.2,-0.4 -0.5,-0.7 -0.9,-1c-3.6,2.2 -5.8,5.6 -8.1,9.6c4,-0.5 6.5,0.1 3.4,4.8c5,-2.7 9.6,-5 11.6,-10.3c0,-0.1 -0.2,-0.2 -0.5,-0.3zm0.7,0.4c0,0 0,-0.1 0,0c2.8,-1.7 3.1,-4.9 4.5,-7.4c0.4,-0.7 0.8,-1.6 0,-2.3c-0.7,-0.6 -1.6,-0.3 -2.3,0c-3.3,1.4 -6.7,2.7 -9.2,5.5c0,0.4 0.1,0.9 0.1,1.3c3,-0.9 5.5,-0.4 6.9,2.9z"/>
  <path id="svg_41" fill="#FEEC02" d="m231.9,21.9001c0,-0.3 -0.1,-0.6 0,-0.9c1,-3.3 3,-1.8 4.9,-1c0.1,0.3 0.1,0.6 0.1,0.9c-1.7,0.3 -3.1,1.5 -5,1z"/>
  <path id="svg_42" fill="#2D2C2B" d="m119.8,50.6002c6,-5.1 9.8,-6.2 13,-3.8c3.3,2.4 3.8,8.7 1.1,14.3c-2.5,5.2 -6.4,8.4999 -12.4,8.3999c-1.6,0 -2.7,0 -3.6,1.7c-0.7,1.3 -2,1.7 -3.4,0.8c-1.2,-0.8 -1.8,-1.9999 -1.5,-3.3999c1.8,-9.2 0.7,-18.5 1.1,-27.8c0.1,-2.2 -0.6,-5.3001 2.9,-5.1001c3.5,0.1 2.6,3.2001 2.7,5.4001c0.1,3 0.1,6.1 0.1,9.5zm9.4,0.5999c-1.3,-0.5 -2.3,0.3001 -3.1,1.1001c-2.3,2.5 -3.5,5.5999 -4.8,8.5999c-0.4,0.9 -0.8,1.9 0.1,2.8c0.8,0.8 1.9,0.4001 2.8,0.1001c4.2,-1.8 5.5,-5.4001 6.1,-9.3001c-0.2,-1.4 0.2,-2.7 -1.1,-3.3z"/>
  <path id="svg_43" fill="#2C2B2A" d="m242.9,49.1001c0.9,-0.3 1.9,-0.7 2.8,-1c2.4,-0.9 4.9,-1.8 7.1,0.1c2.3,2.1 -0.3,3.8 -1,5.7c-1.2,3.6 -0.8,7.2 0.3,10.8c0.3,1 0.9,2.8 2.8,1.9c1.8,-0.9 3,-0.3 3.4,1.5c0.5,1.9 -0.6,3.1 -2.2,3.9c-2.9,1.4 -5.2,0.3 -6.9,-2c-1.4,-1.8 -2.3,-4 -2.6,-6.6c-3.8,2.5 -5.9,7.5 -11.3,6.7c-2.4,-0.4 -3.7,-2.1 -4.5,-4.1c-1,-1.3 -1,-2.9 -0.3,-4.3c2.5,-5.8 6.1,-10.6 12.4,-12.6zm-0.8,8.5c-3,1.4 -4.5,3.2 -5.6,7c3.3,-2 5,-3.6 5.6,-7z"/>
  <path id="svg_44" fill="#2C2B2A" d="m99.7,63.6c-2.2,2 -3.7,4.4 -6.4,5.7c-2.5,1.1 -4.8,1.2 -7,-0.5c-2.2,-1.8 -2.2,-4.3 -1.2,-6.4c3.5,-7.6 9.2,-12.9 17.4,-15.1c3.9,-1 5.7,1.4 4,5.1c-1.7,3.5 -1.8,7 -0.8,10.6c0.6,2.2 0.7,4.9 4.3,3.2c1,-0.5 1.9,0.5 2.1,1.5c0.3,1.4 0.1,2.7 -1,3.6c-3,2.1 -5.7,1.6 -7.8,-1.2c-1.4,-1.8 -2.3,-4 -3.6,-6.5zm-4.1,-6c-2.7,1.7 -4.6,3.1 -4.7,6.8c2.5,-2 4.8,-3.2 4.7,-6.8z"/>
  <path id="svg_45" fill="#2C2B2A" d="m158.4,57.2c0,5.7 -6.2,11.5 -12.2,11.6c-4.8,0 -8.6,-3.6 -8.5,-8.4c0.1,-5.6 5.1,-10.8 10.4,-10.6c6.8,0.1 10.3,2.6 10.3,7.4zm-11.8,1.1c-0.7,-0.5 -0.7,-2.7 -2.3,-1c-0.9,1 -1.6,2.1 -1.4,3.6c0.2,1.4 1.2,1.9 2.3,2.2c3.5,0.9 7.4,-2.9 7.2,-7.7c-2,1.9 -2.9,5.1 -5.8,2.9z"/>
  <path id="svg_46" fill="#FBE308" d="m236.8,20.0001c-1.7,0.2 -3.5,-0.7 -4.9,1c-2,-1.6 -4,-3.1 -5.9,-4.7c-1.5,-2.5 0.1,-3.4 2.1,-4.2c3.7,1.7 6.5,4.5 8.7,7.9z"/>
  <path id="svg_47" fill="#2E2D2C" d="m61.9001,61.6002c-1.3,0.2 -2.6,0.4 -3.8,0.5c0,0 -0.1,0 -0.1,0.1c-2.5,1.8 -4.7,1.8 -7.2,-1.6c2.8,1.2 5,1.5 7.2,0.5c0,-0.1 0.1,-0.1 0.1,-0.2c0.1,-0.1 0.2,-0.1 0.3,-0.1c0.5,-0.3 1,-0.7 1.6,-1c2.4,-5.1 1.8,-8 -1.8,-9.5c-4,-1.6 -9,0.6 -11.3,4.9c-2.3,4.3 -1.2,9.5 2.4,11.9c3.8,2.6 10.2,2 12.8,-1.1c1.4,-1.5 1,-2.9 -0.2,-4.4z"/>
  <path id="svg_48" fill="#9CC124" d="m217.1,18c0.9,0.1 2.5,0.1 2.5,0.3c0.1,1.2 -0.9,0.5 -1.5,0.7c-0.4,0.1 -0.9,-0.2 -1.3,-0.3c0.1,-0.3 0.2,-0.5 0.3,-0.7z"/>
  <path id="svg_51" fill="#3D3C3B" d="m244,23.1999c1.3,-1.4 2.6,-3.0999 4.9,-2.1999c2.4,0.9 2,3.0999 2,4.9999c-3.7,2.4 -6.2,1.9 -6.9,-2.8z"/>
 </g>
</svg>