<svg width="185" height="184" viewBox="0 0 185 184" fill="none" xmlns="http://www.w3.org/2000/svg">
<g clip-path="url(#clip0_848_166)">
<line x1="-30.279" y1="164.779" x2="97.6357" y2="12.3363" stroke="#363636" stroke-opacity="0.2" stroke-width="2"/>
<line x1="89.2239" y1="265.054" x2="217.139" y2="112.611" stroke="#363636" stroke-opacity="0.2" stroke-width="2"/>
<line x1="30.1153" y1="214.15" x2="158.03" y2="61.7074" stroke="#363636" stroke-opacity="0.2" stroke-width="2"/>
<line x1="-1.04607" y1="190.614" x2="126.869" y2="38.1707" stroke="#363636" stroke-opacity="0.2" stroke-width="2"/>
<line x1="59.3482" y1="239.985" x2="187.263" y2="87.5423" stroke="#363636" stroke-opacity="0.2" stroke-width="2"/>
<line x1="-40.2375" y1="156.423" x2="87.6772" y2="3.97982" stroke="#363636" stroke-opacity="0.2" stroke-width="2"/>
<line x1="102.863" y1="283.026" x2="230.778" y2="130.583" stroke="#363636" stroke-opacity="0.2" stroke-width="2"/>
<line x1="79.2653" y1="256.698" x2="207.18" y2="104.255" stroke="#363636" stroke-opacity="0.2" stroke-width="2"/>
<line x1="20.1567" y1="205.794" x2="148.071" y2="53.3514" stroke="#363636" stroke-opacity="0.2" stroke-width="2"/>
<line x1="-11.0046" y1="182.258" x2="116.91" y2="29.8148" stroke="#363636" stroke-opacity="0.2" stroke-width="2"/>
<line x1="49.3896" y1="231.629" x2="177.304" y2="79.1859" stroke="#363636" stroke-opacity="0.2" stroke-width="2"/>
<line x1="-19.6775" y1="172.369" x2="108.237" y2="19.9266" stroke="#363636" stroke-opacity="0.2" stroke-width="2"/>
<line x1="99.8253" y1="272.644" x2="227.74" y2="120.201" stroke="#363636" stroke-opacity="0.2" stroke-width="2"/>
<line x1="40.7166" y1="221.741" x2="168.631" y2="69.2977" stroke="#363636" stroke-opacity="0.2" stroke-width="2"/>
<line x1="9.55537" y1="198.204" x2="137.47" y2="45.7611" stroke="#363636" stroke-opacity="0.2" stroke-width="2"/>
<line x1="69.9495" y1="247.575" x2="197.864" y2="95.1327" stroke="#363636" stroke-opacity="0.2" stroke-width="2"/>
</g>
<defs>
<clipPath id="clip0_848_166">
<rect x="84.4897" width="130" height="130" rx="65" transform="rotate(40 84.4897 0)" fill="white"/>
</clipPath>
</defs>
</svg>
