<svg width="85" height="85" viewBox="0 0 85 85" fill="none" xmlns="http://www.w3.org/2000/svg">
<circle cx="42.5" cy="42.5" r="42.5" fill="#F94444"/>
<path d="M25.32 20H37.272V23.888C38.76 22.4 40.44 21.272 42.312 20.504C44.184 19.688 46.392 19.28 48.936 19.28C51.672 19.28 54.336 19.952 56.928 21.296C59.568 22.64 61.728 24.728 63.408 27.56C65.136 30.344 66 33.824 66 38C66 42.176 65.064 45.68 63.192 48.512C61.32 51.296 58.92 53.36 55.992 54.704C53.112 56.048 50.136 56.72 47.064 56.72C45.192 56.72 43.392 56.432 41.664 55.856C39.984 55.232 38.52 54.44 37.272 53.48V70.4H25.32V20ZM45.408 47.072C47.904 47.072 49.92 46.256 51.456 44.624C53.04 42.992 53.832 40.784 53.832 38C53.832 35.216 53.04 33.008 51.456 31.376C49.872 29.744 47.808 28.928 45.264 28.928C42.96 28.928 41.04 29.648 39.504 31.088C38.016 32.48 37.272 34.496 37.272 37.136V38.936C37.272 41.528 38.04 43.544 39.576 44.984C41.112 46.376 43.056 47.072 45.408 47.072Z" fill="white"/>
</svg>
