<?xml version="1.0" standalone="no"?>
<!DOCTYPE svg PUBLIC "-//W3C//DTD SVG 20010904//EN">
<svg version="1.0" xmlns="http://www.w3.org/2000/svg"
 width="512.000000pt" height="446.000000pt" viewBox="0 0 512.000000 446.000000"
 preserveAspectRatio="xMidYMid meet">

<g transform="translate(0.000000,446.000000) scale(0.100000,-0.100000)"
fill="#000000" stroke="none">
<path d="M2522 3520 c-1338 -516 -2445 -946 -2458 -955 -33 -22 -64 -73 -64
-108 0 -42 24 -92 56 -114 16 -11 292 -118 614 -238 322 -119 590 -222 596
-229 6 -6 111 -335 233 -731 123 -396 230 -735 239 -754 8 -18 29 -42 46 -52
35 -21 106 -25 139 -7 12 6 165 129 342 273 384 314 372 304 424 316 82 18 98
9 582 -342 848 -616 787 -574 840 -574 56 0 95 25 122 76 26 51 890 4224 883
4265 -12 61 -76 115 -138 114 -13 0 -1118 -423 -2456 -940z m2378 695 c0 -2
-180 -872 -401 -1932 -220 -1060 -406 -1954 -412 -1985 l-12 -58 -565 411
c-311 226 -581 419 -600 429 -19 9 -68 25 -108 34 -70 16 -77 16 -158 -4 -51
-12 -102 -31 -127 -49 -23 -16 -172 -135 -332 -265 -159 -130 -292 -232 -296
-228 -4 4 -18 44 -32 90 l-25 82 32 0 c81 0 154 40 206 111 32 45 44 103 85
414 14 105 33 207 42 229 13 29 253 257 988 941 533 496 979 915 991 931 34
47 47 119 33 178 -17 72 -33 100 -81 139 -58 46 -130 63 -200 47 -41 -10 -309
-170 -1208 -723 -635 -391 -1178 -728 -1206 -749 -51 -38 -97 -94 -129 -158
-10 -19 -19 -36 -20 -38 -3 -3 -1021 375 -1041 387 -9 5 4542 1769 4569 1771
4 0 7 -2 7 -5z m-892 -687 c7 -7 12 -19 12 -28 0 -9 -368 -358 -817 -776
-1093 -1015 -1137 -1057 -1166 -1106 -38 -66 -53 -132 -88 -393 -18 -137 -37
-250 -45 -262 -15 -24 -56 -31 -82 -14 -8 5 -73 213 -145 462 -138 482 -146
525 -113 601 9 21 31 51 49 68 40 38 2346 1460 2368 1460 8 0 20 -5 27 -12z"/>
</g>
</svg>
