<svg width="108" height="104" viewBox="0 0 108 104" fill="none" xmlns="http://www.w3.org/2000/svg">
<g filter="url(#filter0_d_25_469)">
<path d="M54.1045 59.4105C58.9736 59.4105 62.9208 55.4634 62.9208 50.5943C62.9208 45.7252 58.9736 41.7781 54.1045 41.7781C49.2355 41.7781 45.2883 45.7252 45.2883 50.5943C45.2883 55.4634 49.2355 59.4105 54.1045 59.4105Z" fill="#61DAFB"/>
<path d="M54.1045 68.6568C80.2312 68.6568 101.411 60.5699 101.411 50.5943C101.411 40.6186 80.2312 32.5317 54.1045 32.5317C27.9778 32.5317 6.79788 40.6186 6.79788 50.5943C6.79788 60.5699 27.9778 68.6568 54.1045 68.6568Z" stroke="#61DAFB" stroke-width="5"/>
<path d="M38.4618 59.6255C51.5252 82.2519 69.1186 96.5508 77.7578 91.563C86.3969 86.5751 82.8104 64.1894 69.7471 41.563C56.6837 18.9366 39.0903 4.63767 30.4511 9.6255C21.812 14.6133 25.3985 36.9991 38.4618 59.6255Z" stroke="#61DAFB" stroke-width="5"/>
<path d="M38.4619 41.5629C25.3985 64.1894 21.812 86.5751 30.4512 91.5629C39.0903 96.5508 56.6837 82.2519 69.7471 59.6255C82.8104 36.9991 86.397 14.6133 77.7578 9.62547C69.1186 4.63764 51.5252 18.9365 38.4619 41.5629Z" stroke="#61DAFB" stroke-width="5"/>
</g>
<defs>
<filter id="filter0_d_25_469" x="0.297882" y="6.1333" width="107.613" height="96.9219" filterUnits="userSpaceOnUse" color-interpolation-filters="sRGB">
<feFlood flood-opacity="0" result="BackgroundImageFix"/>
<feColorMatrix in="SourceAlpha" type="matrix" values="0 0 0 0 0 0 0 0 0 0 0 0 0 0 0 0 0 0 127 0" result="hardAlpha"/>
<feOffset dy="4"/>
<feGaussianBlur stdDeviation="2"/>
<feComposite in2="hardAlpha" operator="out"/>
<feColorMatrix type="matrix" values="0 0 0 0 0 0 0 0 0 0 0 0 0 0 0 0 0 0 0.25 0"/>
<feBlend mode="normal" in2="BackgroundImageFix" result="effect1_dropShadow_25_469"/>
<feBlend mode="normal" in="SourceGraphic" in2="effect1_dropShadow_25_469" result="shape"/>
</filter>
</defs>
</svg>
