<?xml version="1.0" standalone="no"?>
<!DOCTYPE svg PUBLIC "-//W3C//DTD SVG 20010904//EN">
<svg version="1.0" xmlns="http://www.w3.org/2000/svg"
 width="126.000000pt" height="126.000000pt" viewBox="0 0 126.000000 126.000000"
 preserveAspectRatio="xMidYMid meet">

<g transform="translate(0.000000,126.000000) scale(0.100000,-0.100000)"
fill="#000000" stroke="none">
<path d="M66 1241 c-15 -10 -37 -32 -47 -47 -18 -28 -19 -57 -19 -564 0 -507
1 -536 19 -564 10 -15 32 -37 47 -47 28 -18 57 -19 564 -19 507 0 536 1 564
19 15 10 37 32 47 47 18 28 19 57 19 564 0 507 -1 536 -19 564 -10 15 -32 37
-47 47 -28 18 -57 19 -564 19 -507 0 -536 -1 -564 -19z m1101 -74 l28 -27 0
-510 0 -510 -28 -27 c-27 -27 -30 -28 -162 -31 l-135 -4 0 211 0 211 60 0 c67
0 58 -12 85 118 8 40 15 78 15 83 0 5 -36 9 -80 9 l-80 0 0 28 c0 43 12 52 83
59 l67 6 0 88 0 88 -52 16 c-60 17 -174 20 -215 4 -77 -29 -122 -109 -123
-216 l0 -73 -45 0 -45 0 0 -105 0 -105 45 0 45 0 0 -211 0 -210 -255 3 -255 3
-27 28 -28 27 0 509 0 509 24 26 c13 14 33 27 45 29 11 3 243 4 513 3 l493 -1
27 -28z m-233 -257 c20 -7 26 -16 26 -40 0 -29 -1 -30 -49 -30 -34 0 -56 -6
-75 -21 -24 -19 -26 -26 -26 -104 l0 -84 68 -3 68 -3 -9 -42 -8 -43 -60 0 -59
0 0 -240 0 -240 -60 0 -60 0 0 240 0 240 -45 0 -45 0 0 45 0 45 44 0 43 0 6
90 c11 156 45 200 153 200 34 0 74 -4 88 -10z"/>
</g>
</svg>
