<?xml version="1.0" encoding="utf-8"?>
<!-- Generator: Adobe Illustrator 26.0.2, SVG Export Plug-In . SVG Version: 6.00 Build 0)  -->
<svg version="1.1" id="Слой_1" xmlns="http://www.w3.org/2000/svg" xmlns:xlink="http://www.w3.org/1999/xlink" x="0px" y="0px"
	 viewBox="0 0 65 65" style="enable-background:new 0 0 65 65;" xml:space="preserve">
<style type="text/css">
	.st0{clip-path:url(#SVGID_00000153669094864025077410000017619968389306533515_);}
	.st1{fill:#363636;}
	.st2{fill:url(#SVGID_00000065756381603959694450000018198189399870551191_);}
</style>
<g>
	<defs>
		<rect id="SVGID_1_" width="65" height="65"/>
	</defs>
	<clipPath id="SVGID_00000035527593188896259820000001092181880478622117_">
		<use xlink:href="#SVGID_1_"  style="overflow:visible;"/>
	</clipPath>
	<g style="clip-path:url(#SVGID_00000035527593188896259820000001092181880478622117_);">
		<circle class="st1" cx="30" cy="30" r="30"/>
		
			<linearGradient id="SVGID_00000160899758640897176700000009495640898683334320_" gradientUnits="userSpaceOnUse" x1="30.4144" y1="32.8993" x2="30.4144" y2="40.5805" gradientTransform="matrix(1 0 0 -1 0 66)">
			<stop  offset="0" style="stop-color:#04B6F0"/>
			<stop  offset="1" style="stop-color:#3ECAF0"/>
		</linearGradient>
		<path style="fill:url(#SVGID_00000160899758640897176700000009495640898683334320_);" d="M10.4,30.5c0,0.7-0.2,1.4-0.7,1.9
			c-0.5,0.5-1.1,0.8-1.8,0.8c-0.7,0-1.3-0.3-1.8-0.8c-0.4-0.5-0.7-1.1-0.7-1.9c0-0.7,0.2-1.4,0.7-1.9c0.5-0.5,1.1-0.8,1.8-0.8
			c0.7,0,1.3,0.3,1.8,0.8C10.1,29.1,10.4,29.7,10.4,30.5z M8.9,30.5c0-0.3-0.1-0.6-0.2-0.9c-0.2-0.3-0.4-0.4-0.8-0.4
			c-0.3,0-0.6,0.1-0.8,0.4c-0.2,0.2-0.2,0.5-0.2,0.9c0,0.3,0.1,0.6,0.2,0.9c0.2,0.3,0.4,0.4,0.8,0.4c0.3,0,0.6-0.1,0.8-0.4
			C8.8,31.1,8.9,30.8,8.9,30.5z M15.7,30.5c0,0.7-0.2,1.3-0.6,1.8c-0.4,0.6-1,0.9-1.7,0.9c-0.5,0-0.9-0.1-1.2-0.4c0,0.1,0,0.2,0,0.5
			c0,0.2,0,0.4,0,0.6c0,0.9-0.3,1.3-0.8,1.3c-0.2,0-0.4-0.1-0.5-0.2c-0.1-0.2-0.2-0.3-0.2-0.5v-5.7c0-0.2,0.1-0.4,0.2-0.5
			c0.1-0.1,0.3-0.2,0.5-0.2c0.3,0,0.5,0.2,0.7,0.5c0.3-0.4,0.7-0.6,1.3-0.6c0.7,0,1.2,0.3,1.7,0.8C15.5,29.2,15.7,29.8,15.7,30.5z
			 M14.2,30.5c0-0.3-0.1-0.6-0.2-0.9c-0.2-0.3-0.4-0.4-0.8-0.4c-0.3,0-0.6,0.1-0.8,0.4c-0.2,0.2-0.2,0.5-0.2,0.9
			c0,0.3,0.1,0.6,0.2,0.9c0.2,0.3,0.4,0.4,0.8,0.4c0.3,0,0.6-0.1,0.8-0.4C14.1,31.1,14.2,30.8,14.2,30.5z M21.1,30.3
			c0,0.2-0.1,0.4-0.2,0.5c-0.1,0.1-0.3,0.1-0.5,0.1h-2.7c0,0.3,0.1,0.5,0.4,0.6c0.2,0.1,0.5,0.2,0.8,0.2c0.2,0,0.5-0.1,0.9-0.2
			c0.3-0.2,0.6-0.2,0.6-0.2c0.2,0,0.3,0.1,0.4,0.2c0.1,0.1,0.2,0.3,0.2,0.5c0,0.4-0.3,0.7-0.9,0.9c-0.5,0.2-0.9,0.3-1.4,0.3
			c-0.8,0-1.4-0.3-1.9-0.8c-0.5-0.5-0.7-1.1-0.7-1.9c0-0.7,0.2-1.4,0.7-1.9c0.5-0.5,1.1-0.8,1.8-0.8c0.7,0,1.2,0.2,1.7,0.7
			C20.8,29,21.1,29.6,21.1,30.3z M19.6,30c0-0.2-0.1-0.4-0.3-0.6c-0.2-0.2-0.4-0.3-0.6-0.3c-0.2,0-0.4,0.1-0.7,0.3
			c-0.2,0.2-0.3,0.4-0.3,0.6H19.6z M26,32.3c0,0.2-0.1,0.4-0.2,0.5c-0.1,0.1-0.3,0.2-0.5,0.2c-0.5,0-0.8-0.4-0.8-1.2
			c0-0.2,0-0.4,0-0.7c0-0.3,0-0.6,0-0.7c0-0.9-0.3-1.3-0.8-1.3c-0.6,0-0.8,0.4-0.8,1.3c0,0.2,0,0.4,0,0.7c0,0.3,0,0.6,0,0.7
			c0,0.8-0.3,1.2-0.8,1.2c-0.2,0-0.4-0.1-0.5-0.2c-0.1-0.2-0.2-0.3-0.2-0.5v-3.6c0-0.2,0.1-0.4,0.2-0.5c0.1-0.1,0.3-0.2,0.5-0.2
			c0.4,0,0.6,0.2,0.7,0.5c0.2-0.4,0.7-0.6,1.3-0.6c0.6,0,1,0.1,1.3,0.4c0.3,0.3,0.5,0.7,0.5,1.3V32.3z M30.6,32.1
			c0,0.3-0.2,0.6-0.6,0.8c-0.3,0.2-0.7,0.2-1.1,0.2c-0.7,0-1.3-0.3-1.8-0.8c-0.4-0.5-0.7-1.1-0.7-1.9c0-0.7,0.2-1.4,0.7-1.9
			c0.5-0.5,1.1-0.8,1.8-0.8c0.4,0,0.8,0.1,1.1,0.2c0.4,0.2,0.6,0.4,0.6,0.8c0,0.2-0.1,0.3-0.2,0.5c-0.1,0.1-0.3,0.2-0.4,0.2
			c-0.1,0-0.3,0-0.5-0.1c-0.2-0.1-0.4-0.1-0.5-0.1c-0.4,0-0.6,0.1-0.8,0.4c-0.2,0.2-0.3,0.5-0.3,0.9c0,0.3,0.1,0.6,0.2,0.9
			c0.2,0.3,0.4,0.4,0.8,0.4c0.1,0,0.3,0,0.6-0.1c0.3-0.1,0.4-0.1,0.5-0.1c0.2,0,0.3,0.1,0.4,0.2C30.6,31.8,30.6,32,30.6,32.1z
			 M36,32.3c0,0.2-0.1,0.4-0.2,0.5c-0.1,0.1-0.3,0.2-0.5,0.2c-0.3,0-0.5-0.2-0.7-0.5c-0.3,0.4-0.7,0.6-1.3,0.6
			c-0.7,0-1.2-0.3-1.7-0.9c-0.4-0.5-0.6-1.1-0.6-1.8c0-0.7,0.2-1.3,0.6-1.8c0.4-0.6,1-0.8,1.7-0.8c0.5,0,1,0.2,1.3,0.6
			c0.1-0.3,0.4-0.5,0.7-0.5c0.2,0,0.4,0.1,0.5,0.2c0.1,0.2,0.2,0.3,0.2,0.5V32.3z M34.5,30.5c0-0.3-0.1-0.6-0.2-0.9
			c-0.2-0.3-0.4-0.4-0.8-0.4c-0.3,0-0.6,0.1-0.8,0.4c-0.2,0.2-0.2,0.5-0.2,0.9c0,0.3,0.1,0.6,0.2,0.9c0.2,0.3,0.4,0.4,0.8,0.4
			c0.3,0,0.6-0.1,0.8-0.4C34.4,31.1,34.5,30.8,34.5,30.5z M39.7,28.6c0,0.3-0.2,0.5-0.5,0.6c-0.3,0.1-0.6,0.2-0.8,0.3
			c-0.3,0.2-0.5,0.5-0.5,1v1.8c0,0.2-0.1,0.4-0.2,0.5c-0.1,0.1-0.3,0.2-0.5,0.2c-0.2,0-0.4-0.1-0.5-0.2c-0.1-0.2-0.2-0.3-0.2-0.5
			v-3.6c0-0.2,0.1-0.4,0.2-0.5c0.1-0.1,0.3-0.2,0.5-0.2c0.4,0,0.6,0.2,0.7,0.5c0.3-0.4,0.7-0.6,1-0.6c0.2,0,0.4,0.1,0.5,0.2
			C39.7,28.2,39.7,28.4,39.7,28.6z M43.6,28.6c0,0.3-0.1,0.5-0.4,0.6c-0.1,0-0.4,0.1-0.8,0.1v3c0,0.2-0.1,0.4-0.2,0.5
			c-0.1,0.1-0.3,0.2-0.5,0.2c-0.2,0-0.4-0.1-0.5-0.2c-0.1-0.2-0.2-0.3-0.2-0.5v-3c-0.3,0-0.5,0-0.7-0.1c-0.2-0.1-0.3-0.3-0.3-0.6
			c0-0.3,0.1-0.5,0.3-0.6c0.1-0.1,0.4-0.1,0.7-0.1v-0.6c0-0.7,0.2-1.1,0.7-1.1c0.5,0,0.7,0.4,0.7,1.1V28c0.4,0,0.7,0,0.8,0.1
			C43.5,28.1,43.6,28.3,43.6,28.6z M55.4,27.7c0-0.5-0.8-0.7-3-0.7c-5.1,0-6.4-0.2-7.7-1.7c0.6,0.9,0.9,2.5,6.3,2.4
			c5.6-0.1,2.2,1.4,1.2,3.2C53.9,29.4,55.4,28.4,55.4,27.7L55.4,27.7z M48.3,32.4c0,0.4-0.3,0.8-0.8,0.8c-0.4,0-0.8-0.3-0.8-0.8
			c0,0,0,0,0,0c0-0.4,0.3-0.8,0.8-0.8c0,0,0,0,0,0C47.9,31.6,48.3,32,48.3,32.4z M51.8,32.4c0,0.4-0.3,0.8-0.8,0.8
			c-0.4,0-0.8-0.3-0.8-0.8c0,0,0,0,0,0c0-0.4,0.3-0.8,0.8-0.8c0,0,0,0,0,0C51.4,31.6,51.8,32,51.8,32.4z"/>
	</g>
</g>
</svg>
