<?xml version="1.0" encoding="UTF-8"?> <svg xmlns="http://www.w3.org/2000/svg" width="86" height="38" viewBox="0 0 86 38" fill="none"><path d="M39.7087 30.9017L38.697 30.3469C38.6643 30.336 38.6317 30.3251 38.5991 30.336C38.5664 30.3469 38.5447 30.3686 38.5229 30.4013C38.0986 31.3042 37.4568 32.0331 36.6191 32.5662C35.7814 33.0993 34.8566 33.3713 33.8666 33.3713C32.931 33.3713 32.0607 33.1428 31.2665 32.675C30.4723 32.2181 29.8413 31.5871 29.3735 30.7929C28.9166 30.0096 28.6773 29.1284 28.6773 28.1819C28.6773 27.2463 28.9166 26.376 29.3735 25.5927C29.8413 24.8094 30.4723 24.1675 31.2665 23.6997C32.0498 23.2319 32.9201 23.0034 33.8558 23.0034C34.8458 23.0034 35.7705 23.2754 36.6082 23.8085C37.4459 24.3416 38.0877 25.0814 38.512 25.9843C38.5229 26.017 38.5556 26.0387 38.5882 26.0496C38.6208 26.0605 38.6535 26.0605 38.6861 26.0387L39.6979 25.473C39.7523 25.4404 39.774 25.3751 39.7523 25.3098C39.2083 24.1893 38.3924 23.2863 37.3371 22.6336C36.2818 21.9699 35.1069 21.6436 33.8666 21.6436C32.6917 21.6436 31.6038 21.9373 30.6029 22.5248C29.6129 23.1122 28.8078 23.9173 28.2095 24.9182C27.622 25.9191 27.3174 27.0287 27.3174 28.2037C27.3174 29.3678 27.6111 30.4774 28.1986 31.4783C28.7861 32.4792 29.5911 33.2843 30.592 33.8717C31.5929 34.4592 32.6917 34.7529 33.8666 34.7529C35.1069 34.7529 36.2818 34.4157 37.3371 33.7521C38.3924 33.0884 39.2083 32.1855 39.7523 31.0649C39.7849 30.9996 39.7631 30.9235 39.7087 30.9017Z" fill="#A01E22"></path><path d="M48.7166 25.2119H47.5743C47.509 25.2119 47.4546 25.2663 47.4546 25.3316V30.5971C47.4546 31.054 47.335 31.5109 47.1065 31.9352C46.878 32.3704 46.5734 32.7294 46.1927 33.0014C45.8228 33.2625 45.4202 33.4039 44.996 33.4039C44.5608 33.4039 44.1583 33.2951 43.7884 33.0667C43.4185 32.8491 43.1139 32.5445 42.8963 32.1637C42.6787 31.7829 42.559 31.3804 42.559 30.9452V25.3316C42.559 25.2663 42.5046 25.2119 42.4394 25.2119H41.297C41.2318 25.2119 41.1774 25.2663 41.1774 25.3316V30.9452C41.1774 32.1093 41.5255 33.0558 42.2 33.7303C42.8745 34.4157 43.821 34.7638 44.996 34.7638C45.5399 34.7638 46.0404 34.6006 46.4973 34.2634C46.8454 34.0132 47.1718 33.6868 47.4438 33.2951V34.5354C47.4438 34.6006 47.4982 34.655 47.5634 34.655H48.7057C48.771 34.655 48.8254 34.6006 48.8254 34.5354V25.3316C48.8363 25.2663 48.7819 25.2119 48.7166 25.2119Z" fill="#A01E22"></path><path d="M58.2142 25.8212C57.4853 25.397 56.6693 25.1794 55.8099 25.1794C54.6893 25.1794 53.6776 25.6472 52.7855 26.561V20.98C52.7855 20.9147 52.7311 20.8604 52.6658 20.8604H51.5235C51.4582 20.8604 51.4038 20.9147 51.4038 20.98V34.5355C51.4038 34.6007 51.4582 34.6551 51.5235 34.6551H52.6549C52.7202 34.6551 52.7746 34.6007 52.7746 34.5355V33.4149C53.1662 33.8065 53.6014 34.122 54.0583 34.3614C54.6023 34.6551 55.1898 34.7966 55.799 34.7966C56.6802 34.7966 57.4853 34.579 58.2142 34.1547C58.9431 33.7304 59.5197 33.1429 59.9548 32.4031C60.3791 31.6634 60.5967 30.8474 60.5967 29.988C60.5967 29.1176 60.3791 28.3017 59.9548 27.5619C59.5305 26.833 58.9431 26.2455 58.2142 25.8212ZM58.7799 31.7178C58.4753 32.24 58.0619 32.6534 57.5397 32.958C57.0175 33.2626 56.43 33.4149 55.8099 33.4149C55.1571 33.4149 54.5588 33.2408 54.0039 32.9036C53.46 32.5663 53.0574 32.1094 52.7855 31.5437V28.3235C53.0901 27.7795 53.5144 27.3443 54.0474 27.0397C54.5914 26.7242 55.1789 26.561 55.8099 26.561C56.4409 26.561 57.0175 26.7133 57.5397 27.018C58.0619 27.3226 58.4753 27.736 58.7799 28.2582C59.0845 28.7804 59.2368 29.3679 59.2368 29.988C59.2368 30.619 59.0845 31.1956 58.7799 31.7178Z" fill="#A01E22"></path><path d="M69.5501 25.7995C69.5501 25.7886 69.5501 25.7886 69.5501 25.7995C68.8103 25.3535 67.9944 25.125 67.124 25.125C66.2646 25.125 65.4486 25.3426 64.7197 25.7669C63.9908 26.1912 63.3925 26.7786 62.9682 27.5075C62.533 28.2364 62.3154 29.0524 62.3154 29.9118C62.3154 30.793 62.533 31.609 62.9682 32.3379C63.4033 33.0668 63.9908 33.6651 64.7197 34.0894C65.4486 34.5246 66.2646 34.7422 67.124 34.7422C68.0379 34.7422 68.8973 34.492 69.6589 34.0024C70.4313 33.5128 71.0188 32.8601 71.4213 32.0441C71.4322 32.0115 71.4322 31.9789 71.4322 31.9462C71.4213 31.9136 71.3995 31.8918 71.3669 31.881L70.3551 31.4023C70.3007 31.3696 70.2246 31.4023 70.1919 31.4567C69.9091 32.0441 69.4848 32.5228 68.93 32.8601C68.3751 33.1973 67.7659 33.3714 67.1131 33.3714C66.5148 33.3714 65.9491 33.23 65.4377 32.9471C64.9264 32.6643 64.5021 32.2726 64.1866 31.783C63.8929 31.3261 63.7188 30.8257 63.6644 30.2708H71.7259C71.7912 30.2708 71.8456 30.2164 71.8456 30.1512C71.8673 29.2264 71.6715 28.367 71.269 27.6054C70.8556 26.8548 70.279 26.2347 69.5501 25.7995ZM63.795 28.9327C64.0017 28.2473 64.3934 27.6598 64.9699 27.2029C65.5901 26.7134 66.3081 26.4631 67.1131 26.4631C67.9073 26.4631 68.6036 26.7134 69.2128 27.2029C69.7785 27.6598 70.1593 28.2364 70.366 28.9327H63.795Z" fill="#A01E22"></path><path d="M85.2815 34.4375L80.1683 28.0514L85.2271 21.7198C85.2597 21.6871 85.2597 21.6327 85.238 21.5892C85.2162 21.5457 85.1727 21.5239 85.1292 21.5239H83.6714C83.6387 21.5239 83.5952 21.5457 83.5735 21.5674L79.2653 26.9526L74.9572 21.5674C74.9354 21.5348 74.9028 21.5239 74.8593 21.5239H73.4232C73.3797 21.5239 73.3362 21.5457 73.3144 21.5892C73.2927 21.6327 73.3036 21.6762 73.3253 21.7198L78.3841 28.0514L73.2709 34.4375C73.2383 34.4701 73.2383 34.5245 73.26 34.568C73.2818 34.6116 73.3253 34.6333 73.3688 34.6333H74.8484C74.881 34.6333 74.9245 34.6116 74.9463 34.5898L79.3088 29.1502L83.6496 34.5898C83.6714 34.6224 83.704 34.6333 83.7475 34.6333H85.1836C85.2271 34.6333 85.2706 34.6116 85.2924 34.568C85.3141 34.5245 85.3141 34.481 85.2815 34.4375Z" fill="#A01E22"></path><path opacity="0.89" d="M51.2951 13.5388C51.2951 13.5388 50.0657 11.45 48.6297 10.1662C47.3242 9.00217 46.1057 7.69667 44.0496 7.08744C41.221 6.24974 37.1413 5.40117 31.0272 6.26062C30.3418 6.35853 29.3736 6.46733 28.6338 6.73931C28.6338 6.73931 34.8893 2.07215 43.0704 0.385878C50.1092 -1.06105 56.2342 1.83281 56.9958 4.56347C56.9958 4.56347 56.6585 4.46556 56.071 4.4982C53.917 4.60699 51.9369 7.0004 51.3277 9.73107C50.9361 11.4282 51.2951 13.5388 51.2951 13.5388Z" fill="#883334"></path><path d="M39.8176 13.0929C28.4489 11.2108 20.79 19.8924 20.79 28.2802C20.79 31.5983 21.9758 34.6663 24.0864 37.1685C19.9088 34.6336 17.0802 29.825 17.0802 24.3202C17.0802 16.1717 23.2487 9.55715 30.8641 9.55715C37.1849 9.54627 39.8176 13.0929 39.8176 13.0929Z" fill="#A01E22"></path><path d="M51.2951 13.5498C51.2951 13.5498 49.9896 11.4719 48.6297 10.1773C47.3895 9.0023 46.0622 7.78384 44.0496 7.09845C41.2754 6.15196 36.989 5.65152 30.8314 6.28251C30.1242 6.35867 29.3953 6.54361 28.6338 6.75032C28.6338 6.75032 34.737 2.20283 42.9943 1.04964C50.0984 0.0596365 56.0601 3.11668 56.6585 5.76031C56.6585 5.76031 56.3321 5.65152 55.7446 5.64064C53.5797 5.62977 51.6758 7.60977 51.2624 10.3187C51.0013 11.9614 51.2951 13.5498 51.2951 13.5498Z" fill="#A01E22"></path><path d="M8.58376 2.16992C8.58376 2.16992 5.33089 4.2152 5.59199 7.80532C5.80958 10.895 8.49673 12.8968 12.3588 12.8968C13.7187 12.8533 15.2092 12.603 16.7105 12.1135C19.5173 11.3737 25.9034 6.83708 30.8425 6.29312C36.9675 5.61861 42.2765 6.18433 44.9528 7.45719C44.5176 9.62214 45.3444 12.7009 47.3136 15.4425C48.7279 17.4116 50.4685 18.8585 52.1439 19.6201C50.697 19.5331 49.1086 19.1632 47.5203 18.4778C45.2356 17.4878 43.4297 16.4978 42.3309 14.9747L41.9284 14.3763C39.6764 10.982 35.8469 8.8606 31.0383 8.8606C24.4673 8.8606 18.1357 13.1796 17.2762 18.7062C17.2762 18.7062 15.3071 19.7724 11.9998 19.5766C6.73431 19.2611 1.91484 15.7689 1.9366 11.3737C1.9366 7.18521 5.0154 3.05113 8.58376 2.16992Z" fill="#353535"></path><path d="M17.5481 18.7175C15.6442 20.0339 13.8383 20.828 11.2273 20.828C5.02617 20.8389 0 16.422 0 10.9715C0 6.27172 3.73155 2.28994 8.73596 1.28906C8.73596 1.28906 4.87386 3.60632 4.26463 7.09853C3.70979 10.2644 6.11409 12.3205 9.56278 13.0821C11.5101 13.5064 15.0785 12.6795 17.1564 11.9506C19.8871 10.9824 26.2405 7.60985 31.0382 8.87183C24.4563 8.86096 18.8209 13.8327 17.5481 18.7175Z" fill="#4C4D4E"></path></svg> 