<?xml version="1.0" encoding="utf-8"?>
<!-- Generator: Adobe Illustrator 26.0.2, SVG Export Plug-In . SVG Version: 6.00 Build 0)  -->
<svg version="1.1" id="Слой_1" xmlns="http://www.w3.org/2000/svg" xmlns:xlink="http://www.w3.org/1999/xlink" x="0px" y="0px"
	 viewBox="0 0 1920 1080" style="enable-background:new 0 0 1920 1080;" xml:space="preserve">
<style type="text/css">
	.st0{fill:#121330;}
	.st1{fill:#F94444;}
	.st2{fill:#131935;}
	.st3{fill:#1C1E38;}
	.st4{fill:#FF1549;}
	.st5{fill:#373850;}
	.st6{fill:#1E2F45;}
	.st7{fill:#FF4A4F;}
	.st8{fill:#8A0003;}
	.st9{fill:#121431;}
	.st10{fill:#131431;}
	.st11{fill:#121531;}
	.st12{fill:#121532;}
	.st13{fill:#131633;}
	.st14{fill:#141D38;}
	.st15{fill:#141F39;}
	.st16{fill:#1D243D;}
	.st17{fill:#DF001F;}
	.st18{fill:#B7B7C0;}
	.st19{fill:#06697C;}
	.st20{fill:#2B8E8E;}
	.st21{fill:#09556A;}
	.st22{fill:#141431;}
	.st23{fill:#161733;}
	.st24{fill:#FF7480;}
</style>
<rect y="-0.9" class="st0" width="1920" height="297"/>
<g>
	<g>
		<path class="st0" d="M1275.4,977.8c-404.3,0-808.6,0-1213.4,0c0-261.3,0-522.6,0-783.9c67.4,0,134.8,0,202.2,0
			c99.3,0,198.7,0.1,298,0.1c-1.2,2.6-2.4,5.3-3.2,7.1c4.8,0,9.6,0,14.3,0c-1-2-2.2-4.5-3.4-7c3.2-0.1,6.4-0.2,9.6-0.2
			c111.4,0,222.8,0,334.2,0c45.4,0,90.7,0.1,136.1,0.1c75.3,0,150.6,0.1,226,0.1c-1.5,1.4-3.1,2.6-4.3,4.2c-4.9,6-5.8,12.6-1.7,19.2
			c3.8,6.3,9.9,8.8,17.1,7.3c7.7-1.6,13-7.1,12.4-14.5c-0.5-5.6-5.2-10.7-8.1-16.1c3.5-0.1,7-0.2,10.4-0.2c227,0,454,0,681,0
			c0,261.3,0,522.6,0,783.9c-221.7,0-443.5,0-665.2,0c-2.1-7.8-4.1-15.6-6.4-23.2c-1.7-5.5-0.6-9.2,4.3-12.6
			c11.7-8.1,22.8-16.9,34.6-24.8c3.8-2.5,9-4.2,13.5-4.2c31.3-0.4,62.7-0.2,94-0.2c2.8,0,5.6-0.8,8.3-1.2c13.8,0,27.6,0,41.4,0
			c2.4,0.6,4.8,1.7,7.2,1.7c58.4,0.1,116.9,0.1,175.3,0c1.7,0,3.5-0.6,5.2-0.9c0-0.7-0.1-1.5-0.1-2.2c-34.8,0-69.6,0-103.8,0
			c0-13.4,1-25.6-0.2-37.6c-1.9-17.7,2.6-31.7,16.4-43.8c9.4-8.2,16.7-18.8,25.1-28.6c-12.4-9.6-25.3-14.7-39.2-16.8
			c-5.9-0.9-7.5-3.6-8.2-8.8c-12-87.1-42-167.8-88.9-242.2c-2.5-4-3.1-6.9-0.7-11.6c6.1-11.8-3.1-25-16-22.9
			c-5.7,0.9-7.5-1.6-10.5-5c-22.2-25.3-44.5-50.5-66.9-75.5c-1.6-1.8-4.7-2.3-7.1-3.5c-10.6-9.3-21.1-18.6-31.7-28
			c-1.7-2.4-2.8-5.6-5.1-7.2c-19.6-14.1-39.4-28.1-59.3-41.8c-4.2-2.9-9.1-4.7-13.7-7c-4.2-1.8-8.4-3.7-12.6-5.5
			c-0.8-1.4-1.2-3.4-2.4-4c-12.3-6.1-24.6-12-37-18c-5.4-2-10.9-3.9-16.3-5.9c-2.2-1.7-4.1-4-6.5-5
			c-68.3-28.3-139.5-44.1-213.4-46.6C879.6,241,769.7,266.8,668,324.9C545.9,394.6,457.3,494.6,402.2,624c-1.8-1.5-3.6-2.9-5.3-4.4
			c-16.1-14.4-40.9-13.3-55.7,2.5c-14.6,15.6-13.9,39.5,1.3,55c10.4,10.6,23,12.7,36.9,11.3c-21.3,71.7-28,145-23.2,221.3
			c-13.4,0-25.2,0-37.1,0c0,0.9,0.1,1.8,0.1,2.7c2.5,0.2,4.9,0.7,7.4,0.7c23.5,0.1,47,0.1,70.5,0c2.5,0,5-0.8,7.5-1.2
			c13.1,0,26.2,0,39.3,0c16.1,0,32.2,0.1,48.4,0.1c9.7-0.1,19.4-0.1,29.1-0.2c3.7,0.4,7.4,1.2,11.1,1.2
			c244.5,0.1,488.9,0.1,733.4,0.1c3.5,0,6.9,0,10.4,0c-10.3,10.9-11.2,22-7.8,34.5C1271.3,957.4,1273.2,967.7,1275.4,977.8z
			 M232.1,331.5c-39.5-0.7-71.9,31.1-71.8,70.9c0.1,41.7,31.2,71.3,71.4,71.4c42.5,0.1,71-33.7,71.3-70.6
			C303.1,363.4,271.6,331.6,232.1,331.5z M1888.3,677.1c2-38-29.1-70.8-69.7-71.4c-42-0.7-72.3,35.2-72.2,70.6
			c0.2,39.5,32.5,71.5,70.9,71.9C1855.4,748.6,1891.1,714.9,1888.3,677.1z M1566.7,401.3c21.4,0,38.6-16.9,38.5-37.9
			c-0.1-20.9-17.6-38.5-38.3-38.5c-20.9,0-38.2,17.4-38.2,38.4C1528.6,384.9,1545,401.3,1566.7,401.3z M534.7,342.1
			c20.8-0.1,38.7-17.8,38.3-38c-0.5-20.7-18.3-38.3-38.8-38.2c-20.8,0.1-37.6,17.3-37.6,38.6C496.6,326.1,512.9,342.1,534.7,342.1z
			 M1650.2,562.1c0.2-8.6-7-16.1-15.8-16.4c-9.1-0.3-16.7,7.1-16.7,16.3c0,8.9,7,15.7,16.2,15.8C1643,577.9,1650.1,571,1650.2,562.1
			z M215.9,686.9c-8.9,0-15.9,6.9-16.1,15.8c-0.1,9,6.5,16,15.5,16.3c9.4,0.3,16.7-6.9,16.5-16.2C231.7,693.9,224.8,687,215.9,686.9
			z M403,204.3c-9.2-0.1-16.2,6.7-16.3,15.6c-0.1,9,6.9,16.1,15.9,16.2c9,0.1,16.1-6.8,16.2-15.8C418.8,211,412.4,204.4,403,204.3z
			 M1567.4,204.3c-9.4-0.3-16.4,6.1-16.6,15.2c-0.3,9,6.5,16.3,15.5,16.7c9,0.4,16.3-6.5,16.6-15.4
			C1583.1,211.5,1576.6,204.6,1567.4,204.3z M244.8,856c3.6,0,8.4,0,13.4,0c-1.3-1.9-2.8-3.9-4.1-5.6c1.6-2.6,2.9-4.8,4.2-6.9
			c-0.5-0.4-1-0.8-1.4-1.1c-2.1,1.3-4.2,2.5-6.4,3.8c-2.3-1.2-4.5-2.3-5.7-2.9C244.8,847.7,244.8,852.1,244.8,856z M1440.8,275.6
			c-5.2,0.3-9.8,0.5-13.7,0.7c0,3.7,0,8.4,0,11.6c4.2,0,8.8,0,13.5,0c-1.1-1.6-2.5-3.7-4-5.7C1438.1,280,1439.5,277.8,1440.8,275.6z
			 M1667,473.1c1.3-2.2,2.6-4.3,3.4-5.7c-4.9,0-9.6,0-12.7,0c0,3.9,0,8.6,0,11.5c3.8,0,8.2,0,12.9,0
			C1669.8,477.7,1668.5,475.6,1667,473.1z M386.8,458.5c-3.7,8.2-8.5,2.1-11.9,1.4c0,5.1,0,9.6,0,12.9c3.9,0,8.2,0,11.9,0
			C386.8,469.4,386.8,465,386.8,458.5z M1699.6,814.1c0,3.4,0,7.6,0,10.4c3.9,0.2,7.9,0.4,10.6,0.5c0-3.9,0-7.9,0-10.9
			C1706.8,814.1,1702.7,814.1,1699.6,814.1z"/>
		<path class="st1" d="M1465.7,911.6c-2.8,0.4-5.6,1.2-8.3,1.2c-31.3,0.1-62.7-0.1-94,0.2c-4.6,0.1-9.7,1.7-13.5,4.2
			c-11.8,7.9-23,16.7-34.6,24.8c-4.9,3.4-6,7.1-4.3,12.6c2.4,7.7,4.3,15.5,6.4,23.2c-1.2,0-2.3,0-3.5,0c-2.4-8-4.6-16.1-7.1-24.1
			c-1.8-5.7-0.5-10.2,4.5-13.6c3.6-2.5,7.1-5.1,10.6-7.6c8.2-6,16.5-12,24.7-18c-18.3-1.8-35.6-1.8-53-1.7
			c-15,0-25.4,13.1-22.3,27.8c2.6,12.4,5.2,24.8,7.8,37.2c-1.2,0-2.3,0-3.5,0c-2.3-10.2-4.1-20.4-6.9-30.5
			c-3.4-12.5-2.5-23.6,7.8-34.5c-3.5,0-6.9,0-10.4,0c-244.5,0-488.9,0-733.4-0.1c-3.7,0-7.4-0.8-11.1-1.2c3.2-0.8,6.4-2.1,9.6-2.2
			c19-0.2,38-0.1,57.5-0.1c-3.9-10.2-10-13.3-20.2-13c-33.9,0.7-67.9,0.3-101.9,0.3c-3.1,0-6.2,0-9.4,0c0,4.8,0,8.4,0,12.8
			c7.9,0,15.1-0.3,22.3,0.1c4.4,0.2,8.7,1.5,13,2.4c-16.1,0-32.2-0.1-48.4-0.1c0.4-0.7,0.7-1.9,1.4-2.1c3.3-1.3,7.2-1.1,7.2-6.7
			c0-5.6-3.6-6.4-7.4-8c-8.1-3.6-12.8-10-13.5-18.8c-0.4-5.8-0.3-11.6-0.3-17.4c0-21.6,5.1-27.8,26.1-31.6c0-3.2,0-6.5,0-9.6
			c-21-3.9-26.1-10.2-26.1-31.4c0-2.3,0-4.6,0-7c0-22.6,4.4-28.1,26.4-32.3c0-3,0-6.1,0-9.4c-1.6-0.4-3-0.9-4.4-1.2
			c-15.6-2.8-21.9-10.3-22-26.2c-0.1-4.9,0-9.9,0-14.8c0.1-19.6,8.5-28,28.2-28c36.7,0,73.3,0,110,0c3.4,0,6.7-0.3,10.8-0.5
			c0-6.3,0-11.8,0-17.3c0-21.5,7.7-29.2,29.6-29.2c48.3,0,96.6,0,144.9,0c3.3,0,6.6,0,11.4,0c-24.4-54.3-28.8-108.5-11.1-163.6
			c17.8-55.5,52.6-97.7,103.5-126.2c87.8-49.1,200.5-32,268.4,40.8c46.8,50.2,67.3,109.8,59.6,178.1
			c-7.7,68.1-42.1,120.6-97.4,160.7c12.9,0.8,25.1,0.8,37.3,0.8c21.1,0.1,29.1,8.1,29.1,28.9c0,46.5,0.2,92.9-0.2,139.4
			c-0.1,9.7-2.6,19.4-4,29.3c5.2,0,12.5,0,19.8,0c3.6-10.3,14.5-20.9,24.4-24c7.2-2.2,14.4-4.5,21.7-6.5c2.4-0.7,5.9-1.8,7.5-0.7
			c11.8,8.1,31.5,9.1,27.8,31.1c16.8,0.9,33.1,4.4,43.7-12.5c0.7-1.2,2.1-2,3.1-3c16.7-15.3,16.5-15.3,5.1-35
			c-3.3-5.7-5.9-6.9-11-1.8c-9.4,9.5-19.6,18.2-29.1,27.6c-4.3,4.2-8.1,4.6-13.1,1.5c-7.2-4.4-14.7-8.2-22.1-12.2
			c-11.4-6.2-11.6-9.5-1.3-16.9c23.9-17,47.7-33.9,71.9-51.1c-1-1.5-1.9-2.9-3-4.2c-13.4-15.7-27-31.2-39.9-47.3
			c-2.9-3.6-4.8-9.4-4.5-14.1c0.4-6.4-2-9.4-7.5-10.5c-6.8-1.4-13.9-1.7-20.6-3.4c-2.5-0.6-4.4-3.6-6.6-5.4c2.6-1.7,5-4.4,7.8-4.9
			c5.1-0.9,11,1.1,15.5-0.7c10.6-4.3,20-6,27.9,4.3c1.7,2.2,3,4.7,4.4,7.1c1.3,2.1,1.9,4.8,3.7,6.3c4.8,4.2,9.9,8.1,15,11.9
			c16.1,12,17.1,12.2,32-2c12-11.4,22.9-24,34.9-35.3c5.3-5,12-9.1,18.8-12c5.7-2.4,7.2-4.9,4.9-10.4c-1.5,0.4-2.8,0.8-4.2,1.1
			c-20.6,4.6-34.8-6.9-35.2-28.1c-0.1-4.9-0.4-9.9-1.6-14.6c-1.7-7.1,0.6-12.5,5.9-17c21.9-18.6,60.4-6.1,67.6,21.8
			c2.4,9.2,5,18.5,8.6,27.3c5.1,12.7,11.1,15.8,24.4,14c3.7-0.5,7.5-1.4,11.2-1.6c19.7-1.1,34.4,15,31.5,34.4
			c-3.1,21.2-18.3,33.9-42.2,35c-5.9,0.3-11.9,0-18,0c2.7,14.7,6.1,28.5,7.7,42.6c3.3,28.2,2.1,56.1-8.9,83
			c-2.7,6.6-6.4,9.8-13.7,8.9c-2.7-0.3-6.6-0.2-8,1.4c-4.9,5.6-8.9,12-11.9,16.3c17.8,0,39.8,0,61.7-0.1c1.4,0,3.8-1.2,4.1-2.2
			c3.1-12.1,11.7-18,25.6-20.9c-31-33.5-31.2-72.3-24.8-112.8c22.3,3.4,37.7,15.6,49.7,33.9c19.8-17.6,42.8-24.9,69.5-24.7
			c-12.4-92.2-43.4-175.9-92.9-252.7c-19.9,2.6-26.7-6-21-25.4c0.7-2.4-0.9-6.2-2.6-8.3c-15.6-18.8-31.3-37.4-47.2-55.9
			c-7.5-8.7-15.6-17-23.4-25.4c2.4,1.1,5.5,1.7,7.1,3.5c22.5,25,44.8,50.2,66.9,75.5c2.9,3.4,4.8,5.9,10.5,5
			c12.9-2.1,22.1,11.1,16,22.9c-2.4,4.7-1.9,7.6,0.7,11.6c46.9,74.4,76.9,155,88.9,242.2c0.7,5.2,2.3,7.9,8.2,8.8
			c13.9,2.1,26.9,7.2,39.2,16.8c-8.4,9.7-15.7,20.4-25.1,28.6c-13.8,12-18.3,26.1-16.4,43.8c1.3,11.9,0.2,24.1,0.2,37.6
			c34.2,0,69,0,103.8,0c0,0.7,0.1,1.5,0.1,2.2c-1.7,0.3-3.5,0.9-5.2,0.9c-58.4,0.1-116.9,0.1-175.3,0c-2.4,0-4.8-1.1-7.2-1.7
			c3.3-0.6,6.6-1.7,9.8-1.8c22.3-0.2,44.7-0.1,68.4-0.1c0-19.3,0-37.9,0-57.8c-24,23.9-55,30.2-86.2,36.5c1.9,3,3.2,4.9,5.1,7.9
			C1478.8,887.4,1467.1,892.4,1465.7,911.6z M1491.9,833.3c5.2-7.2,10.4-14.4,15.3-21.8c0.8-1.2,0.5-4-0.3-5.4
			c-9.2-14.5-21.8-24.2-38.4-28.5c-13.8,21.1-3.7,77.4,16,96.5C1486.9,861.1,1489.4,847.2,1491.9,833.3L1491.9,833.3z M1496.1,884.5
			c30.1-4.6,59.9-10.6,83-32.4c14.3-13.5,27.2-28.6,40.5-43.1c6.6-7.2,6-9.4-3.2-13.9c-19.3-9.3-39.4-11.5-60.3-7
			c-42.2,9-69.6,45.7-65.9,88.5c0.2,2.4,2.2,4.7,3.4,7.1C1494.5,883.9,1495.3,884.2,1496.1,884.5z M938.5,908.3c2,0.3,4,1,6,1
			c32,0,63.9,0,95.9-0.1c1.9,0,3.9-0.6,3.4-0.5c-1.5-9.7-4-18.8-4.2-27.9c-0.6-24.5-0.2-49.1-0.2-74.8c-6.7,3.9-12.3,7.2-18.2,10.6
			c0.7,0.6,1.2,1.3,1.9,1.6c7.3,3.3,10.9,9,8.9,16.8c-2,7.8-8,10.7-16,10.6c-10.2-0.2-20.3,0.1-30.5,0.2
			c-23.3-0.1-46.6,0.3-69.8-0.6c-4.8-0.2-10.9-4.2-13.6-8.2c-2-3-0.6-9.5,1.4-13.5c1.5-3.1,6.1-4.8,9.4-7.1c-1-0.6-2.5-1.4-4-2.2
			c-24-13.3-36.9-33.7-36-61c0.6-19-5.9-31.3-22.6-41.2c-15.6-9.2-29.1-22-42.9-34c-4.3-3.8-8.2-5.5-13.7-5.5
			c-57.6,0.1-115.2,0.1-172.8,0.1c-3.2,0-6.5,0.1-9.5-0.6c-6.4-1.4-10.1-5.6-10-12.4c0.1-6.8,4.1-10.7,10.4-12.1
			c2.5-0.6,5.2-0.3,7.8-0.3c50.6,0,101.2,0,151.9,0c3,0,6-0.3,9.9-0.4c-3.1-5.3-6.2-9.3-7.9-13.8c-2.9-7.6-8-9-15.5-8.9
			c-49.7,0.3-99.5,0.2-149.3,0.2c-17.9,0-24.7,6.8-24.7,24.8c0,78.4,0,156.8,0,235.1c0,18.3,6.4,24.8,24.5,24.8
			c106.8,0,213.5,0,320.3,0C932.1,908.7,935.3,908.4,938.5,908.3z M967.2,818c0-0.2,0-0.4,0-0.6c9.3,0,18.6,0,27.9,0
			c14.2,0,27.1-4,38-12.9c3.1-2.5,5.6-7.5,5.7-11.4c0.6-18,0.2-36,0.3-54c0.1-20.2,8.3-28.1,28.7-28.7c5.8-0.2,12.3-1.4,17.1-4.4
			c116.6-73.7,133.7-241,34.8-337.1c-91.8-89.2-237.5-82.7-320,15.1c-41.7,49.5-58.1,107.2-48.5,171.2
			c10.4,69.8,47.7,122.1,108.3,157.9c9.6,5.7,15.5,13.9,16.7,25.1c0.6,5.7,0.6,11.6,0.7,17.4c0.5,30.2,21.3,55.6,51.3,60.4
			C940.9,818.1,954.1,817.5,967.2,818z M1151.6,812.1c0-25.8,0.1-51.6,0-77.4c0-9.9-5.5-17.4-14.3-19.3c-2.5-0.5-6.9-0.3-7.9,1.2
			c-5,7.5-12.1,6.8-19.4,6.7c-10.2-0.1-20.4,0.4-30.5-0.2c-3.9-0.2-7.6-3.2-11.5-4.5c-3.8-1.3-8-3.5-11.5-2.7
			c-8.6,1.9-13.4,9.6-13.4,19.9c-0.1,50.7-0.1,101.5,0,152.2c0,13.6,7.5,20.6,21.4,20.6c22.1,0.1,44.2,0.1,66.2,0
			c13.9-0.1,20.8-7.1,20.9-20.9C1151.7,862.6,1151.6,837.3,1151.6,812.1z M1424.6,882.4c1.1-2.2,2.2-3.9,2.8-5.7
			c13.9-40.1,10.3-79.9-2-119.5c-0.7-2.1-3-4.2-5.1-5.3c-11.5-5.7-19.5-14.5-24.7-26c-4.2-9.4-7.9-19-12.6-30.5
			c-6.5,4-13.5,7-18.9,11.9c-9.6,8.8-18.1,18.9-27.4,28c-6.6,6.5-13.8,12.3-21,18.2c-5.4,4.4-11,4.4-16.7,0
			c-7.1-5.5-14.5-10.7-21.6-16.2c-6.1-4.6-12.1-9.4-18.5-14.5c-4.4,13.9-4.5,25.6,6.7,35.3c3.7,3.2,6.5,7.4,9.7,11.1
			c9.9,11.4,19.6,23,29.6,34.2c5.1,5.7,10.4,8.4,17.5,1.7c10.1-9.5,21-18.3,31.6-27.3c1.5-1.3,3.4-2.2,5.1-3.4
			c0.5,0.5,1,1.1,1.4,1.6c-2.4,2.9-4.8,5.7-7.1,8.3c10.6,17.5-0.5,31.4-6.9,46.9C1372.4,848.2,1398.3,865.2,1424.6,882.4z
			 M1411.3,879c-1.8-1.5-3.1-2.7-4.5-3.7c-31.6-20.7-63.2-41.2-94.7-62c-6.5-4.3-12-4.2-18.3,0.4c-21.4,15.5-43,30.7-64.6,46
			c-1.8,1.3-4,2.2-6.2,3.4c10.9,8.8,11,8.8,18.8,2.6c8.4-6.6,16.9-13.3,25.4-19.8c1.3-1,3.1-1.3,4.6-1.9c0.4,0.7,0.8,1.3,1.2,2
			c-11.1,8.8-22.2,17.7-34.1,27.1c4.6,2.7,8.2,4.5,11.5,6.9c5.4,3.8,9.2,3.2,14-1.8c8.8-9.2,18.4-17.7,27.8-26.3
			c6.9-6.3,9.9-5.9,14.8,2.3c5.5,9.2,10.8,18.6,16,27.9c9.7,17.4,24.1,27,44.5,26.6C1388.1,908.2,1401.5,897,1411.3,879z
			 M580.1,779.6c-35,0-69,0-103,0c-5.2,0-10.6,0.8-15.6-0.3c-3.2-0.7-5.8-4.1-8.6-6.4c2.4-3,4.5-6.5,7.4-8.9
			c1.4-1.2,4.5-0.3,6.8-0.3c34.6,0,69.2,0,103.9,0c3.1,0,6.1,0,9,0c0-4.8,0-8.2,0-11.4c-1-0.4-1.5-0.8-2.1-0.8
			c-41.3-0.1-82.6-0.2-123.9-0.1c-10.5,0-17.9,7.8-18.4,18.3c-0.3,6.7-0.1,13.3-0.1,20c0.1,15.9,6.8,22.6,23,22.6
			c37.8,0,75.6,0,113.5,0c2.8,0,5.5-0.3,8.2-0.4C580.1,800.9,580.1,790.8,580.1,779.6z M579.8,683.6c0-4.8,0-8.4,0-12.4
			c-42.7,0-84.8-0.2-126.9,0.1c-9.6,0.1-16.7,7.8-17.3,17.5c-0.4,6.6-0.2,13.3-0.2,20c0,17,6.7,23.5,23.9,23.6
			c37.5,0.1,75,0,112.5,0c2.8,0,5.5-0.3,8-0.4c0-11.4,0-21.7,0-32.2c-2.4-0.1-4.1-0.3-5.8-0.3c-36.9,0-73.8,0-110.7,0
			c-5.3,0-10.3-0.7-10.5-7.5c-0.2-7.2,4.7-8.4,10.5-8.4c9.3,0.1,18.6,0,27.9,0C520.6,683.6,549.9,683.6,579.8,683.6z M580,832.6
			c-0.8-0.4-1.3-0.9-1.8-0.9c-41.6-0.1-83.2-0.3-124.8,0c-10.3,0.1-17.5,8.5-17.9,18.9c-0.2,5.8-0.1,11.6-0.1,17.4
			c0,18.8,6.2,25,25.1,25.1c36.9,0.1,73.9,0,110.8,0c2.8,0,5.6-0.3,8.5-0.5c0-11,0-21.2,0-32c-3.9,0-7,0-10.2,0
			c-33.7,0-67.5,0-101.2,0c-3.5,0-7.4,0.3-10.2-1.2c-2.4-1.3-4.8-5-4.9-7.7c0-2.2,3-5.3,5.4-6.6c2.4-1.2,5.7-0.7,8.6-0.7
			c34.3,0,68.7,0,103,0c3.1,0,6.2,0,9.8,0C580,839.7,580,836.1,580,832.6z M797.1,668.4c-6.4-12.3-13.3-18.5-27.5-18.2
			c-49.7,1.1-99.4,0.4-149.1,0.4c-2.6,0-6-0.8-7.7,0.5c-3.1,2.3-7.3,6-7.2,9c0.1,2.8,4.9,6,8.2,7.9c2,1.2,5.1,0.3,7.7,0.3
			c51.4,0,102.9,0,154.3,0C782.6,668.4,789.2,668.4,797.1,668.4z M965.7,841.9c16.3,0,32.6-0.2,48.8,0.1c7.5,0.1,12.6-2.8,14-10.1
			c1-5.5-5.5-10.7-13.4-10.7c-32.6-0.1-65.1-0.1-97.7,0c-6.9,0-12,3.1-13.1,10.2c-0.8,5.5,5.9,10.5,13.4,10.5
			C933.7,841.9,949.7,841.9,965.7,841.9z M462.2,747.2c39.8,0,78.8,0,118.3,0c-0.2-4-0.3-7.3-0.5-10.6c-39.8,0-78.7,0-117.9,0
			C462.2,740.3,462.2,743.4,462.2,747.2z M462.2,827.3c39.8,0,78.8,0,118.3,0c-0.2-4-0.3-7.3-0.5-10.6c-39.8,0-78.7,0-117.9,0
			C462.2,820.4,462.2,823.5,462.2,827.3z M1347.1,647.1c0,4.2-0.3,8.8,0.1,13.4c1.4,16.2,16,25.8,31.2,20.4c2-0.7,5-3.4,4.8-4.8
			c-1.6-11.3-3-22.8-6.3-33.8c-2.1-7.1-8.1-7.7-14.8-3.6C1357.5,641.6,1352.7,644,1347.1,647.1z M519.3,847.4
			c-18.6,0-37.2-0.2-55.7,0.2c-2.3,0-4.5,3-6.8,4.7c2,1.7,4,3.5,6.1,5c0.8,0.5,2.3,0.2,3.4,0.2c35.7,0,71.4,0.1,107.1-0.2
			c2.4,0,4.7-3.2,7-4.9c-2.4-1.7-4.7-4.7-7.2-4.8C555.3,847.2,537.3,847.4,519.3,847.4z M518.7,775.8c18.3,0,36.6,0.2,54.9-0.2
			c2.3,0,4.5-2.8,6.7-4.3c-2.1-1.4-4.1-3.9-6.2-3.9c-36.6-0.2-73.3-0.3-109.9,0c-2.5,0-4.9,3.2-7.4,4.9c2.6,1.1,5.2,3.2,7.8,3.2
			C482.7,775.9,500.7,775.8,518.7,775.8z M518.8,695.6c18,0,36,0.2,54-0.2c2.5-0.1,5-2.8,7.6-4.3c-2.3-1.4-4.7-3.9-7-3.9
			c-36.3-0.3-72.6-0.3-108.9,0c-2.5,0-5,2.5-7.5,3.8c2.6,1.5,5.2,4.3,7.9,4.3C482.8,695.8,500.8,695.6,518.8,695.6z M1340.8,908.7
			c-7.9-8.7-15.9-17.5-24.2-26.7c-8.3,8.5-17,17.4-26,26.7C1307.6,908.7,1324.5,908.7,1340.8,908.7z M1176.9,909.7
			c22.5,0,45,0.1,67.5-0.2c1.6,0,4.6-3.4,4.3-4.5c-0.6-2.1-3.1-5-4.8-5.1c-20-0.4-40-0.3-59.9-0.2
			C1178.5,899.8,1175.4,902.5,1176.9,909.7z M1349.2,787.7c-10.3,8.7-20.1,16.9-30.4,25.6c8.3,5.3,15.7,10.2,23.2,14.9
			C1354.3,813.5,1357.4,796.9,1349.2,787.7z M1245,895.7c0.4-1.1,0.8-2.2,1.2-3.3c-9-3.6-18.3-10.5-27.1-9.9
			c-11,0.7-23.2,3.8-31.7,13.2C1206.6,895.7,1225.8,895.7,1245,895.7z M1492.5,513.5c-0.2-6.6-5.2-11.5-11.7-11.3
			c-6.8,0.1-12,5.7-11.6,12.4c0.4,6.4,5.7,11.1,12.2,10.9C1487.8,525.2,1492.6,520,1492.5,513.5z M1449,740.2
			c-24.7-2.2-37.8-18.8-48-38.9C1400.6,719.6,1430.1,747.5,1449,740.2z M1070.4,715c8.5,7,48.6,6.3,52.6,0
			C1105.8,715,1088.9,715,1070.4,715z M1260.6,714.9c-12.7,1.5-25.3,3-38,4.6c-0.1,0.5-0.2,1-0.2,1.5c10.2,1.8,20.4,3.6,29.8,5.2
			C1254.8,722.7,1257.2,719.5,1260.6,714.9z M1393.7,667c-1.2,0.2-2.3,0.4-3.5,0.6c1.3,6.8,2.6,13.5,3.8,20.3
			c1.1-0.2,2.1-0.4,3.2-0.6C1396,680.5,1394.9,673.7,1393.7,667z"/>
		<path class="st0" d="M1982.5,193.9c-227,0-454,0-681,0c-3.5,0-7,0.2-10.4,0.2c-5.1,0-10.2,0-15.4,0c-75.3,0-150.6-0.1-226-0.1
			c-45.4,0-90.7-0.1-136.1-0.1c-111.4,0-222.8,0-334.2,0c-3.2,0-6.4,0.2-9.6,0.2c-2.5,0-5.1-0.1-7.6-0.1c-99.3,0-198.7-0.1-298-0.1
			c-67.4,0-134.8,0-202.2,0c0.3-0.6,0.6-1.6,0.9-1.7c2.3-0.1,4.7-0.1,7-0.1c634.9,0,1269.9,0,1904.8,0.1
			C1977.3,192.3,1979.9,193.3,1982.5,193.9z"/>
		<path class="st2" d="M1278.9,977.8c-2.6-12.4-5.1-24.8-7.8-37.2c-3.1-14.7,7.3-27.8,22.3-27.8c17.4,0,34.7,0,53,1.7
			c-8.2,6-16.5,12-24.7,18c-3.5,2.6-7,5.2-10.6,7.6c-4.9,3.4-6.3,7.9-4.5,13.6c2.5,8,4.8,16,7.1,24.1
			C1302.2,977.8,1290.6,977.8,1278.9,977.8z"/>
		<path class="st3" d="M1394.5,414.1c7.8,8.5,15.9,16.7,23.4,25.4c15.9,18.5,31.7,37.1,47.2,55.9c1.8,2.1,3.3,5.9,2.6,8.3
			c-5.6,19.4,1.1,28,21,25.4c49.5,76.8,80.5,160.5,92.9,252.7c-26.6-0.2-49.7,7.1-69.5,24.7c-12-18.3-27.4-30.5-49.7-33.9
			c-6.4,40.4-6.2,79.2,24.8,112.8c-13.9,3-22.5,8.8-25.6,20.9c-0.3,1-2.7,2.2-4.1,2.2c-22,0.1-43.9,0.1-61.7,0.1
			c3-4.3,7.1-10.6,11.9-16.3c1.4-1.6,5.4-1.7,8-1.4c7.3,0.9,11-2.3,13.7-8.9c10.9-26.9,12.1-54.8,8.9-83c-1.6-14-5-27.9-7.7-42.6
			c6.1,0,12,0.2,18,0c23.8-1.1,39-13.8,42.2-35c2.9-19.5-11.7-35.6-31.5-34.4c-3.8,0.2-7.5,1.1-11.2,1.6c-13.3,1.8-19.4-1.3-24.4-14
			c-3.5-8.8-6.2-18.1-8.6-27.3c-7.2-27.9-45.7-40.4-67.6-21.8c-5.3,4.5-7.6,9.9-5.9,17c1.1,4.7,1.5,9.7,1.6,14.6
			c0.4,21.2,14.6,32.7,35.2,28.1c1.4-0.3,2.8-0.7,4.2-1.1c2.3,5.5,0.8,8.1-4.9,10.4c-6.8,2.8-13.5,7-18.8,12
			c-12.1,11.3-22.9,23.9-34.9,35.3c-14.8,14.2-15.9,14-32,2c-5.1-3.8-10.2-7.7-15-11.9c-1.7-1.5-2.4-4.2-3.7-6.3
			c-1.4-2.4-2.8-4.9-4.4-7.1c-7.9-10.3-17.3-8.5-27.9-4.3c-4.5,1.8-10.4-0.1-15.5,0.7c-2.8,0.5-5.2,3.2-7.8,4.9
			c2.2,1.9,4.1,4.8,6.6,5.4c6.7,1.6,13.8,2,20.6,3.4c5.5,1.1,7.9,4.1,7.5,10.5c-0.3,4.6,1.5,10.4,4.5,14.1
			c12.9,16.1,26.5,31.6,39.9,47.3c1.1,1.3,2,2.7,3,4.2c-24.2,17.2-48,34.2-71.9,51.1c-10.4,7.4-10.1,10.7,1.3,16.9
			c7.4,4,14.9,7.8,22.1,12.2c5,3.1,8.8,2.7,13.1-1.5c9.5-9.4,19.6-18.2,29.1-27.6c5.1-5.1,7.7-3.9,11,1.8
			c11.4,19.7,11.5,19.7-5.1,35c-1.1,1-2.4,1.8-3.1,3c-10.6,16.9-26.9,13.4-43.7,12.5c3.6-22-16-23-27.8-31.1c-1.6-1.1-5,0-7.5,0.7
			c-7.3,2-14.5,4.3-21.7,6.5c-9.9,3.1-20.8,13.7-24.4,24c-7.2,0-14.6,0-19.8,0c1.4-9.9,3.9-19.6,4-29.3c0.4-46.4,0.2-92.9,0.2-139.4
			c0-20.9-8-28.8-29.1-28.9c-12.2-0.1-24.4,0-37.3-0.8c55.3-40.1,89.7-92.6,97.4-160.7c7.7-68.3-12.8-127.9-59.6-178.1
			c-67.9-72.8-180.6-89.9-268.4-40.8c-50.9,28.5-85.8,70.7-103.5,126.2c-17.6,55.1-13.2,109.3,11.1,163.6c-4.7,0-8,0-11.4,0
			c-48.3,0-96.6,0-144.9,0c-21.8,0-29.6,7.7-29.6,29.2c0,5.5,0,10.9,0,17.3c-4.1,0.2-7.5,0.5-10.8,0.5c-36.7,0-73.3,0-110,0
			c-19.7,0-28.1,8.4-28.2,28c0,4.9,0,9.9,0,14.8c0.2,15.9,6.5,23.4,22,26.2c1.4,0.3,2.8,0.7,4.4,1.2c0,3.3,0,6.4,0,9.4
			c-22,4.2-26.4,9.6-26.4,32.3c0,2.3,0,4.6,0,7c0,21.3,5.1,27.5,26.1,31.4c0,3.1,0,6.4,0,9.6c-21,3.8-26.1,10-26.1,31.6
			c0,5.8-0.1,11.6,0.3,17.4c0.7,8.9,5.3,15.2,13.5,18.8c3.8,1.7,7.3,2.4,7.4,8c0,5.7-3.9,5.4-7.2,6.7c-0.6,0.2-0.9,1.4-1.4,2.1
			c-13.1,0-26.2,0-39.3,0c-3-1.1-5.9-2.9-8.9-3c-11.5-0.4-23-0.1-34.8-0.1c-4.2-45.8-2.7-90.1,4.3-134c4.7-29.4,12.2-58.4,18.4-87.6
			c26.9-11.4,32-39,20.6-59.2c1.3-2.6,2.8-5.1,4-7.7c35.1-81,85-151.7,150.6-210.9C674.6,304.7,811,251.3,967,248.8
			c83.2-1.3,163.5,14.5,240.5,46.1c2.7,1.1,5.9,1.2,8.9,1.7c5.4,2,10.9,3.9,16.3,5.9c0,1.1-0.4,2.9,0,3c13.1,6.4,26.3,12.7,39.5,19
			c4.2,1.8,8.4,3.7,12.6,5.5c1.8,2.2,3.2,5,5.4,6.6c21.7,15.3,43.4,30.4,65.2,45.4c2.3,1.6,4.9,2.7,7.4,4
			C1373.4,395.5,1384,404.8,1394.5,414.1z M1244.3,690.6c9.7-1.8,19.4-3.3,29-5.5c4-0.9,7-3.9,3-8.3c-3.8-4-21.9-6.4-28.5-3.5
			c8.9,2,17,3.8,25,5.6c0,1.2-0.1,2.3-0.1,3.5c-9.5,1.2-19,2.4-28.6,3.6c0-7.6,0-15.3,0-22.7c-13.5,0-25.5,0-38.3,0c0,8,0,15.5,0,23
			c-9.6-1.3-19.2-2.7-28.8-4c0-1.1,0.1-2.3,0.1-3.4c8.2-1.8,16.4-3.6,24.6-5.4c-0.2-1-0.4-1.9-0.6-2.9c-7,1.1-14,1.8-20.8,3.6
			c-3.2,0.8-5.8,3.9-8.6,5.9c3,2.3,5.7,5.7,9.1,6.6c8.1,2,16.6,2.7,24.9,4c0.2,3.3,0.4,6.7,0.7,10.5c6.9,0,13,0,19,0
			c6,0,12,0,18.3,0C1244,696.9,1244.2,693.7,1244.3,690.6z M1206.1,606.5c-5.7,6.2-10.2,11.4-15.1,16.4c-3.1,3.2-2.8,5.4,0.3,8.7
			c15.5,16.3,15.4,16.4,30.2,0c1.7-1.9,3.3-3.9,5.4-6.4C1219.8,618.9,1213.2,612.9,1206.1,606.5z M1238.9,647.3
			c4.7,2,10.4,6.5,14.2,5.3c3.8-1.3,5.7-8.3,8.4-12.7C1246,629.9,1245.1,630.2,1238.9,647.3z"/>
		<path class="st4" d="M1216.5,296.7c-3-0.5-6.2-0.6-8.9-1.7c-77-31.6-157.3-47.4-240.5-46.1c-156,2.4-292.4,55.9-408.2,160.3
			C493.1,468.3,443.3,538.9,408.2,620c-1.1,2.6-2.6,5.1-4,7.7c-0.7-1.2-1.4-2.5-2-3.7C457.3,494.6,545.9,394.6,668,324.9
			c101.6-58,211.6-83.9,328.5-79.8c73.9,2.6,145.1,18.3,213.4,46.6C1212.4,292.7,1214.3,295,1216.5,296.7z"/>
		<path class="st3" d="M1465.7,911.6c1.4-19.2,13.2-24.2,38.5-15.2c-1.9-3-3.1-4.9-5.1-7.9c31.2-6.3,62.3-12.6,86.2-36.5
			c0,19.9,0,38.5,0,57.8c-23.7,0-46.1-0.1-68.4,0.1c-3.3,0-6.6,1.2-9.8,1.8C1493.3,911.7,1479.5,911.6,1465.7,911.6z"/>
		<path class="st5" d="M232.1,331.5c39.5,0.1,71.1,31.9,70.8,71.7c-0.2,36.9-28.8,70.7-71.3,70.6c-40.1-0.1-71.3-29.7-71.4-71.4
			C160.1,362.6,192.6,330.9,232.1,331.5z M231.9,336.7c-36.5-2.3-67.3,31.2-67,65.4c0.3,37.8,29.6,66.8,67.7,67.3
			c32.2,0.4,66.4-29.8,65.5-66.6C297,364.8,269.7,336.7,231.9,336.7z"/>
		<path class="st5" d="M1888.3,677.1c2.8,37.8-32.9,71.5-71,71.1c-38.4-0.4-70.7-32.5-70.9-71.9c-0.1-35.4,30.2-71.3,72.2-70.6
			C1859.2,606.2,1890.3,639.1,1888.3,677.1z M1884.7,677.9c0.2-36.9-29.9-67.6-66.4-67.7c-37.3-0.1-68,29-67.4,66.4
			c0.7,38.2,26.2,65.9,66.2,66.8C1855.1,744.4,1883.1,714.8,1884.7,677.9z"/>
		<path class="st6" d="M492.3,911.8c-4.3-0.8-8.7-2.1-13-2.4c-7.2-0.4-14.4-0.1-22.3-0.1c0-4.4,0-8,0-12.8c3.2,0,6.3,0,9.4,0
			c34,0,67.9,0.5,101.9-0.3c10.1-0.2,16.3,2.8,20.2,13c-19.4,0-38.5-0.1-57.5,0.1c-3.2,0-6.4,1.4-9.6,2.2
			C511.7,911.7,502,911.7,492.3,911.8z"/>
		<path class="st7" d="M383.6,686.9c-6.2,29.2-13.7,58.2-18.4,87.6c-7.1,43.9-8.5,88.2-4.3,134c11.8,0,23.3-0.2,34.8,0.1
			c3,0.1,6,2,8.9,3c-2.5,0.4-5,1.2-7.5,1.2c-23.5,0.1-47,0.1-70.5,0c-2.5,0-4.9-0.4-7.4-0.7c0-0.9-0.1-1.8-0.1-2.7
			c11.8,0,23.7,0,37.1,0c-4.8-76.3,1.9-149.6,23.2-221.3C380.7,687.9,382.1,687.4,383.6,686.9z"/>
		<path class="st8" d="M1566.7,401.3c-21.7,0-38.1-16.4-38-38c0.1-21,17.3-38.4,38.2-38.4c20.6,0,38.2,17.6,38.3,38.5
			C1605.3,384.4,1588.1,401.3,1566.7,401.3z M1566.7,396.4c19,0,33.5-14,33.6-32.5c0.1-18.8-14.9-34.1-33.4-34.1
			c-19.2,0-33.4,14.4-33.3,33.8C1533.6,382.5,1547.7,396.4,1566.7,396.4z"/>
		<path class="st8" d="M534.7,342.1c-21.8,0.1-38.1-16-38.1-37.5c0-21.3,16.8-38.6,37.6-38.6c20.5-0.1,38.4,17.5,38.8,38.2
			C573.5,324.2,555.6,342,534.7,342.1z M568.2,304.9c0.3-18.6-14.7-33.9-33.4-34.3c-17.9-0.3-33.9,14.9-34.4,32.6
			c-0.4,17.9,15.2,34.4,33.2,35C551.6,338.9,568,323.1,568.2,304.9z"/>
		<path class="st8" d="M383.6,686.9c-1.4,0.5-2.9,1-4.3,1.4c-13.9,1.4-26.5-0.8-36.9-11.3c-15.2-15.5-15.9-39.4-1.3-55
			c14.8-15.8,39.7-16.9,55.7-2.5c1.7,1.5,3.5,3,5.3,4.4c0.7,1.2,1.4,2.5,2,3.7C415.5,647.9,410.4,675.5,383.6,686.9z M370.5,613.7
			c-19.4-0.1-35.7,15.8-36,35.1c-0.3,18.6,16.4,35.7,35.3,36.1c18.9,0.4,36-16.1,36.2-35C406.2,630,390.3,613.8,370.5,613.7z"/>
		<path class="st7" d="M1650.2,562.1c-0.2,8.9-7.3,15.7-16.3,15.7c-9.1,0-16.1-6.9-16.2-15.8c0-9.2,7.6-16.6,16.7-16.3
			C1643.2,546.1,1650.4,553.5,1650.2,562.1z M1645.6,562.1c0.1-6.3-4.9-11.6-11.2-11.8c-6.5-0.2-11.7,4.6-12,11
			c-0.3,6.9,4.8,12.3,11.6,12.3C1640.1,573.5,1645.5,568.2,1645.6,562.1z"/>
		<path class="st7" d="M1362.8,386.1c-2.5-1.3-5.1-2.4-7.4-4c-21.8-15.1-43.6-30.2-65.2-45.4c-2.2-1.6-3.6-4.3-5.4-6.6
			c4.6,2.3,9.5,4.1,13.7,7c19.9,13.7,39.7,27.7,59.3,41.8C1360,380.6,1361.2,383.7,1362.8,386.1z"/>
		<path class="st8" d="M1275.7,194.2c5.1,0,10.2,0,15.4,0c2.8,5.4,7.6,10.5,8.1,16.1c0.7,7.4-4.7,12.9-12.4,14.5
			c-7.2,1.5-13.3-0.9-17.1-7.3c-4-6.6-3.2-13.2,1.7-19.2C1272.6,196.8,1274.2,195.5,1275.7,194.2z M1283.2,197.4
			c-6.5,0.1-11.4,5.1-11.4,11.8c0,6.8,4.8,11.4,11.6,11.4c6.6,0,11.6-5,11.5-11.6C1294.9,202.5,1289.6,197.3,1283.2,197.4z"/>
		<path class="st7" d="M215.9,686.9c8.9,0,15.8,6.9,16,15.9c0.1,9.3-7.1,16.4-16.5,16.2c-9-0.2-15.6-7.2-15.5-16.3
			C200,693.8,207,686.9,215.9,686.9z M227.8,702.9c-0.1-6.3-5.3-11.5-11.8-11.5c-6.4,0-11.9,5.2-12.1,11.3
			c-0.1,6.4,5.8,12.2,12.4,12C222.4,714.7,227.8,709,227.8,702.9z"/>
		<path class="st8" d="M403,204.3c9.4,0.1,15.8,6.7,15.7,16c-0.1,9-7.1,15.9-16.2,15.8c-9-0.1-16-7.2-15.9-16.2
			C386.8,211,393.8,204.2,403,204.3z M402.8,208.3c-6,0-11.8,5.6-12,11.7c-0.2,5.9,5.6,11.9,11.5,12.1c6.5,0.2,12.4-5.7,12.2-12.2
			C414.4,213.6,409.1,208.3,402.8,208.3z"/>
		<path class="st7" d="M1567.4,204.3c9.2,0.3,15.7,7.2,15.4,16.4c-0.3,9-7.6,15.8-16.6,15.4c-9-0.4-15.7-7.7-15.5-16.7
			C1551,210.4,1558,204,1567.4,204.3z M1566.5,208.3c-6,0.1-11.5,5.7-11.6,11.7c-0.1,6.3,5.9,12.2,12.2,12.1
			c6-0.1,11.6-5.7,11.7-11.7C1578.9,214,1572.9,208.2,1566.5,208.3z"/>
		<path class="st8" d="M1272.2,324.6c-13.2-6.3-26.4-12.6-39.5-19c-0.4-0.2,0-2,0-3c12.3,6,24.7,11.9,37,18
			C1271,321.2,1271.4,323.3,1272.2,324.6z"/>
		<path class="st7" d="M244.8,856c0-3.8,0-8.2,0-12.8c1.1,0.6,3.4,1.8,5.7,2.9c2.2-1.3,4.3-2.6,6.4-3.8c0.5,0.4,1,0.8,1.4,1.1
			c-1.3,2.2-2.6,4.3-4.2,6.9c1.3,1.7,2.7,3.7,4.1,5.6C253.2,856,248.5,856,244.8,856z"/>
		<path class="st7" d="M1440.8,275.6c-1.3,2.1-2.7,4.4-4.1,6.6c1.4,2.1,2.8,4.1,4,5.7c-4.7,0-9.4,0-13.5,0c0-3.2,0-7.9,0-11.6
			C1431,276.1,1435.6,275.9,1440.8,275.6z"/>
		<path class="st7" d="M1667,473.1c1.5,2.5,2.7,4.5,3.5,5.8c-4.6,0-9,0-12.9,0c0-2.9,0-7.6,0-11.5c3.2,0,7.8,0,12.7,0
			C1669.6,468.9,1668.4,470.9,1667,473.1z"/>
		<path class="st7" d="M386.8,458.5c0,6.5,0,10.8,0,14.3c-3.7,0-8,0-11.9,0c0-3.3,0-7.8,0-12.9C378.4,460.7,383.2,466.7,386.8,458.5
			z"/>
		<path class="st8" d="M1699.6,814.1c3.2,0,7.2,0,10.6,0c0,3,0,7,0,10.9c-2.7-0.1-6.6-0.3-10.6-0.5
			C1699.6,821.7,1699.6,817.5,1699.6,814.1z"/>
		<path class="st7" d="M562.2,194.1c2.5,0,5.1,0.1,7.6,0.1c1.2,2.5,2.4,4.9,3.4,7c-4.7,0-9.5,0-14.3,0
			C559.8,199.3,561,196.7,562.2,194.1z"/>
		<path class="st9" d="M967.2,818c-13-0.6-26.3,0.1-39.1-2c-30-4.9-50.8-30.2-51.3-60.4c-0.1-5.8-0.1-11.6-0.7-17.4
			c-1.1-11.2-7.1-19.4-16.7-25.1c-60.7-35.9-97.9-88.1-108.3-157.9c-9.5-64,6.8-121.7,48.5-171.2c82.6-97.8,228.2-104.3,320-15.1
			c98.9,96.1,81.8,263.4-34.8,337.1c-4.8,3-11.3,4.2-17.1,4.4c-20.3,0.7-28.6,8.5-28.7,28.7c-0.1,18,0.3,36-0.3,54
			c-0.1,3.9-2.7,8.9-5.7,11.4c-10.9,8.9-23.8,12.9-38,12.9c-9.3,0-18.6,0-27.9,0C967.2,817.7,967.2,817.9,967.2,818z M876.9,587.5
			c-8,13-17,25.9-24.2,39.7c-5,9.6-8.7,20.3-10.9,30.9c-2.4,11.3,5,18.8,16.5,17.5c7.1-0.8,14.7-2.3,20.8-5.7
			c19.3-11.1,38.4-22.8,56.8-35.2c11.4-7.7,21.7-17.2,31.6-25.3c20.1,15,38.9,30.7,59.4,43.7c14.7,9.3,31.2,16.6,47.9,21.8
			c14.3,4.5,23.2-4.8,19.3-19.3c-3.5-13.2-9.6-26-15.9-38.2c-5.5-10.7-12.9-20.3-19.7-30.9c10.4-2,20.3-3.2,29.6-6
			c13.8-4.2,28-8.2,40.7-14.7c17.9-9.2,17.4-23.3-0.3-33.2c-7-3.9-14.7-7.2-22.4-9.3c-15.5-4.3-31.3-7.7-47.6-11.6
			c2.4-3.5,4.9-6.6,6.9-10.1c8.1-13.7,16.5-27.3,23.7-41.4c3.2-6.3,4.9-13.7,5.6-20.8c1.1-11.2-6-17.8-17.1-16.3
			c-6.5,0.9-13.3,2.5-19.2,5.3c-11.7,5.7-23.6,11.5-34.2,18.9c-19.2,13.4-37.6,28-56.8,42.4c-1.3-1.1-3-2.7-4.8-4
			c-20.5-15.2-40.3-31.5-61.7-45.3c-12.1-7.8-26.6-12.8-40.6-16.7c-12.9-3.5-21.7,5.4-18,18.3c4.1,14.3,10.4,28,17.1,41.4
			c5,10,12.1,18.9,18.1,28.1c-17.7,4.5-35.2,8.3-52.2,13.6c-8.7,2.7-17.1,7.4-24.4,12.8c-8.4,6.3-8.6,15.7-0.8,22.4
			c5.9,4.9,12.9,9.4,20.1,11.7C838.9,577.8,858,582.4,876.9,587.5z M1162.5,536.9c6.7-17.9-8.3-82.4-20.9-91.4
			C1154.4,474.7,1160.8,505.3,1162.5,536.9z M1069.5,365c-6.5-9-23.2-15.9-30.9-13.9C1049.6,356.1,1059.6,360.6,1069.5,365z
			 M1082.6,369c-0.9,0.9-1.7,1.9-2.6,2.8c8.2,7,16.4,13.9,24.7,20.9c0.8-0.9,1.5-1.7,2.3-2.6C1098.9,383.1,1090.8,376.1,1082.6,369z
			 M1128.7,416.7c-1.1,0.6-2.2,1.3-3.2,1.9c3.9,6.6,7.9,13.1,11.8,19.7c1-0.6,2.1-1.3,3.1-1.9
			C1136.6,429.9,1132.6,423.3,1128.7,416.7z"/>
		<path class="st10" d="M938.5,908.3c-3.2,0.2-6.4,0.4-9.6,0.4c-106.8,0-213.5,0-320.3,0c-18.1,0-24.5-6.4-24.5-24.8
			c0-78.4,0-156.8,0-235.1c0-17.9,6.8-24.8,24.7-24.8c49.8,0,99.5,0.2,149.3-0.2c7.5-0.1,12.7,1.3,15.5,8.9
			c1.7,4.5,4.8,8.5,7.9,13.8c-3.9,0.2-6.9,0.4-9.9,0.4c-50.6,0-101.2,0-151.9,0c-2.6,0-5.3-0.3-7.8,0.3c-6.3,1.5-10.3,5.3-10.4,12.1
			c-0.1,6.8,3.5,10.9,10,12.4c3.1,0.7,6.3,0.6,9.5,0.6c57.6,0,115.2,0.1,172.8-0.1c5.6,0,9.4,1.7,13.7,5.5
			c13.8,12,27.3,24.7,42.9,34c16.7,9.9,23.2,22.2,22.6,41.2c-0.9,27.3,12,47.7,36,61c1.5,0.8,3,1.7,4,2.2c-3.3,2.3-7.9,4-9.4,7.1
			c-1.9,4-3.4,10.5-1.4,13.5c2.7,4.1,8.8,8.1,13.6,8.2c23.2,0.9,46.5,0.5,69.8,0.6c0,0.8,0,1.6,0,2.5c-19.4,0.1-38.9,0.2-58.3,0.4
			c-9.5,0.1-15.9,6.6-15,15.1c0.8,7.8,7,12.8,16.7,12.9c17.1,0.2,34.2,0.2,51.3,0.3c0,0.6,0,1.2,0,1.8c-12.1,0.1-24.2,0.4-36.3,0.3
			c-7.8,0-13.6,2.7-15.9,10.5c-2.2,7.6,1.3,13.1,10.2,17.4C938.4,907.3,938.4,907.8,938.5,908.3z M653.9,768.8c0-2.9,0-5.8,0-8.6
			c-2.1-1.7-4.1-4.7-6.2-4.8c-11.3-0.5-22.6-0.8-33.8,0.1c-3,0.2-7.8,4.6-8,7.3c-0.2,3,4,6.3,6.2,9.4c4.3,0.1,8.7,0.4,13,0.2
			c8.4-0.4,16.9-1.2,25.3-1.8C651.5,769.9,652.7,769.3,653.9,768.8z M607.6,729.6c0,3.5,0,6.9,0,10.4c9.6,6.8,20.2,3.4,30.6,2.8
			c2.9,0,5.8,0,8.7,0c0.6,0,1.2-0.1,1.7-0.1c7.1-9.1,7.1-11.3,0-15.6c-0.6,0-1.2-0.1-1.7-0.1c-2.9,0-5.8,0-8.7,0
			c-9.6,0.3-19.1,0.7-28.7,1C608.9,728.5,608.3,729,607.6,729.6z M652.3,698.9c-12.5-0.8-25-2.1-37.5-2.4c-5.8-0.1-10.9,4-9.2,9.9
			c1,3.4,6.6,7.3,10.5,7.7c9.7,1.1,19.6,0.7,29.5,0.3c9.2-0.3,11.5-4.5,8.4-13.8C653.5,700.1,652.9,699.5,652.3,698.9z M746.8,758.1
			c-0.1,11.5,0.2,23.1-0.6,34.6c-0.6,8.8,1.3,14.7,10.3,18.1c6.8,2.5,13.1,6.6,19.6,10c13.7-1.7,27.5-3.3,41.2-5.4
			c1.6-0.2,3.9-3.4,3.9-5.2c0.2-14.4-0.1-28.8-0.2-43.3c-8.9-5.2-17.6-10.6-26.7-15.5c-2-1.1-5-1.1-7.4-0.8
			c-10.3,1.3-20.6,2.7-30.8,4.4C752.9,755.6,749.9,757.1,746.8,758.1z M643.8,856.3c0.1-0.8,0.2-1.6,0.3-2.5c-12.3,0-24.5,0-36.8,0
			c0,0.8,0,1.6,0,2.5C619.5,856.3,631.6,856.3,643.8,856.3z M622.8,873c0,0.8,0,1.6,0,2.4c11.9,0,23.9,0,35.8,0c0-0.8,0-1.6,0-2.4
			C646.7,873,634.8,873,622.8,873z M658,837.8c0-0.6,0-1.2,0-1.8c-11.5,0-23,0-34.5,0c0,0.6,0,1.2,0,1.8
			C635,837.8,646.5,837.8,658,837.8z M642.4,818.7c0-0.6,0-1.1,0-1.7c-11.4,0-22.9,0-34.3,0c0,0.6,0,1.1,0,1.7
			C619.5,818.7,631,818.7,642.4,818.7z M623.5,799.2c0,0.6,0,1.1,0,1.7c11.5,0,23,0,34.5,0c0-0.6,0-1.1-0.1-1.7
			C646.5,799.2,635,799.2,623.5,799.2z M642.4,893.2c0-0.6,0-1.1,0-1.7c-11.4,0-22.8,0-34.2,0c0,0.6,0,1.1,0,1.7
			C619.6,893.2,631,893.2,642.4,893.2z M629.2,884.3c-7.8-5.2-18.2-4.6-21.7,0C614.9,884.3,622.1,884.3,629.2,884.3z M607.9,844.7
			c0,0.7-0.1,1.3-0.1,2c7.1,0,14.3,0,21.4,0c0-0.7,0-1.3,0-2C622.1,844.7,615,844.7,607.9,844.7z M658.1,884.1
			c-0.1-0.8-0.2-1.6-0.3-2.4c-7,0-14.1,0-21.1,0c0,0.8,0.1,1.6,0.1,2.4C643.9,884.1,651,884.1,658.1,884.1z M652.3,864
			c0,0.7,0,1.3,0,2c7.2,0,14.4,0,21.6,0c0-0.7,0-1.3,0-2C666.7,864,659.5,864,652.3,864z M673.7,792.4c0-0.5,0-1,0-1.6
			c-7.1,0-14.1,0-21.2,0c0,0.5,0,1,0,1.6C659.6,792.4,666.7,792.4,673.7,792.4z M628.9,810c0-0.5,0-1-0.1-1.5c-7,0-13.9,0-20.9,0
			c0,0.5,0,1,0,1.5C615,810,622,810,628.9,810z M628.5,865.9c0-0.6-0.1-1.2-0.1-1.7c-6.8,0-13.6,0-20.4,0c0,0.6,0.1,1.2,0.1,1.7
			C614.9,865.9,621.7,865.9,628.5,865.9z M637.4,808.1c0,0.5,0,0.9,0.1,1.4c6.7,0,13.5,0,20.2,0c0-0.5-0.1-0.9-0.1-1.4
			C650.8,808.1,644.1,808.1,637.4,808.1z M608.1,827.2c0,0.5-0.1,1-0.1,1.5c6.8,0,13.6,0,20.3,0c0-0.5,0.1-1,0.1-1.5
			C621.6,827.2,614.9,827.2,608.1,827.2z M657.7,846.5c0-0.5,0-1,0-1.6c-6.8,0-13.5,0-20.3,0c0,0.5,0,1,0.1,1.6
			C644.2,846.5,650.9,846.5,657.7,846.5z M685.8,846.5c0-0.6,0-1.2,0-1.8c-6.8,0-13.6,0-20.4,0c0,0.6,0,1.2,0,1.8
			C672.2,846.5,679,846.5,685.8,846.5z M608.2,790.5c0,0.6,0,1.1,0,1.7c6.8,0,13.5,0,20.3,0c0-0.6,0-1.1,0-1.7
			C621.7,790.5,615,790.5,608.2,790.5z"/>
		<path class="st9" d="M1151.6,812.1c0,25.2,0.1,50.4,0,75.7c0,13.8-7,20.8-20.9,20.9c-22.1,0.1-44.2,0.1-66.2,0
			c-13.9-0.1-21.3-7.1-21.4-20.6c-0.1-50.7-0.1-101.5,0-152.2c0-10.4,4.8-18,13.4-19.9c3.5-0.8,7.7,1.5,11.5,2.7
			c3.9,1.3,7.6,4.2,11.5,4.5c10.1,0.6,20.3,0.1,30.5,0.2c7.3,0.1,14.5,0.7,19.4-6.7c1-1.5,5.4-1.7,7.9-1.2
			c8.8,1.9,14.3,9.4,14.3,19.3C1151.7,760.5,1151.6,786.3,1151.6,812.1z M1097.2,894.8c6.6,0,13.3,0.4,19.9-0.2c2.1-0.2,4-2.9,6-4.4
			c-1.9-1.4-3.8-3.9-5.8-4c-13.3-0.4-26.6-0.4-39.9,0c-2,0.1-4,3-6,4.5c2.2,1.4,4.3,3.7,6.6,3.9
			C1084.5,895.2,1090.9,894.9,1097.2,894.8z M1108.4,779.5c-7.1,0.2-17.9,24.3-16.7,39.5C1100,807.2,1103.3,793.2,1108.4,779.5z
			 M1109.8,789.3c-0.7,1-1.3,2.1-2,3.1c3.8,2.4,7.5,4.8,11.1,7.1c-2.4,3.9-11.2,1.6-10.2,10.6c6.5-2.4,12-4.2,17.2-6.5
			c4.8-2.1,5.2-5.7,0.5-8.1C1121.2,792.8,1115.4,791.3,1109.8,789.3z M1086.6,809.6c0.7-1,1.5-2,2.2-2.9c-3.8-2.5-7.6-5.1-10.8-7.2
			c3.4-2.5,6.9-5,10.3-7.6c-0.6-0.9-1.2-1.8-1.8-2.7c-5.1,1.9-10.2,3.5-15.1,5.8c-1.7,0.8-3.3,3-3.5,4.8c-0.2,1.2,1.9,3.3,3.5,3.9
			C1076.3,806,1081.5,807.7,1086.6,809.6z"/>
		<path class="st11" d="M1424.6,882.4c-26.3-17.2-52.2-34.2-77.9-51c6.4-15.5,17.5-29.4,6.9-46.9c2.2-2.6,4.7-5.5,7.1-8.3
			c-0.5-0.5-1-1.1-1.4-1.6c-1.7,1.1-3.5,2.1-5.1,3.4c-10.6,9-21.5,17.8-31.6,27.3c-7.1,6.7-12.4,4-17.5-1.7
			c-10-11.3-19.8-22.8-29.6-34.2c-3.2-3.7-6-8-9.7-11.1c-11.2-9.6-11.1-21.3-6.7-35.3c6.4,5,12.4,9.8,18.5,14.5
			c7.2,5.5,14.5,10.7,21.6,16.2c5.7,4.4,11.3,4.4,16.7,0c7.2-5.9,14.4-11.7,21-18.2c9.4-9.1,17.8-19.2,27.4-28
			c5.3-4.8,12.3-7.9,18.9-11.9c4.7,11.5,8.3,21.1,12.6,30.5c5.2,11.4,13.2,20.3,24.7,26c2.1,1,4.5,3.2,5.1,5.3
			c12.3,39.6,15.9,79.5,2,119.5C1426.8,878.5,1425.7,880.2,1424.6,882.4z M1422.5,793.8c-0.2,18.7,0.5,37.5-11,56.3
			C1424.2,841.8,1430.1,807.1,1422.5,793.8z"/>
		<path class="st12" d="M1411.3,879c-9.9,17.9-23.2,29.2-43.7,29.7c-20.4,0.5-34.8-9.1-44.5-26.6c-5.2-9.4-10.5-18.7-16-27.9
			c-4.9-8.2-7.9-8.7-14.8-2.3c-9.4,8.7-19,17.1-27.8,26.3c-4.7,4.9-8.6,5.6-14,1.8c-3.2-2.3-6.8-4.1-11.5-6.9
			c11.9-9.5,23-18.3,34.1-27.1c-0.4-0.7-0.8-1.3-1.2-2c-1.6,0.6-3.4,0.9-4.6,1.9c-8.5,6.5-16.9,13.2-25.4,19.8
			c-7.9,6.2-8,6.2-18.8-2.6c2.2-1.2,4.3-2.1,6.2-3.4c21.6-15.3,43.2-30.5,64.6-46c6.3-4.6,11.9-4.6,18.3-0.4
			c31.5,20.8,63.1,41.3,94.7,62C1408.2,876.3,1409.5,877.5,1411.3,879z"/>
		<path class="st13" d="M1493.7,883.7c-1.2-2.4-3.2-4.7-3.4-7.1c-3.7-42.8,23.7-79.5,65.9-88.5c20.9-4.4,41-2.3,60.3,7
			c9.2,4.4,9.8,6.6,3.2,13.9c-13.3,14.5-26.2,29.6-40.5,43.1c-23.1,21.8-52.9,27.8-83,32.4c-0.2-0.2-0.4-0.5-0.7-0.7
			c3.9-10.8,13.8-13.4,23-17.5c-2.8,0.3-5.6,0.6-8.4,0.8c-0.3-0.4-0.6-0.7-1-1c-0.6-0.7-1.1-1.4-1.7-2.2c-1.9,1.5-3.7,3-6.2,5.1
			c-0.6-3.8-1-6.2-1.8-11.1c-2.3,10.4-4,18.1-5.7,25.9L1493.7,883.7z M1520.2,852.8c9.3-8.8,20.6-10.9,33.1-9.6
			c-5.2-1.4-10.3-1.1-15.3-1.4c-8.5-0.6-16,0.3-19.1,9.8c-0.1,0.7-0.3,1.3-0.4,2C1519,853.3,1519.6,853.1,1520.2,852.8z
			 M1595.6,806.1c-0.3-0.4-0.7-0.7-1.1-1.1c0.8-1.5,1.7-3,2.5-4.5c0.8-1,1.5-2,2.3-3.1c-0.4-0.2-0.8-0.5-1.2-0.7
			c-0.7,1-1.4,2-2.1,2.9c-5.3,4.7-10.6,9.4-17.4,15.4c12.8-3.9,23.9-7.2,35-10.6c-0.2-0.8-0.4-1.5-0.6-2.3
			C1607.2,803.4,1601.4,804.8,1595.6,806.1z M1548.9,828.3c0.5,0.7,0.9,1.4,1.4,2c6.1-7.1,19.1-2.2,22.7-14.3
			c-5.9,2.1-11.6,4.1-17.3,6.1c-0.3-0.7-0.7-1.5-1-2.2C1552.7,822.7,1550.8,825.5,1548.9,828.3z M1559.6,809.5
			c0.7,0.2,1.4,0.4,2.2,0.5c1.3-3.5,2.6-7,3.8-10.6c-0.7-0.2-1.3-0.5-2-0.7C1562.3,802.3,1561,805.9,1559.6,809.5z M1606.6,810.4
			c-0.2,0.6-0.5,1.1-0.7,1.7c1.8,0.6,3.5,1.2,5.3,1.8c0.2-0.5,0.3-0.9,0.5-1.4C1610,811.8,1608.3,811.1,1606.6,810.4z M1557.4,816.1
			c-0.2,0.2-0.5,0.4-0.6,0.6c0,0.2,0.3,0.4,0.5,0.6c0.2-0.2,0.5-0.4,0.6-0.6C1557.9,816.5,1557.6,816.3,1557.4,816.1z M1577.2,815
			c-0.2-0.2-0.4-0.5-0.6-0.5s-0.4,0.3-0.6,0.5c0.2,0.2,0.4,0.5,0.6,0.5C1576.8,815.5,1577,815.2,1577.2,815z M1559.7,813.3
			c-0.2-0.2-0.3-0.4-0.5-0.7c-0.2,0.2-0.5,0.4-0.6,0.6c0,0.2,0.3,0.4,0.5,0.7C1559.3,813.6,1559.5,813.4,1559.7,813.3z
			 M1547.6,830.8c-0.2-0.2-0.4-0.6-0.6-0.6c-0.2,0-0.4,0.3-0.7,0.5c0.2,0.2,0.4,0.6,0.6,0.6C1547.2,831.2,1547.4,830.9,1547.6,830.8
			z"/>
		<path class="st12" d="M580.1,779.6c0,11.2,0,21.3,0,32.5c-2.7,0.1-5.5,0.4-8.2,0.4c-37.8,0-75.6,0-113.5,0
			c-16.1,0-22.9-6.7-23-22.6c0-6.7-0.2-13.4,0.1-20c0.5-10.5,8-18.2,18.4-18.3c41.3-0.2,82.6,0,123.9,0.1c0.5,0,1,0.4,2.1,0.8
			c0,3.2,0,6.6,0,11.4c-2.9,0-6,0-9,0c-34.6,0-69.2,0-103.9,0c-2.3,0-5.4-0.8-6.8,0.3c-2.9,2.4-5,5.9-7.4,8.9
			c2.8,2.2,5.4,5.7,8.6,6.4c5,1.1,10.4,0.3,15.6,0.3C511.1,779.6,545.1,779.6,580.1,779.6z M578.8,794.5c-5.3-3.7-8.3-7.4-11.1-7.3
			c-2.6,0.1-7.2,4.6-7,6.7c0.3,2.8,4.1,7,7,7.4C570.2,801.8,573.4,798,578.8,794.5z M528.4,805.4c3.2-5.4,6.6-8.6,6.3-11.5
			c-0.3-2.5-4.6-4.6-7.1-6.9c-2.4,2.8-6.2,5.3-6.8,8.4C520.4,797.5,524.5,800.5,528.4,805.4z M517.7,794.4
			c-5.1-3.5-8.1-7.1-10.9-6.9c-2.4,0.1-6.7,5-6.2,7c0.6,2.9,4.4,6.3,7.4,7C510,801.9,513,798,517.7,794.4z M547.8,805.2
			c3.2-5.2,6.9-8.5,6.3-10.7c-0.8-2.9-4.9-4.9-7.6-7.3c-2.1,2.6-5.7,5.2-5.8,7.9C540.5,797.7,544.2,800.4,547.8,805.2z"/>
		<path class="st13" d="M579.8,683.6c-29.9,0-59.3,0-88.6,0c-9.3,0-18.6,0-27.9,0c-5.8,0-10.7,1.2-10.5,8.4
			c0.2,6.8,5.2,7.5,10.5,7.5c36.9,0,73.8,0,110.7,0c1.7,0,3.4,0.2,5.8,0.3c0,10.5,0,20.8,0,32.2c-2.5,0.1-5.2,0.4-8,0.4
			c-37.5,0-75,0.1-112.5,0c-17.3,0-23.9-6.6-23.9-23.6c0-6.7-0.3-13.4,0.2-20c0.6-9.7,7.7-17.4,17.3-17.5
			c42.1-0.3,84.2-0.1,126.9-0.1C579.8,675.2,579.8,678.8,579.8,683.6z M527.5,725.3c3.6-5.3,7.2-8.2,7.2-11.1c0-2.5-4.6-7.5-6.1-7.1
			c-3.2,0.8-7.4,4-8.1,6.9C520,716.4,523.9,719.8,527.5,725.3z M567.4,725.2c3.7-5.2,7.7-8.2,7.4-10.8c-0.3-2.8-4.3-6.8-7.2-7.2
			c-2.1-0.3-6.8,4.1-7,6.7C560.4,716.6,563.9,719.7,567.4,725.2z M507.7,703.7c-3.6,4.8-7.5,7.8-7.1,10c0.6,3,4.4,5.4,6.9,8
			c2.3-2.5,6.2-4.7,6.5-7.4C514.3,711.7,510.9,708.7,507.7,703.7z M557.8,714.2c-4.8-3.5-7.6-7.1-10.1-6.9c-2.6,0.2-7.3,4.6-6.9,6.3
			c0.6,3,4,6.8,6.9,7.5C549.8,721.7,552.9,717.7,557.8,714.2z"/>
		<path class="st14" d="M580,832.6c0,3.5,0,7.1,0,11.7c-3.6,0-6.7,0-9.8,0c-34.3,0-68.7,0-103,0c-2.9,0-6.2-0.5-8.6,0.7
			c-2.4,1.2-5.4,4.3-5.4,6.6c0.1,2.7,2.5,6.4,4.9,7.7c2.8,1.5,6.8,1.2,10.2,1.2c33.7,0.1,67.5,0,101.2,0c3.2,0,6.4,0,10.2,0
			c0,10.8,0,21.1,0,32c-2.9,0.2-5.7,0.5-8.5,0.5c-36.9,0-73.9,0.1-110.8,0c-18.9,0-25-6.3-25.1-25.1c0-5.8-0.2-11.6,0.1-17.4
			c0.4-10.4,7.7-18.8,17.9-18.9c41.6-0.3,83.2,0,124.8,0C578.7,831.8,579.2,832.2,580,832.6z M528.6,864.6c-4,4.9-7.8,7.5-7.9,10.2
			c-0.1,2.3,4.4,7,6.4,6.7c2.9-0.4,6.6-3.8,7.6-6.7C535.3,872.9,531.8,869.6,528.6,864.6z M578.5,875.2c-5-3.5-7.8-6.9-10.4-6.8
			c-2.8,0.1-5.4,3.7-8,5.8c2.5,2.6,4.7,6.6,7.7,7.4C570,882.2,573.3,878.5,578.5,875.2z M517.8,874.8c-5-3.3-7.8-6.6-10.3-6.4
			c-2.6,0.3-4.9,3.9-7.3,6.1c2.5,2.5,4.7,6.3,7.7,7.1C509.7,882.1,512.9,878.3,517.8,874.8z M557.8,875.2c-4.8-3.5-7.5-6.9-10-6.8
			c-2.6,0.1-5,3.8-7.5,5.9c2.4,2.6,4.4,6.6,7.2,7.3C549.6,882.2,552.8,878.5,557.8,875.2z"/>
		<path class="st15" d="M797.1,668.4c-7.9,0-14.6,0-21.2,0c-51.4,0-102.9,0-154.3,0c-2.6,0-5.8,0.8-7.7-0.3c-3.3-2-8.1-5.1-8.2-7.9
			c-0.1-3,4.1-6.7,7.2-9c1.7-1.3,5.1-0.5,7.7-0.5c49.7,0,99.4,0.6,149.1-0.4C783.8,649.9,790.8,656,797.1,668.4z"/>
		<path class="st16" d="M938.5,908.3c-0.1-0.5-0.1-0.9-0.1-1.4c17.6,0,35.3,0.1,52.9-0.2c8.3-0.1,13.3-5,13.7-12.6
			c0.5-7.9-4.4-13.8-12.6-14.9c-4-0.5-8.1-0.4-12.1-0.5c0-0.6,0-1.2,0-1.8c9.9-0.1,19.7,0.1,29.6-0.5c9-0.5,14.4-6.5,14.1-14.5
			c-0.2-8-5.9-13.1-15-13.3c-7.8-0.2-15.6-0.3-23.5-0.4c0-0.8,0-1.6,0-2.5c10.2-0.1,20.3-0.4,30.5-0.2c7.9,0.1,13.9-2.7,16-10.6
			c2-7.8-1.6-13.5-8.9-16.8c-0.7-0.3-1.2-1-1.9-1.6c5.8-3.4,11.5-6.7,18.2-10.6c0,25.7-0.4,50.2,0.2,74.8c0.2,9.1,2.6,18.2,4.2,27.9
			c0.4-0.1-1.5,0.5-3.4,0.5c-32,0.1-63.9,0.1-95.9,0.1C942.5,909.2,940.5,908.6,938.5,908.3z"/>
		<path class="st8" d="M965.7,841.9c-16,0-32,0.1-48,0c-7.5,0-14.2-5.1-13.4-10.5c1.1-7.1,6.2-10.2,13.1-10.2
			c32.6-0.1,65.1-0.1,97.7,0c7.8,0,14.4,5.2,13.4,10.7c-1.4,7.3-6.4,10.2-14,10.1C998.2,841.7,982,841.9,965.7,841.9z"/>
		<path class="st2" d="M1492,833.3c-2.6,13.9-5.1,27.8-7.5,40.9c-19.7-19.1-29.8-75.5-16-96.5c16.6,4.3,29.3,14,38.4,28.5
			c0.9,1.4,1.1,4.2,0.3,5.4C1502.4,819,1497.1,826.1,1492,833.3c-0.3-4.2-0.5-8.5-0.7-13c-1.1,1-1.9,1.7-2.7,2.4
			c-1.8-4.6-3.6-9.2-5.4-13.7c-0.1-0.9-0.2-1.8,0-0.3c-0.8-1.2-0.3-0.5,0.2,0.2c-2.2,6,0,10.6,4.6,14.4
			C1489.2,826.6,1490.6,829.9,1492,833.3z M1481.2,787.3c-3.6,13.5-5.1,0.1-9.9,3c3,4.3,5.9,8.4,9.9,14
			C1481.2,798.2,1481.2,794,1481.2,787.3z M1496.3,806.3c-0.2,0.5-0.5,1-0.6,1.5c0,0.1,0.4,0.4,0.6,0.6c0.2-0.5,0.5-1,0.6-1.5
			C1496.9,806.8,1496.5,806.5,1496.3,806.3z M1468.7,790.6c-0.2-0.2-0.4-0.6-0.6-0.6c-0.5,0.1-1,0.3-1.5,0.5
			c0.2,0.2,0.4,0.6,0.6,0.6C1467.7,791,1468.2,790.8,1468.7,790.6z M1493.4,816c-0.2-0.4-0.3-0.9-0.5-1.3c-0.2,0.1-0.5,0.2-0.5,0.4
			c-0.1,0.4,0,0.9,0,1.3C1492.7,816.3,1493,816.2,1493.4,816z M1479.4,813.2c-0.2-0.2-0.3-0.4-0.5-0.5c-0.2,0-0.4,0.2-0.5,0.4
			c0.2,0.2,0.3,0.4,0.5,0.5C1479,813.6,1479.2,813.4,1479.4,813.2z M1495,811.5c-0.1-0.2-0.2-0.3-0.4-0.5c-0.2,0.2-0.4,0.3-0.5,0.5
			c0,0.2,0.2,0.4,0.4,0.6C1494.6,811.8,1494.8,811.6,1495,811.5z"/>
		<path class="st2" d="M462.2,747.2c0-3.8,0-6.9,0-10.6c39.2,0,78,0,117.9,0c0.1,3.3,0.3,6.6,0.5,10.6
			C541,747.2,502,747.2,462.2,747.2z"/>
		<path class="st2" d="M462.2,827.3c0-3.8,0-6.9,0-10.6c39.2,0,78,0,117.9,0c0.1,3.3,0.3,6.6,0.5,10.6
			C541,827.3,502,827.3,462.2,827.3z"/>
		<path class="st12" d="M1347.1,647.1c5.6-3.1,10.4-5.5,14.9-8.4c6.7-4.1,12.7-3.5,14.8,3.6c3.3,10.9,4.7,22.4,6.3,33.8
			c0.2,1.4-2.8,4.1-4.8,4.8c-15.2,5.4-29.8-4.2-31.2-20.4C1346.8,655.9,1347.1,651.3,1347.1,647.1z"/>
		<path class="st8" d="M519.3,847.4c18,0,36-0.2,54,0.2c2.4,0.1,4.8,3.1,7.2,4.8c-2.3,1.7-4.7,4.9-7,4.9
			c-35.7,0.3-71.4,0.2-107.1,0.2c-1.2,0-2.6,0.3-3.4-0.2c-2.2-1.4-4.1-3.3-6.1-5c2.3-1.6,4.5-4.6,6.8-4.7
			C482.1,847.2,500.7,847.4,519.3,847.4z"/>
		<path class="st8" d="M518.7,775.8c-18,0-36.1,0.1-54.1-0.1c-2.6,0-5.2-2.1-7.8-3.2c2.5-1.7,4.9-4.9,7.4-4.9
			c36.6-0.3,73.3-0.3,109.9,0c2.1,0,4.1,2.5,6.2,3.9c-2.2,1.5-4.4,4.2-6.7,4.3C555.4,775.9,537.1,775.8,518.7,775.8z"/>
		<path class="st8" d="M518.8,695.6c-18,0-36,0.2-54-0.2c-2.7-0.1-5.3-2.8-7.9-4.3c2.5-1.3,5-3.8,7.5-3.8c36.3-0.3,72.6-0.3,108.9,0
			c2.4,0,4.7,2.6,7,3.9c-2.5,1.5-5,4.2-7.6,4.3C554.8,695.8,536.8,695.6,518.8,695.6z"/>
		<path class="st15" d="M1340.8,908.7c-16.4,0-33.2,0-50.2,0c9-9.2,17.7-18.1,26-26.7C1324.9,891.2,1332.9,900,1340.8,908.7z"/>
		<path class="st7" d="M1176.9,909.7c-1.5-7.1,1.6-9.9,7.1-9.9c20-0.2,40-0.2,59.9,0.2c1.7,0,4.2,3,4.8,5.1c0.3,1.1-2.8,4.5-4.3,4.5
			C1221.9,909.8,1199.4,909.7,1176.9,909.7z"/>
		<path class="st16" d="M1349.2,787.7c8.2,9.2,5.1,25.8-7.2,40.6c-7.4-4.8-14.9-9.6-23.2-14.9
			C1329.1,804.6,1338.9,796.4,1349.2,787.7z"/>
		<path class="st2" d="M1245,895.7c-19.2,0-38.4,0-57.6,0c8.5-9.4,20.8-12.4,31.7-13.2c8.8-0.6,18,6.3,27.1,9.9
			C1245.8,893.5,1245.4,894.6,1245,895.7z"/>
		<path class="st2" d="M1492.5,513.5c0.2,6.6-4.6,11.7-11.1,12c-6.6,0.2-11.8-4.5-12.2-10.9c-0.4-6.7,4.8-12.3,11.6-12.4
			C1487.2,502,1492.3,506.9,1492.5,513.5z"/>
		<path class="st8" d="M1449,740.2c-18.9,7.3-48.4-20.6-48-38.9C1411.3,721.4,1424.3,738,1449,740.2z"/>
		<path class="st15" d="M1070.4,715c18.5,0,35.5,0,52.6,0C1118.9,721.2,1078.9,722,1070.4,715z"/>
		<path class="st16" d="M1260.6,714.9c-3.4,4.6-5.8,7.9-8.4,11.3c-9.4-1.7-19.6-3.5-29.8-5.2c0.1-0.5,0.2-1,0.2-1.5
			C1235.3,717.9,1247.9,716.4,1260.6,714.9z"/>
		<path class="st8" d="M1393.7,667c1.2,6.8,2.4,13.5,3.6,20.3c-1.1,0.2-2.1,0.4-3.2,0.6c-1.3-6.8-2.6-13.5-3.8-20.3
			C1391.4,667.3,1392.5,667.2,1393.7,667z"/>
		<path class="st13" d="M1496.1,884.5c-0.8-0.3-1.6-0.5-2.4-0.8c0,0-0.1,0.1-0.1,0.1c0.6,0,1.2,0,1.8,0
			C1495.7,884,1495.9,884.2,1496.1,884.5z"/>
		<path class="st17" d="M1205.9,686.2c0-7.5,0-14.9,0-23c12.8,0,24.8,0,38.3,0c0,7.4,0,15.1,0,22.7
			C1231.4,686,1218.6,686.1,1205.9,686.2z"/>
		<path class="st7" d="M1206.1,606.5c7.1,6.4,13.7,12.3,20.8,18.7c-2.1,2.5-3.7,4.5-5.4,6.4c-14.8,16.4-14.7,16.3-30.2,0
			c-3.1-3.2-3.4-5.5-0.3-8.7C1195.8,618,1200.4,612.7,1206.1,606.5z"/>
		<path class="st18" d="M1205.9,686.2c12.8-0.1,25.5-0.2,38.3-0.3c9.5-1.2,19-2.4,28.6-3.6c0-1.2,0.1-2.3,0.1-3.5
			c-8.1-1.8-16.1-3.6-25-5.6c6.6-2.9,24.7-0.5,28.5,3.5c4.1,4.3,1,7.3-3,8.3c-9.6,2.3-19.3,3.7-29,5.5c-12.9,0-25.7,0-38.6-0.1
			c-8.3-1.3-16.8-2-24.9-4c-3.4-0.8-6.1-4.3-9.1-6.6c2.9-2.1,5.4-5.1,8.6-5.9c6.8-1.8,13.9-2.5,20.8-3.6c0.2,1,0.4,1.9,0.6,2.9
			c-8.2,1.8-16.4,3.6-24.6,5.4c0,1.1-0.1,2.3-0.1,3.4C1186.6,683.5,1196.3,684.8,1205.9,686.2z"/>
		<path class="st17" d="M1205.8,690.5c12.9,0,25.7,0,38.6,0.1c-0.1,3.1-0.3,6.3-0.5,10.5c-6.3,0-12.3,0-18.3,0c-6.1,0-12.1,0-19,0
			C1206.2,697.2,1206,693.9,1205.8,690.5z"/>
		<path class="st8" d="M1238.9,647.3c6.2-17.1,7.1-17.4,22.6-7.4c-2.7,4.4-4.6,11.4-8.4,12.7
			C1249.3,653.9,1243.6,649.3,1238.9,647.3z M1247.2,636.4c-1,3.5-2.4,6.4-2.2,9.1c0.1,1.1,4.3,3.2,5.6,2.6c2.4-1.2,3.9-4,6.4-6.8
			C1253.3,639.4,1250.8,638.2,1247.2,636.4z"/>
		<path class="st0" d="M231.9,336.7c37.8,0,65.1,28.2,66.1,66c1,36.8-33.3,67-65.5,66.6c-38.1-0.5-67.3-29.5-67.7-67.3
			C164.6,367.9,195.4,334.3,231.9,336.7z"/>
		<path class="st0" d="M1884.7,677.9c-1.6,36.9-29.6,66.5-67.5,65.6c-40-1-65.5-28.6-66.2-66.8c-0.7-37.4,30-66.5,67.4-66.4
			C1854.8,610.3,1884.9,641,1884.7,677.9z"/>
		<path class="st9" d="M1566.7,396.4c-19,0-33-14-33.1-32.9c-0.1-19.4,14.1-33.8,33.3-33.8c18.5,0,33.5,15.3,33.4,34.1
			C1600.1,382.4,1585.7,396.4,1566.7,396.4z"/>
		<path class="st9" d="M568.2,304.9c-0.3,18.2-16.6,34-34.6,33.3c-18-0.6-33.6-17.1-33.2-35c0.4-17.7,16.4-32.9,34.4-32.6
			C553.5,271,568.5,286.3,568.2,304.9z"/>
		<path class="st9" d="M370.5,613.7c19.9,0.1,35.8,16.3,35.5,36.2c-0.2,18.9-17.3,35.4-36.2,35c-19-0.4-35.7-17.5-35.3-36.1
			C334.8,629.5,351.1,613.6,370.5,613.7z"/>
		<path class="st13" d="M1645.6,562.1c-0.1,6.1-5.5,11.4-11.7,11.5c-6.8,0-11.9-5.4-11.6-12.3c0.3-6.4,5.5-11.2,12-11
			C1640.7,550.5,1645.7,555.8,1645.6,562.1z"/>
		<path class="st7" d="M1283.2,197.4c6.4-0.1,11.6,5.2,11.7,11.6c0,6.6-4.9,11.5-11.5,11.6c-6.8,0-11.5-4.6-11.6-11.4
			C1271.8,202.5,1276.7,197.4,1283.2,197.4z"/>
		<path class="st2" d="M227.8,702.9c0.1,6.1-5.4,11.8-11.5,11.9c-6.6,0.1-12.5-5.6-12.4-12c0.1-6.2,5.6-11.3,12.1-11.3
			C222.4,691.4,227.7,696.5,227.8,702.9z"/>
		<path class="st7" d="M402.8,208.3c6.3,0,11.6,5.3,11.8,11.6c0.1,6.5-5.8,12.4-12.2,12.2c-5.9-0.2-11.7-6.3-11.5-12.1
			C391,213.9,396.8,208.3,402.8,208.3z"/>
		<path class="st2" d="M1566.5,208.3c6.4-0.1,12.4,5.7,12.3,12c-0.1,6-5.7,11.6-11.7,11.7c-6.3,0.1-12.3-5.7-12.2-12.1
			C1554.9,213.9,1560.5,208.4,1566.5,208.3z"/>
		<path class="st18" d="M876.9,587.5c-18.9-5.1-38-9.8-56.7-15.7c-7.2-2.3-14.2-6.7-20.1-11.7c-7.9-6.6-7.7-16.1,0.8-22.4
			c7.3-5.4,15.8-10.1,24.4-12.8c17-5.3,34.5-9.1,52.2-13.6c-6.1-9.2-13.1-18.1-18.1-28.1c-6.7-13.3-13.1-27.1-17.1-41.4
			c-3.7-13,5.1-21.9,18-18.3c14.1,3.9,28.5,8.9,40.6,16.7c21.4,13.8,41.2,30,61.7,45.3c1.8,1.4,3.5,2.9,4.8,4
			c19.2-14.4,37.6-29,56.8-42.4c10.6-7.4,22.5-13.2,34.2-18.9c5.9-2.8,12.6-4.4,19.2-5.3c11.1-1.5,18.2,5.2,17.1,16.3
			c-0.7,7.1-2.4,14.5-5.6,20.8c-7.2,14.1-15.7,27.7-23.7,41.4c-2,3.4-4.5,6.6-6.9,10.1c16.3,3.9,32.1,7.3,47.6,11.6
			c7.7,2.2,15.4,5.4,22.4,9.3c17.6,9.9,18.1,24.1,0.3,33.2c-12.7,6.5-26.9,10.5-40.7,14.7c-9.4,2.8-19.2,3.9-29.6,6
			c6.8,10.5,14.2,20.2,19.7,30.9c6.3,12.2,12.4,25,15.9,38.2c3.9,14.6-5,23.8-19.3,19.3c-16.6-5.2-33.2-12.5-47.9-21.8
			c-20.5-13-39.3-28.7-59.4-43.7c-9.9,8-20.1,17.6-31.6,25.3c-18.5,12.4-37.5,24.1-56.8,35.2c-6.1,3.5-13.7,5-20.8,5.7
			c-11.6,1.3-19-6.2-16.5-17.5c2.3-10.6,5.9-21.3,10.9-30.9C859.9,613.4,868.9,600.5,876.9,587.5z M971.9,606.3
			c4.6,3.9,9.1,8,13.8,11.8c24.2,19.5,48.6,38.8,77.9,50.3c7.7,3,16.9,7.1,23.9,0.6c7.5-7,3.7-16.9-0.2-24.3
			c-9.8-18.3-20.7-36.1-31.7-53.7c-1.3-2.1-5.8-3.3-8.7-3.1c-14.8,0.8-29.5,3.3-44.3,3.1C989.6,590.7,979.6,594.6,971.9,606.3z
			 M970.2,493.9c7.4,4.8,13.3,11.6,20.1,12.6c18.6,2.8,37.6,3.4,56.4,4.3c3.3,0.2,8.2-1.7,9.9-4.2c9.6-14.5,19.1-29.1,27.3-44.3
			c3.8-6.9,5.7-15.2,6.7-23.1c1.2-9-3.5-13.4-12.5-12.1c-7.9,1.2-15.9,3.6-23.1,7C1024,448.6,997.8,470.3,970.2,493.9z M966.3,604.8
			c-7.6-4.9-13.5-11.7-20.3-12.7c-18.9-2.8-38.1-3.3-57.3-4.3c-2.8-0.1-7.1,1.5-8.5,3.7c-10.1,15.8-20.1,31.8-29.1,48.3
			c-3.3,6.1-4.7,13.7-5.5,20.8c-0.9,7.3,3.6,12.2,11,11c8.5-1.3,17.2-3.3,24.9-7C912.5,650.1,938.7,628.6,966.3,604.8z M964.7,492.6
			c-5.7-4.8-10.9-9.5-16.3-13.8c-23.6-18.9-47.4-37.4-75.9-48.5c-7.7-3-16.8-7.1-23.8-0.3c-7.1,6.9-3.6,16.5,0.2,23.6
			c9.9,18.6,21,36.6,32,54.5c1.2,1.9,5.4,3.1,8,2.9c15.3-0.9,30.7-3.5,46-3.2C948.1,508.1,957,503.1,964.7,492.6z M908.7,549.4
			c-8.5-10.4-16.6-20.6-25-30.5c-1.2-1.4-4.1-2.8-5.8-2.3c-20.8,5.2-41.6,10.1-62,16.4c-7.6,2.4-17,6.4-16.9,16.5
			c0.1,10,9.5,14,17.1,16.4c20.1,6.3,40.7,11.1,61.2,16.1c2,0.5,5.5-1.3,7.1-3.1C892.6,569.4,900.4,559.7,908.7,549.4z
			 M1027.7,549.3c8.4,10.4,16.6,20.6,25,30.5c1.2,1.4,4.2,2.7,5.8,2.3c21.5-5.6,43.1-11,64.4-17.5c6.9-2.1,14.8-6.4,14.7-15.3
			c-0.1-8.9-8.1-13-14.9-15.2c-21-6.5-42.3-11.9-63.6-17.3c-2.1-0.5-5.8,1.8-7.6,3.9C1043.5,529.8,1035.9,539.4,1027.7,549.3z
			 M911.5,551.8c9.2,7.7,18.4,13.4,24.9,21.3c10.2,12.3,22,17.9,37.7,15.1c4.1-0.7,9.5-0.2,12.1-2.6c12.2-11.3,23.7-23.5,36.1-36
			c-8.4-8.8-17-16-23.4-24.7c-10.1-13.8-23.5-16.3-38.9-14.3c-3.6,0.5-8.2,0.5-10.5,2.7C937.7,524.6,926.4,536.6,911.5,551.8z
			 M1026.2,544.9c7.2-8.7,15.3-18.5,24.8-30.1c-21.6-1.6-40.2-3-58.8-4.4c-0.4,1-0.8,2-1.2,2.9
			C1002.5,523.7,1013.9,533.9,1026.2,544.9z M885.4,583.9c21.4,1.6,40,2.9,58.7,4.3c0.4-1,0.7-1.9,1.1-2.9
			c-11.5-10.5-22.9-21-34.6-31.8C903.1,562.5,895.2,572.1,885.4,583.9z M885.5,514.9c9.6,11.6,17.6,21.3,24.3,29.4
			c12-10.9,23.6-21.4,35.3-32c-0.3-0.6-0.6-1.3-0.9-1.9C925.5,511.8,907,513.3,885.5,514.9z M1027.7,555.6
			c-12.3,10.7-24.1,20.9-35.9,31.1c0.3,0.5,0.6,1.1,0.9,1.6c18.6-1.5,37.2-2.9,58.2-4.6C1041.5,572.3,1033.5,562.7,1027.7,555.6z
			 M979.7,506.7c-3.9-4.1-7.3-7.5-11-11.3c-4.5,4-8,7.1-12.8,11.3C964.6,506.7,971.4,506.7,979.7,506.7z M968,602.9
			c3.8-4,6.8-7.1,10.1-10.6c-6.9,0-13.3,0-22,0C961,596.7,964.3,599.6,968,602.9z"/>
		<path class="st8" d="M1162.5,536.9c-1.7-31.6-8.2-62.2-20.9-91.4C1154.3,454.5,1169.2,519,1162.5,536.9z"/>
		<path class="st8" d="M1069.5,365c-10-4.5-19.9-9-30.9-13.9C1046.4,349.1,1063.1,356,1069.5,365z"/>
		<path class="st8" d="M1082.6,369c8.1,7,16.2,14.1,24.3,21.1c-0.8,0.9-1.5,1.7-2.3,2.6c-8.2-7-16.4-13.9-24.7-20.9
			C1080.9,370.9,1081.8,370,1082.6,369z"/>
		<path class="st8" d="M1128.7,416.7c3.9,6.6,7.8,13.2,11.7,19.7c-1,0.6-2.1,1.3-3.1,1.9c-3.9-6.6-7.9-13.1-11.8-19.7
			C1126.6,418,1127.6,417.3,1128.7,416.7z"/>
		<path class="st7" d="M821,767c0.1,14.4,0.4,28.8,0.2,43.3c0,1.8-2.3,4.9-3.9,5.2c-13.7,2.1-27.4,3.7-41.2,5.4
			c-0.1-16.1-0.2-32.3-0.2-48.4C791,770.6,806,768.8,821,767z"/>
		<path class="st8" d="M776,772.4c0.1,16.1,0.2,32.3,0.2,48.4c-6.5-3.4-12.8-7.4-19.6-10c-9-3.3-10.9-9.3-10.3-18.1
			c0.8-11.5,0.4-23.1,0.6-34.6C756.6,762.9,766.3,767.6,776,772.4z"/>
		<path class="st17" d="M776,772.4c-9.7-4.7-19.4-9.5-29.2-14.2c3.1-1,6.1-2.5,9.3-3c10.2-1.7,20.5-3.1,30.8-4.4
			c2.4-0.3,5.4-0.3,7.4,0.8c9,4.9,17.8,10.3,26.7,15.5C806,768.8,791,770.6,776,772.4z"/>
		<path class="st1" d="M985.6,848.2c7.8,0.1,15.6,0.2,23.5,0.4c9.1,0.3,14.8,5.3,15,13.3c0.2,8-5.1,13.9-14.1,14.5
			c-9.8,0.6-19.7,0.4-29.6,0.5c-17.1-0.1-34.2-0.1-51.3-0.3c-9.7-0.1-16-5.1-16.7-12.9c-0.9-8.4,5.5-15,15-15.1
			C946.7,848.4,966.1,848.3,985.6,848.2z M968.2,873.1c11.3,0,22.7,0.1,34-0.1c3.7-0.1,8.1,0,10.9-1.9c3.1-2.1,7.3-7.2,6.5-9.5
			c-1.2-3.7-6.1-8.8-9.5-8.9c-27.6-0.7-55.2-0.4-82.9-0.4c-6,0-10.5,3-11,9c-0.5,5.9,3.4,9.6,9.3,10.8c2.8,0.5,5.7,0.9,8.6,0.9
			C945.5,873.2,956.9,873.1,968.2,873.1z"/>
		<path class="st1" d="M980.4,878.7c4,0.2,8.1,0,12.1,0.5c8.2,1,13,7,12.6,14.9c-0.4,7.5-5.5,12.5-13.7,12.6
			c-17.6,0.2-35.3,0.1-52.9,0.2c-8.9-4.3-12.4-9.8-10.2-17.4c2.2-7.8,8.1-10.5,15.9-10.5C956.2,879.1,968.3,878.8,980.4,878.7z
			 M967.1,902.9c7.5,0,15.1-0.1,22.6,0c7.3,0.2,11.3-3.7,11.2-10.3c-0.1-6.6-5.1-9.1-11.5-9c-15.1,0.1-30.2,0.2-45.2-0.1
			c-6.9-0.1-12,2.4-12.2,9.3c-0.3,7.6,5.5,10.1,12.4,10.1C952,902.9,959.5,902.9,967.1,902.9z"/>
		<path class="st8" d="M654.1,700.6c3.1,9.3,0.8,13.5-8.4,13.8c-9.8,0.4-19.7,0.8-29.5-0.3c-3.9-0.4-9.5-4.3-10.5-7.7
			c-1.7-5.9,3.4-10,9.2-9.9c12.5,0.2,25,1.5,37.5,2.4c-0.2,0.2-0.4,0.4-0.6,0.7c-7.5,0-15,0-21.8,0c-0.8,3.1-1.6,5.7-2.3,8.3
			c-1-2.3-1.5-5.2-3.2-6.8c-1.3-1.2-4.6-1.6-6.1-0.8c-1.5,0.8-2.8,3.7-2.7,5.6c0.1,1.8,2.4,4.9,3.5,4.9c2.9-0.2,5.7-1.8,8.5-2.9
			c4.4,7.1,11.2,2.6,16.9,3.3c6.8,0.9,10.1-2.8,8.8-9.8C653.6,701.1,653.9,700.8,654.1,700.6z"/>
		<path class="st8" d="M612.1,772.1c-2.3-3.2-6.4-6.4-6.2-9.4c0.2-2.7,5-7.1,8-7.3c11.2-0.9,22.6-0.6,33.8-0.1
			c2.1,0.1,4.1,3.1,6.2,4.8c0,0,0.1-0.1,0.1-0.1c-8.1-0.8-16.3-1.7-23.8-2.4c-1,4.1-1.6,6.8-2.3,9.4c-0.5,0.1-1,0.1-1.6,0.1
			c-0.3-3.9,0.2-8.9-5.7-8.6c-6.7,0.3-4.9,5.7-5,9.8C614.4,769.6,613.2,770.9,612.1,772.1z"/>
		<path class="st7" d="M648.7,727c7.1,4.3,7.1,6.5,0,15.6c-0.3-0.7-0.6-1.4-1-2.1c-0.3,0.7-0.5,1.5-0.8,2.2c-2.9,0-5.8,0-8.7,0
			c-0.6-0.6-1.2-1.2-1.7-1.8c-0.1-4.1-0.1-8.1-0.2-12.2c0.6-0.6,1.3-1.2,1.9-1.8c2.9,0,5.8,0,8.7,0c0.3,0.7,0.5,1.5,0.8,2.2
			C648,728.4,648.3,727.7,648.7,727z"/>
		<path class="st8" d="M643.8,856.3c-12.2,0-24.4,0-36.5,0c0-0.8,0-1.6,0-2.5c12.3,0,24.5,0,36.8,0
			C644,854.7,643.9,855.5,643.8,856.3z"/>
		<ellipse class="st8" cx="640.7" cy="874.2" rx="25.3" ry="1.7"/>
		<ellipse class="st8" cx="640.8" cy="836.9" rx="24.4" ry="1.3"/>
		<path class="st8" d="M642.4,818.7c-11.4,0-22.9,0-34.3,0c0-0.6,0-1.1,0-1.7c11.4,0,22.9,0,34.3,0
			C642.4,817.6,642.4,818.1,642.4,818.7z"/>
		<path class="st8" d="M623.5,799.2c11.5,0,22.9,0,34.4,0c0,0.6,0,1.1,0.1,1.7c-11.5,0-23,0-34.5,0
			C623.5,800.3,623.5,799.8,623.5,799.2z"/>
		<ellipse class="st8" cx="625.3" cy="892.4" rx="24.2" ry="1.2"/>
		<path class="st7" d="M629.2,884.3c-7.1,0-14.2,0-21.7,0C611,879.7,621.4,879.1,629.2,884.3z"/>
		<path class="st7" d="M607.9,844.7c7.1,0,14.2,0,21.2,0c0,0.7,0,1.3,0,2c-7.1,0-14.3,0-21.4,0C607.8,846,607.8,845.3,607.9,844.7z"
			/>
		<path class="st8" d="M658.1,884.1c-7.1,0-14.2,0-21.3,0c0-0.8-0.1-1.6-0.1-2.4c7,0,14.1,0,21.1,0
			C657.9,882.6,658,883.3,658.1,884.1z"/>
		<path class="st7" d="M652.3,864c7.2,0,14.4,0,21.6,0c0,0.7,0,1.3,0,2c-7.2,0-14.4,0-21.6,0C652.3,865.4,652.3,864.7,652.3,864z"/>
		<path class="st7" d="M636.4,740.9c0.6,0.6,1.2,1.2,1.7,1.8c-10.3,0.6-20.9,4-30.6-2.8c0.4-0.4,0.9-0.7,1.3-1.1
			C618.1,739.5,627.2,740.2,636.4,740.9z"/>
		<path class="st7" d="M638.2,726.9c-0.6,0.6-1.3,1.2-1.9,1.8c-8.6,0.1-17.1,0.3-25.7,0.4c-0.4-0.4-0.7-0.8-1.1-1.2
			C619,727.6,628.6,727.3,638.2,726.9z"/>
		<path class="st8" d="M612.1,772.1c1.2-1.3,2.3-2.5,3.5-3.8c3.6-0.4,7.2-0.8,10.8-1.2c0.5,0,1,0,1.5-0.1c1.8,1.1,3.6,3.1,5.5,3.3
			c5.6,0.5,11.3,0.2,17,0.2l0,0c-8.4,0.6-16.9,1.3-25.3,1.8C620.7,772.5,616.4,772.2,612.1,772.1z"/>
		<ellipse class="st7" cx="663.2" cy="791.6" rx="15" ry="1.1"/>
		<path class="st7" d="M628.9,810c-7,0-13.9,0-20.9,0c0-0.5,0-1,0-1.5c7,0,13.9,0,20.9,0C628.9,809,628.9,809.5,628.9,810z"/>
		<path class="st8" d="M628.5,865.9c-6.8,0-13.6,0-20.4,0c0-0.6-0.1-1.2-0.1-1.7c6.8,0,13.6,0,20.4,0
			C628.4,864.7,628.4,865.3,628.5,865.9z"/>
		<path class="st8" d="M637.4,808.1c6.7,0,13.5,0,20.2,0c0,0.5,0.1,0.9,0.1,1.4c-6.7,0-13.5,0-20.2,0
			C637.4,809,637.4,808.5,637.4,808.1z"/>
		<path class="st8" d="M608.1,827.2c6.8,0,13.6,0,20.3,0c0,0.5-0.1,1-0.1,1.5c-6.8,0-13.6,0-20.3,0
			C608,828.2,608.1,827.7,608.1,827.2z"/>
		<path class="st8" d="M657.7,846.5c-6.8,0-13.5,0-20.3,0c0-0.5,0-1-0.1-1.6c6.8,0,13.5,0,20.3,0C657.7,845.5,657.7,846,657.7,846.5
			z"/>
		<ellipse class="st8" cx="675.6" cy="845.6" rx="14.4" ry="1.3"/>
		<path class="st8" d="M608.2,790.5c6.8,0,13.5,0,20.3,0c0,0.6,0,1.1,0,1.7c-6.8,0-13.5,0-20.3,0
			C608.2,791.6,608.2,791.1,608.2,790.5z"/>
		<path class="st7" d="M607.6,739.9c0-3.5,0-6.9,0-10.4c0.4,0.4,0.8,0.8,1.2,1.2c0,2.7,0,5.4,0.1,8
			C608.5,739.2,608.1,739.6,607.6,739.9z"/>
		<path class="st19" d="M653.9,760.1c0,2.9,0,5.8,0,8.6l0.1,0.1C653.9,765.9,653.9,763,653.9,760.1L653.9,760.1z"/>
		<path class="st19" d="M653.9,768.8c-1.2,0.6-2.3,1.2-3.5,1.8c0,0,0,0,0,0C651.6,770,652.7,769.4,653.9,768.8L653.9,768.8z"/>
		<path class="st20" d="M648.7,727c-0.3,0.7-0.6,1.4-0.9,2.1c-0.3-0.7-0.5-1.5-0.8-2.2C647.5,727,648.1,727,648.7,727z"/>
		<path class="st20" d="M646.9,742.7c0.3-0.7,0.5-1.5,0.8-2.2c0.3,0.7,0.6,1.4,1,2.1C648.1,742.6,647.5,742.7,646.9,742.7z"/>
		<path class="st21" d="M652.3,698.9c0.6,0.6,1.2,1.2,1.8,1.7c-0.2,0.2-0.5,0.4-0.7,0.6c-0.5-0.6-1.1-1.1-1.6-1.7
			C651.9,699.3,652.1,699.1,652.3,698.9z"/>
		<path class="st20" d="M607.6,729.6c0.6-0.5,1.2-1.1,1.9-1.6c0.4,0.4,0.7,0.8,1.1,1.2c-0.6,0.5-1.2,1.1-1.8,1.6
			C608.4,730.4,608,730,607.6,729.6z"/>
		<path class="st7" d="M1097.2,894.9c-6.4,0-12.7,0.4-19-0.2c-2.3-0.2-4.4-2.5-6.6-3.9c2-1.6,3.9-4.5,6-4.5
			c13.3-0.4,26.6-0.4,39.9,0c2,0.1,3.8,2.6,5.8,4c-2,1.5-3.9,4.2-6,4.4C1110.6,895.2,1103.9,894.8,1097.2,894.9z"/>
		<path class="st7" d="M1108.4,779.5c-5.1,13.7-8.4,27.7-16.7,39.5C1090.5,803.8,1101.3,779.7,1108.4,779.5z"/>
		<path class="st7" d="M1109.8,789.3c5.6,2,11.4,3.5,16.7,6.2c4.6,2.4,4.3,6-0.5,8.1c-5.2,2.3-10.7,4.1-17.2,6.5
			c-1-9,7.7-6.7,10.2-10.6c-3.6-2.3-7.4-4.7-11.1-7.1C1108.5,791.4,1109.1,790.4,1109.8,789.3z"/>
		<path class="st7" d="M1086.6,809.6c-5.1-1.9-10.2-3.6-15.2-5.8c-1.5-0.7-3.6-2.8-3.5-3.9c0.2-1.8,1.9-4.1,3.5-4.8
			c4.9-2.3,10-3.9,15.1-5.8c0.6,0.9,1.2,1.8,1.8,2.7c-3.5,2.5-6.9,5.1-10.3,7.6c3.1,2.1,7,4.6,10.8,7.2
			C1088,807.7,1087.3,808.7,1086.6,809.6z"/>
		<path class="st8" d="M1422.5,793.8c7.6,13.3,1.7,48-11,56.3C1423,831.3,1422.2,812.5,1422.5,793.8z"/>
		<path class="st8" d="M1495.4,883.8c-0.6,0-1.2,0-1.8,0c1.7-7.8,3.4-15.5,5.7-25.9c0.8,4.9,1.2,7.3,1.8,11.1c2.5-2,4.4-3.6,6.2-5.1
			c0.6,0.7,1.1,1.4,1.7,2.2c-0.3,0.4-0.6,0.7-1,1.1c0.6,0,1.3-0.1,1.9-0.1c2.8-0.3,5.6-0.6,8.4-0.8
			C1509.2,870.4,1499.4,873,1495.4,883.8z"/>
		<path class="st8" d="M1597.1,800.5c-0.8,1.5-1.7,3-2.5,4.5c-0.3,0.4-0.6,0.8-0.9,1.1c0.6,0,1.3,0,1.9-0.1c5.8-1.3,11.6-2.7,17.4-4
			c0.2,0.8,0.4,1.5,0.6,2.3c-11.1,3.4-22.2,6.7-35,10.6c6.8-6,12.1-10.7,17.4-15.4C1596.4,799.9,1596.7,800.2,1597.1,800.5z"/>
		<path class="st8" d="M1548.9,828.3c1.9-2.8,3.8-5.6,5.8-8.4c0.3,0.7,0.7,1.5,1,2.2c5.7-2,11.4-4,17.3-6.1
			c-3.6,12.1-16.6,7.2-22.7,14.3C1549.8,829.7,1549.4,829,1548.9,828.3z"/>
		<path class="st8" d="M1518.9,851.6c3.1-9.5,10.6-10.4,19.1-9.8c5,0.4,10.1,0.1,15.3,1.4c-12.5-1.3-23.7,0.8-33.1,9.6
			C1519.8,852.4,1519.3,852,1518.9,851.6z"/>
		<path class="st8" d="M1559.6,809.5c1.3-3.6,2.7-7.1,4-10.7c0.7,0.2,1.3,0.5,2,0.7c-1.3,3.5-2.6,7-3.8,10.6
			C1561.1,809.8,1560.4,809.7,1559.6,809.5z"/>
		<path class="st8" d="M1606.6,810.4c1.7,0.7,3.4,1.4,5.1,2.1c-0.2,0.5-0.3,0.9-0.5,1.4c-1.8-0.6-3.5-1.2-5.3-1.8
			C1606.1,811.6,1606.3,811,1606.6,810.4z"/>
		<path class="st8" d="M1596.1,799.6c0.7-1,1.4-2,2.1-2.9c0.4,0.2,0.8,0.5,1.2,0.7c-0.8,1-1.5,2-2.3,3.1
			C1596.7,800.2,1596.4,799.9,1596.1,799.6z"/>
		<path class="st8" d="M1520.2,852.8c-0.6,0.3-1.2,0.5-1.8,0.8c0.1-0.7,0.3-1.3,0.4-2C1519.3,852,1519.8,852.4,1520.2,852.8z"/>
		<path class="st8" d="M1557.4,816.1c0.2,0.2,0.5,0.4,0.5,0.6c0,0.2-0.4,0.4-0.6,0.6c-0.2-0.2-0.5-0.4-0.5-0.6
			C1556.9,816.5,1557.2,816.3,1557.4,816.1z"/>
		<path class="st8" d="M1577.2,815c-0.2,0.2-0.4,0.5-0.6,0.5c-0.2,0-0.4-0.3-0.6-0.5c0.2-0.2,0.4-0.5,0.6-0.5S1577,814.8,1577.2,815
			z"/>
		<path class="st8" d="M1559.7,813.3c-0.2,0.2-0.4,0.4-0.6,0.6c-0.2-0.2-0.5-0.4-0.5-0.7c0-0.2,0.4-0.4,0.6-0.6
			C1559.4,812.8,1559.5,813,1559.7,813.3z"/>
		<path class="st8" d="M1547.6,830.8c-0.2,0.2-0.5,0.5-0.7,0.5c-0.2,0-0.4-0.4-0.6-0.6c0.2-0.2,0.5-0.5,0.7-0.5
			C1547.3,830.2,1547.5,830.6,1547.6,830.8z"/>
		<path class="st8" d="M578.8,794.5c-5.4,3.5-8.6,7.3-11.2,6.9c-2.8-0.4-6.7-4.6-7-7.4c-0.2-2.2,4.4-6.6,7-6.7
			C570.5,787.1,573.5,790.8,578.8,794.5z"/>
		<path class="st7" d="M528.4,805.4c-3.9-4.9-8-7.9-7.6-10c0.5-3.1,4.4-5.6,6.8-8.4c2.5,2.3,6.8,4.4,7.1,6.9
			C535,796.7,531.6,799.9,528.4,805.4z"/>
		<path class="st8" d="M517.7,794.4c-4.7,3.6-7.8,7.5-9.7,7.1c-3-0.7-6.7-4.1-7.4-7c-0.4-2,3.9-6.8,6.2-7
			C509.6,787.3,512.6,790.9,517.7,794.4z"/>
		<path class="st7" d="M547.8,805.2c-3.6-4.8-7.3-7.5-7.2-10.1c0.1-2.7,3.7-5.3,5.8-7.9c2.7,2.4,6.8,4.4,7.6,7.3
			C554.7,796.7,551,800,547.8,805.2z"/>
		<path class="st8" d="M527.5,725.3c-3.6-5.5-7.5-8.9-7-11.4c0.6-2.9,4.8-6.1,8.1-6.9c1.5-0.4,6.1,4.6,6.1,7.1
			C534.7,717.1,531.1,720,527.5,725.3z"/>
		<path class="st8" d="M567.4,725.2c-3.4-5.4-7-8.6-6.8-11.4c0.2-2.6,4.9-7,7-6.7c2.9,0.4,6.9,4.4,7.2,7.2
			C575.1,716.9,571.1,720,567.4,725.2z"/>
		<path class="st7" d="M507.7,703.7c3.2,5,6.6,8,6.3,10.6c-0.3,2.7-4.2,5-6.5,7.4c-2.5-2.6-6.3-5-6.9-8
			C500.1,711.4,504.1,708.4,507.7,703.7z"/>
		<path class="st7" d="M557.8,714.2c-4.8,3.5-8,7.4-10.1,6.9c-2.9-0.7-6.3-4.5-6.9-7.5c-0.3-1.7,4.3-6.1,6.9-6.3
			C550.1,707.1,552.9,710.8,557.8,714.2z"/>
		<path class="st8" d="M528.6,864.6c3.1,5.1,6.7,8.4,6,10.3c-1,2.9-4.6,6.3-7.6,6.7c-1.9,0.3-6.5-4.4-6.4-6.7
			C520.8,872,524.6,869.4,528.6,864.6z"/>
		<path class="st8" d="M578.5,875.2c-5.2,3.3-8.5,6.9-10.7,6.4c-3-0.7-5.2-4.8-7.7-7.4c2.7-2.1,5.3-5.7,8-5.8
			C570.8,868.3,573.6,871.8,578.5,875.2z"/>
		<path class="st8" d="M517.8,874.8c-4.9,3.5-8,7.3-9.9,6.8c-3-0.8-5.1-4.6-7.7-7.1c2.4-2.2,4.7-5.8,7.3-6.1
			C509.9,868.2,512.7,871.5,517.8,874.8z"/>
		<path class="st7" d="M557.8,875.2c-5,3.3-8.2,7-10.3,6.4c-2.8-0.7-4.8-4.7-7.2-7.3c2.5-2.1,4.9-5.8,7.5-5.9
			C550.3,868.2,553,871.7,557.8,875.2z"/>
		<path class="st8" d="M1481.2,787.3c0,6.7,0,10.9,0,17c-4-5.6-6.9-9.8-9.9-14C1476.1,787.4,1477.5,800.7,1481.2,787.3z"/>
		<path class="st8" d="M1487.8,823.3c-4.6-3.9-6.7-8.5-4.5-14.4l-0.1,0.1c1.8,4.6,3.6,9.2,5.4,13.7
			C1488.3,822.9,1488.1,823.1,1487.8,823.3z"/>
		<path class="st8" d="M1488.5,822.7c0.8-0.7,1.6-1.4,2.7-2.4c0.2,4.5,0.5,8.8,0.7,13c0,0,0.1-0.1,0.1-0.1c-1.4-3.3-2.8-6.7-4.2-10
			C1488.1,823.1,1488.3,822.9,1488.5,822.7z"/>
		<path class="st8" d="M1496.3,806.3c0.2,0.2,0.6,0.5,0.6,0.6c-0.1,0.5-0.4,1-0.6,1.5c-0.2-0.2-0.6-0.5-0.6-0.6
			C1495.8,807.3,1496.1,806.8,1496.3,806.3z"/>
		<path class="st20" d="M1483.2,808.8c-0.5-0.7-1-1.4-0.2-0.2c-0.1-1.4-0.1-0.5,0,0.3C1483.1,808.9,1483.2,808.8,1483.2,808.8z"/>
		<path class="st8" d="M1468.7,790.6c-0.5,0.2-1,0.4-1.5,0.5c-0.2,0-0.4-0.4-0.6-0.6c0.5-0.2,1-0.4,1.5-0.5
			C1468.3,790,1468.5,790.4,1468.7,790.6z"/>
		<path class="st8" d="M1493.4,816c-0.3,0.1-0.7,0.3-1,0.4c0-0.4-0.1-0.9,0-1.3c0-0.1,0.3-0.2,0.5-0.4
			C1493.1,815.1,1493.2,815.6,1493.4,816z"/>
		<path class="st8" d="M1479.4,813.2c-0.2,0.1-0.4,0.4-0.5,0.4c-0.2,0-0.3-0.3-0.5-0.5c0.2-0.1,0.4-0.4,0.5-0.4
			C1479.1,812.8,1479.3,813.1,1479.4,813.2z"/>
		<path class="st8" d="M1495,811.5c-0.2,0.2-0.3,0.3-0.5,0.5c-0.1-0.2-0.4-0.4-0.4-0.6c0-0.2,0.3-0.3,0.5-0.5
			C1494.7,811.1,1494.8,811.3,1495,811.5z"/>
		<path class="st7" d="M1247.2,636.4c3.6,1.8,6,3.1,9.8,4.9c-2.5,2.8-4,5.6-6.4,6.8c-1.2,0.6-5.5-1.5-5.6-2.6
			C1244.8,642.7,1246.3,639.9,1247.2,636.4z"/>
		<path class="st22" d="M971.9,606.3c7.7-11.7,17.7-15.6,30.8-15.4c14.7,0.2,29.5-2.3,44.3-3.1c2.9-0.2,7.4,1,8.7,3.1
			c11,17.7,21.9,35.4,31.7,53.7c3.9,7.4,7.7,17.3,0.2,24.3c-7,6.5-16.1,2.4-23.9-0.6c-29.3-11.5-53.7-30.8-77.9-50.3
			C981,614.3,976.5,610.2,971.9,606.3z"/>
		<path class="st22" d="M970.2,493.9c27.6-23.7,53.9-45.3,84.9-59.9c7.2-3.4,15.2-5.8,23.1-7c9-1.4,13.6,3.1,12.5,12.1
			c-1,7.9-3,16.2-6.7,23.1c-8.3,15.2-17.7,29.9-27.3,44.3c-1.7,2.6-6.6,4.4-9.9,4.2c-18.9-0.9-37.8-1.5-56.4-4.3
			C983.5,505.5,977.6,498.8,970.2,493.9z"/>
		<path class="st22" d="M966.3,604.8c-27.6,23.8-53.8,45.3-84.9,59.9c-7.7,3.6-16.4,5.6-24.9,7c-7.4,1.2-11.9-3.8-11-11
			c0.8-7.1,2.1-14.6,5.5-20.8c9-16.5,19-32.4,29.1-48.3c1.4-2.2,5.7-3.9,8.5-3.7c19.1,0.9,38.4,1.5,57.3,4.3
			C952.8,593.1,958.7,599.9,966.3,604.8z"/>
		<path class="st22" d="M964.7,492.6c-7.7,10.6-16.6,15.5-29.8,15.2c-15.3-0.4-30.6,2.3-46,3.2c-2.7,0.2-6.9-1-8-2.9
			c-11.1-17.9-22.1-35.9-32-54.5c-3.8-7.1-7.3-16.7-0.2-23.6c7-6.9,16.1-2.7,23.8,0.3c28.5,11.1,52.4,29.6,75.9,48.5
			C953.8,483.1,959,487.7,964.7,492.6z"/>
		<path class="st22" d="M908.7,549.4c-8.4,10.2-16.2,20-24.3,29.4c-1.6,1.8-5.1,3.6-7.1,3.1c-20.5-5-41.1-9.8-61.2-16.1
			c-7.6-2.4-17-6.4-17.1-16.4c-0.1-10.1,9.3-14.1,16.9-16.5c20.4-6.3,41.3-11.2,62-16.4c1.7-0.4,4.6,0.9,5.8,2.3
			C892.2,528.9,900.3,539,908.7,549.4z"/>
		<path class="st22" d="M1027.7,549.3c8.2-10,15.8-19.5,23.8-28.7c1.8-2,5.5-4.4,7.6-3.9c21.3,5.3,42.6,10.8,63.6,17.3
			c6.9,2.1,14.8,6.2,14.9,15.2c0.1,8.9-7.8,13.2-14.7,15.3c-21.2,6.6-42.8,12-64.4,17.5c-1.7,0.4-4.6-0.8-5.8-2.3
			C1044.2,569.9,1036.1,559.7,1027.7,549.3z"/>
		<path class="st13" d="M911.5,551.8c14.9-15.2,26.2-27.2,38.1-38.5c2.3-2.2,6.9-2.2,10.5-2.7c15.4-2.1,28.8,0.5,38.9,14.3
			c6.4,8.7,15,16,23.4,24.7c-12.4,12.5-23.9,24.7-36.1,36c-2.6,2.4-8,1.9-12.1,2.6c-15.7,2.8-27.5-2.8-37.7-15.1
			C929.9,565.2,920.7,559.5,911.5,551.8z M967.9,568.5c14.2,0.1,24.8-10.3,24.9-24.4c0.1-14.4-10.1-24.7-24.4-24.8
			c-14.3-0.1-24.9,10.2-25,24.3C943.4,557.7,953.9,568.4,967.9,568.5z"/>
		<path class="st23" d="M1026.2,544.9c-12.4-11.1-23.8-21.3-35.2-31.5c0.4-1,0.8-2,1.2-2.9c18.6,1.4,37.2,2.8,58.8,4.4
			C1041.5,526.4,1033.4,536.2,1026.2,544.9z"/>
		<path class="st23" d="M885.4,583.9c9.8-11.8,17.7-21.4,25.1-30.4c11.7,10.8,23.2,21.3,34.6,31.8c-0.4,1-0.7,1.9-1.1,2.9
			C925.4,586.9,906.8,585.5,885.4,583.9z"/>
		<path class="st23" d="M885.5,514.9c21.5-1.6,40.1-3,58.7-4.4c0.3,0.6,0.6,1.3,0.9,1.9c-11.6,10.6-23.3,21.1-35.3,32
			C903.1,536.2,895.1,526.5,885.5,514.9z"/>
		<path class="st23" d="M1027.7,555.6c5.8,7,13.8,16.7,23.2,28.2c-21,1.7-39.6,3.1-58.2,4.6c-0.3-0.5-0.6-1.1-0.9-1.6
			C1003.6,576.5,1015.4,566.3,1027.7,555.6z"/>
		<path class="st5" d="M979.7,506.7c-8.3,0-15.1,0-23.8,0c4.8-4.2,8.3-7.3,12.8-11.3C972.4,499.2,975.7,502.6,979.7,506.7z"/>
		<path class="st5" d="M968,602.9c-3.8-3.3-7.1-6.3-11.9-10.6c8.7,0,15.1,0,22,0C974.8,595.8,971.8,599,968,602.9z"/>
		<path class="st8" d="M968.2,873.1c-11.3,0-22.7,0.1-34,0c-2.9,0-5.8-0.4-8.6-0.9c-5.9-1.1-9.8-4.8-9.3-10.8c0.5-6,5-9,11-9
			c27.6-0.1,55.3-0.3,82.9,0.4c3.4,0.1,8.3,5.1,9.5,8.9c0.8,2.3-3.4,7.4-6.5,9.5c-2.8,1.9-7.2,1.8-10.9,1.9
			C990.9,873.3,979.6,873.1,968.2,873.1z"/>
		<path class="st8" d="M967.1,902.9c-7.5,0-15.1,0-22.6,0c-6.9,0-12.7-2.4-12.4-10.1c0.2-6.8,5.3-9.4,12.2-9.3
			c15.1,0.3,30.2,0.2,45.2,0.1c6.4,0,11.4,2.4,11.5,9c0.1,6.6-4,10.5-11.2,10.3C982.2,902.8,974.6,902.9,967.1,902.9z"/>
		<path class="st9" d="M651.8,699.6c0.5,0.6,1.1,1.1,1.6,1.7c1.3,7-1.9,10.7-8.8,9.8c-5.6-0.7-12.5,3.7-16.9-3.3l0,0.1
			c0.7-2.6,1.4-5.2,2.3-8.3C636.8,699.6,644.3,699.6,651.8,699.6z"/>
		<path class="st13" d="M627.7,707.8c-2.8,1.1-5.6,2.7-8.5,2.9c-1.1,0.1-3.3-3.1-3.5-4.9c-0.2-1.9,1.1-4.8,2.7-5.6
			c1.5-0.8,4.8-0.4,6.1,0.8C626.2,702.6,626.7,705.5,627.7,707.8C627.7,707.8,627.7,707.8,627.7,707.8z"/>
		<path class="st9" d="M653.9,768.9c-1.2,0.6-2.4,1.1-3.5,1.7c-5.7,0-11.4,0.2-17-0.2c-1.9-0.2-3.7-2.1-5.5-3.3
			c0.6-2.6,1.3-5.3,2.3-9.4c7.5,0.8,15.6,1.6,23.8,2.4C653.9,763,653.9,765.9,653.9,768.9z"/>
		<path class="st13" d="M626.3,767.2c-3.6,0.4-7.2,0.8-10.8,1.2c0.1-4.1-1.6-9.5,5-9.8C626.6,758.2,626,763.2,626.3,767.2z"/>
		<path class="st11" d="M608.8,730.8c0.6-0.5,1.2-1.1,1.8-1.6c8.6-0.1,17.1-0.3,25.7-0.4c0.1,4.1,0.1,8.1,0.2,12.2
			c-9.2-0.7-18.4-1.4-27.6-2.1C608.8,736.1,608.8,733.4,608.8,730.8z"/>
		<path class="st13" d="M1510.1,867.1c-0.6,0-1.3,0.1-1.9,0.1c0.3-0.4,0.6-0.7,1-1.1C1509.5,866.4,1509.8,866.8,1510.1,867.1z"/>
		<path class="st13" d="M1595.6,806.1c-0.6,0-1.3,0-1.9,0.1c0.3-0.4,0.6-0.8,0.9-1.1C1594.9,805.4,1595.3,805.7,1595.6,806.1z"/>
		<path class="st24" d="M967.9,568.5c-14.1-0.1-24.6-10.8-24.5-25c0.1-14.1,10.7-24.4,25-24.3c14.3,0.1,24.4,10.5,24.4,24.8
			C992.7,558.2,982.1,568.7,967.9,568.5z"/>
	</g>
</g>
<rect y="296.1" class="st0" width="62" height="784.8"/>
<rect x="62" y="977.8" class="st0" width="1858" height="102.2"/>
</svg>
