<svg width="471" height="284" viewBox="0 0 471 284" fill="none" xmlns="http://www.w3.org/2000/svg">
<path d="M255.471 0.100006C256.571 2.10001 258.671 1.20001 260.271 1.70001C272.971 5.80001 280.271 15.1 284.571 27.1C286.171 29.9 285.771 33.1 285.771 36.1C285.171 40.1 285.071 44 287.171 47.7C288.171 50 289.371 52.2 290.371 54.4C292.171 58.2 291.371 62.4 292.171 66.3C292.771 68.6 293.971 70.6 294.971 72.8C295.471 74.1 295.871 75.3 296.171 76.7C296.571 78.3 295.871 80.1 296.871 81.6C297.071 82 297.271 82.4 297.471 82.8C298.371 84.7 298.671 86.8 299.271 88.8C299.671 90.5 299.671 92.3 299.371 94.1C298.271 101.9 293.971 106.7 286.471 109.5C279.171 112.2 274.071 118.2 269.171 124.1C267.171 126.5 265.471 129.2 263.171 131.4C258.971 135.3 255.771 134.3 254.371 128.7C253.471 125.1 254.471 121.4 253.271 117.9C252.271 113 251.971 108.1 254.171 103.3C254.771 102.1 255.371 100.9 256.171 99.9C258.871 96.3 259.171 92.8 256.771 88.9C255.171 86.2 253.571 83.4 253.571 80.1C256.271 76.4 258.071 72.3 259.871 68.2C261.871 67.3 262.271 70.4 264.071 70C265.671 68.5 264.071 66.4 265.071 64.8C267.971 61.8 270.871 58.8 270.871 54.2C270.871 49.7 269.571 48.4 265.071 48.3C259.371 48.2 253.971 46.7 249.271 43.4C248.371 43.7 249.971 41 248.071 42.5C247.671 42.6 247.271 42.6 246.871 42.4C246.271 42.1 245.871 41.7 245.471 41.2C244.571 39.7 243.371 38.7 241.971 37.6C241.071 36.5 240.171 35.4 238.571 35.3C237.871 35.2 237.271 35.1 236.671 34.9C233.571 33 231.971 29.9 229.971 27C228.271 24.6 226.871 23.7 224.771 26.5C223.571 28.1 221.871 29.3 220.971 31.1C219.471 35 219.371 39 219.571 43C217.071 47.4 216.471 52 218.771 56.7C218.971 57.2 219.071 57.6 219.171 58.1C219.471 59.8 219.371 61.5 219.971 63.2C220.771 69.3 222.871 74.6 226.971 79.4C229.671 82.6 233.871 82.6 236.671 85.3C237.971 88 236.771 90.6 236.471 93.2C236.171 96.2 235.271 99 234.071 101.7C231.871 106.8 231.271 112.1 231.471 117.6C231.271 120.4 231.671 123.3 230.971 126C230.571 127.5 229.671 128.8 228.071 129.1C226.171 129.4 225.371 128 224.871 126.6C222.371 118.7 216.671 113.5 210.471 108.6C208.071 106.7 206.271 104.4 204.771 101.8C203.371 99 203.571 96 204.171 93.1C206.371 82.8 209.071 72.5 208.771 61.8C208.771 60.5 209.171 59.2 209.971 58.1C210.271 51 207.971 44 210.071 36.8C211.671 31.1 213.671 25.6 213.471 19.4C213.371 15.1 217.171 12.2 220.771 9.79999C226.371 6.09999 232.471 3.6 238.971 2C240.471 1.6 242.371 1.9 243.171 0C244.171 0 245.171 0 246.171 0C248.471 0.8 250.871 0.8 253.171 0C254.171 0.1 254.771 0.100006 255.471 0.100006Z" fill="#32313E"/>
<path d="M253.471 0.100098C251.171 1.8001 248.771 1.9001 246.471 0.100098C248.771 0.100098 251.171 0.100098 253.471 0.100098Z" fill="#C3C3C6"/>
<path d="M298.471 94.0001C298.471 92.1001 298.471 90.2001 298.371 88.3001C298.471 86.0001 299.671 83.3001 296.271 82.3001H296.371C295.371 80.7001 296.571 78.8001 295.671 77.1001C294.671 76.1001 294.371 74.9001 294.371 73.5001C294.471 70.9001 294.271 68.4001 291.371 67.1001C289.671 63.0001 291.071 58.4001 289.471 54.3001C289.671 51.6001 289.171 49.3001 286.271 48.2001C283.771 44.8001 283.071 41.1001 284.671 37.1001C285.771 34.2001 284.171 30.9001 285.571 28.0001C300.671 22.9001 315.671 17.6001 331.171 13.8001C348.371 9.50006 365.871 6.20007 383.671 6.30007C391.071 6.30007 398.471 7.50009 405.571 10.2001C420.171 15.8001 426.271 27.6001 427.271 42.0001C428.471 58.4001 426.471 74.8001 424.771 91.1001C422.871 109.6 421.671 128.2 429.271 146C433.971 156.9 442.071 164.4 452.271 170C455.571 171.8 459.371 173 462.271 175.5C470.271 182.3 472.271 192.6 468.071 203.7C463.271 216.5 455.571 227.4 447.071 237.9C435.771 251.9 422.571 264.2 409.971 277C403.771 283.3 396.671 284.8 388.471 282C389.671 280.3 390.871 278.7 392.071 277.1C396.471 275.1 399.771 272.2 400.571 267.1C401.071 265.7 402.071 264.7 402.771 263.5C405.871 262.6 407.671 260 409.671 257.7C410.271 257 410.671 256.3 410.071 255.6C409.271 254.7 407.971 254.8 407.571 255.7C405.971 258.6 401.971 260 402.271 264C401.571 265.2 400.771 266.4 400.171 267.7C396.171 270.2 391.971 272.5 391.271 277.9C390.571 279.4 389.371 280.6 388.571 282C386.771 283.2 384.771 283.1 382.771 283.1C266.671 283.1 150.671 283.1 34.5712 283.2C30.5712 283.2 28.7713 281.9 27.3713 278.1C19.5713 257.9 14.5713 236.9 11.8713 215.6C9.47129 196.6 10.1712 177.5 16.2712 159.1C25.1712 131.8 43.8712 114.1 70.5712 104.1C84.3712 99.0001 98.8712 97.4001 113.071 94.4001C134.771 89.9001 154.871 80.5001 175.371 72.3001C187.071 67.6001 198.771 62.9001 210.471 58.2001C211.671 70.3001 208.771 81.8001 206.171 93.4001C205.471 96.4001 205.371 99.3001 206.571 102.1C199.671 113.4 195.371 125.8 190.871 138.2C188.971 138.9 187.771 137.3 186.371 136.6C181.171 133.9 175.871 133.4 170.571 136.1C166.271 138.3 161.771 140 157.871 142.9C155.371 148.8 160.271 151.6 163.271 155C164.671 156.6 166.871 157.3 168.471 158.8C169.371 159.7 170.671 160.7 168.771 161.9C159.871 163.8 150.971 165.3 142.071 166.6C139.371 167.2 139.071 169.3 138.971 171.6C138.871 174.9 138.971 178.2 138.971 181.5C138.871 186 139.071 190.5 138.871 195C138.871 197.9 136.871 199.8 135.271 201.9C132.571 205.4 130.071 208.9 132.071 213.7C132.271 214.2 132.471 214.8 132.271 215.2C129.071 220.4 131.471 225 133.871 229.6C134.271 230.3 134.071 231.2 133.571 232C128.771 235.8 122.871 237.4 117.471 239.7C91.0713 251.1 64.5712 262.5 38.0712 273.7C36.1712 274.5 32.9712 275 33.0712 277.2C33.2712 280 36.6712 279.3 38.7712 279.8C42.3712 280.7 45.9713 280.7 49.6713 280.7C82.9713 280.7 116.271 280.7 149.571 280.7C176.171 280.7 202.671 280.7 229.271 280.7C231.471 280.7 233.571 280.6 235.671 279.9C237.671 279.5 239.671 279.5 241.671 279.5C272.771 279.5 303.871 279.4 334.971 279.5C343.571 279.8 352.171 280 360.771 279.4C363.671 278.5 365.071 276.1 366.671 273.8C368.471 271.3 369.671 268.3 372.471 266.6C374.771 265.9 377.671 265.4 375.071 261.9C368.871 258.7 361.871 258.8 355.271 257.6C345.171 255.8 334.971 254.4 324.771 252.7C323.171 252.4 321.471 252.3 320.071 251.3C318.171 247.9 315.471 249.9 312.971 250.3C308.871 250.3 304.871 249.9 301.071 248.2C299.271 245 296.771 246.4 294.371 247.2C293.171 247.3 291.971 247.2 290.871 246.6C288.971 245.1 289.471 243.8 291.171 242.7C292.671 241.7 294.171 240.5 295.971 240.3C298.071 240.4 300.371 241.2 301.171 238.2C301.471 237.8 301.771 237.6 302.171 237.4C306.071 236.5 309.371 234.8 310.171 230.3C312.971 226.8 316.571 224.1 319.771 221.1C329.071 212.5 330.971 201.2 331.371 189.4C331.071 186.6 335.271 183.7 331.071 181.1C330.571 180.2 330.371 179.3 330.371 178.3C330.271 176.6 330.371 174.9 329.771 173.2C329.471 172 329.471 170.8 329.771 169.6C331.271 167.3 331.071 165.5 328.471 164.3C326.771 161.7 326.271 158.9 326.571 155.8C327.571 153.7 328.471 151.6 325.471 150.2C323.071 145 321.971 139.5 321.871 133.8C324.271 129.8 322.371 126.9 319.271 124.3C318.871 123.7 318.771 123 318.671 122.3C318.471 119.8 320.371 116.7 316.571 115.4C316.271 115 316.171 114.6 316.071 114.1C316.371 111.7 316.771 109.2 313.471 108.5C312.471 107.7 311.971 106.7 312.071 105.4C312.971 102.5 311.771 101.1 308.871 101C308.171 100.8 307.671 100.3 307.371 99.7001C307.171 97.3001 305.971 96.3001 303.571 96.8001C301.271 96.4001 299.571 95.6001 298.471 94.0001Z" fill="#D7DCFA"/>
<path d="M142.571 20.8999C143.771 20.6999 146.171 21.2999 148.471 22.1999C150.171 22.7999 152.271 23.2999 152.271 25.5999C152.271 27.6999 150.471 28.5999 148.771 29.3999C141.371 33.0999 133.271 33.9999 125.271 35.4999C104.571 39.3999 85.4711 47.8999 65.9711 55.2999C56.3711 58.9999 46.3711 61.3999 36.1711 62.7999C33.0711 63.2999 29.9711 62.9999 26.7711 62.0999C24.8711 61.5999 22.9711 61.0999 22.7711 58.9999C22.5711 57.0999 23.8711 55.3999 25.4711 54.4999C29.3711 52.2999 33.2711 50.0999 37.5711 48.6999C61.1711 41.2999 84.5711 33.5999 108.271 26.5999C119.071 23.5999 130.071 21.5999 142.571 20.8999Z" fill="#D7DCFA"/>
<path d="M23.571 111C18.871 114.8 14.0711 118.6 9.37109 122.4C12.5711 117 17.271 113.1 22.571 110C23.571 109.6 23.771 110.1 23.571 111Z" fill="#D1D4E9"/>
<path d="M23.5713 111C23.2713 110.7 22.8713 110.3 22.5713 110C26.0713 106.6 30.4713 104.5 34.4713 101.9C35.0713 102 35.4713 102.4 35.5713 103C31.8713 106.1 27.7713 108.7 23.5713 111Z" fill="#D2D4E9"/>
<path d="M35.5712 103.1C35.1712 102.7 34.8712 102.4 34.4712 102C37.4712 99.9001 40.0712 97.3001 45.1712 96.1001C41.7712 99.6001 38.6712 101.3 35.5712 103.1Z" fill="#CDD0E5"/>
<path d="M285.471 28.0002C284.971 31.0002 286.371 34.2002 284.571 37.1002C284.571 33.8002 284.571 30.5002 284.571 27.2002C284.871 27.4002 285.171 27.7002 285.471 28.0002Z" fill="#D7DCFA"/>
<path d="M3.57129 128C4.77129 126.5 5.87129 125 7.57129 122.7C7.97129 126.2 5.57129 127.3 4.57129 129C4.17129 128.8 3.77129 128.5 3.57129 128Z" fill="#D5D7EA"/>
<path d="M3.57104 128C3.87104 128.3 4.17104 128.7 4.57104 129C3.87104 130 3.17104 131 2.57104 132C1.67104 132.2 1.17104 132.1 1.57104 131C2.27104 130 2.87104 129 3.57104 128Z" fill="#CED0E4"/>
<path d="M1.57118 131C1.87118 131.3 2.27118 131.7 2.57118 132C1.87118 132.8 1.27121 133.7 0.171213 135C-0.428787 132.8 0.671176 131.9 1.57118 131Z" fill="#DEE0EC"/>
<path d="M332.371 189.1C332.071 200.3 330.471 211.2 322.271 219.8C318.571 223.7 314.371 227.2 310.371 230.8C308.471 234.6 304.671 235.9 301.271 237.8C300.071 239.7 298.171 240.3 296.171 240.8C294.171 242.4 290.371 241.9 290.271 245.8C284.271 248.6 278.271 251.3 272.071 253.4C270.371 254 268.471 254.3 267.071 252.6C266.471 250.9 267.571 249.8 268.471 248.6C272.271 243.4 271.171 238.3 265.571 235C263.871 234 261.771 233.8 260.371 232.2C259.571 229.8 261.471 228.5 262.771 227.3C267.171 223.5 271.471 219.4 275.771 215.4C280.871 213.8 283.371 209.3 286.971 205.9C290.171 202.9 294.071 200.3 295.171 195.6C296.871 188.6 295.971 181.8 293.871 175C292.971 172.3 292.471 169.5 291.471 166.9C290.071 156.5 286.171 146.7 283.371 136.6C283.771 147.7 283.371 158.6 277.171 168.3C276.871 168.7 276.471 169 275.871 169.2C265.271 166.7 254.671 164.4 244.471 160.4C243.171 157.5 245.771 156.3 247.171 154.8C249.871 151.8 252.371 148.8 251.771 144.4C246.971 137.8 239.671 135.3 232.471 134.5C225.371 133.7 220.571 139.4 216.271 144.7C213.971 147.5 213.371 151.5 209.971 153.6C206.171 154.5 202.471 155.6 198.571 155.2C194.671 149.8 192.071 143.9 190.171 137.6C193.871 124.9 197.071 112 206.271 101.8C210.271 105.7 214.271 109.6 218.371 113.5C221.871 116.8 224.771 120.6 226.071 125.4C226.371 126.6 226.371 128.4 228.171 128.2C229.871 128 230.371 126.4 230.371 124.8C230.471 122.5 230.571 120.2 230.771 117.9C230.871 117.8 231.071 117.6 231.171 117.7C238.971 119.5 246.671 119.3 254.571 118C255.971 120.6 255.171 123.5 255.471 126.3C255.671 128.6 255.671 131.4 258.071 132.4C260.771 133.5 262.271 130.9 263.671 129.2C267.071 124.9 270.271 120.5 274.171 116.6C278.471 112.4 283.171 108.8 288.971 106.9C295.171 104.9 296.971 99.5 298.471 94C300.171 94.7 301.771 95.4 303.471 96.1C305.271 96.5 306.971 97.1 307.471 99.2C307.771 99.5 308.071 99.8 308.371 100.1C310.471 101.1 312.171 102.6 312.271 105.2C312.671 106.2 313.171 107.1 313.571 108.1C315.471 109.7 316.171 111.9 316.371 114.3C316.371 114.6 316.471 114.9 316.571 115.1C319.671 116.6 318.371 119.9 319.371 122.3C319.471 122.9 319.571 123.6 319.571 124.2C321.371 126.9 322.771 129.8 322.171 133.2C323.471 138.9 324.771 144.6 326.071 150.2C328.371 151.4 326.771 153.6 327.271 155.2C327.071 158.3 327.971 161.3 328.971 164.2C331.071 165.4 330.471 167.3 330.171 169.1C330.271 170.4 330.371 171.8 330.471 173.1C331.271 174.7 330.271 176.6 331.271 178.2C331.271 179.1 331.371 180.1 331.371 181C334.071 183.4 330.871 186.5 332.371 189.1Z" fill="#7081E0"/>
<path d="M218.671 58.0999C218.471 57.7999 218.471 57.4999 218.471 57.1999C216.571 52.2999 217.971 47.5998 219.371 42.7998C218.071 38.3998 218.671 34.1999 220.571 30.0999C223.271 28.5999 224.471 30.9999 225.971 32.1999C232.371 37.2999 239.171 41.4999 247.671 41.8999C247.971 41.9999 248.271 41.9999 248.471 41.8999C248.871 41.4999 249.271 41.5999 249.571 41.9999C254.171 45.3999 259.571 46.6998 265.171 46.7998C271.071 46.9998 273.471 48.9998 272.671 54.7998C272.071 59.2998 269.871 62.8999 265.771 65.1999C263.671 65.0999 262.771 67.2999 260.971 67.5999C259.971 72.2999 258.771 76.8999 254.571 79.8999C249.271 84.3999 243.371 86.7999 236.371 84.9999C226.371 82.7999 220.171 74.6999 219.371 62.9999C218.971 61.3999 218.971 59.7999 219.271 58.1999C221.671 56.6999 224.271 57.7999 226.871 57.6999C228.371 58.2999 230.171 58.3999 230.771 60.9999C231.371 58.8999 233.471 58.5999 233.571 56.6999C233.871 54.5999 234.471 52.4999 233.971 50.3999C234.271 53.0999 234.171 55.6999 232.871 58.0999C231.771 58.8999 230.671 58.9999 229.471 58.3999C227.571 57.3999 225.771 56.3999 224.771 54.3999C224.471 52.4999 224.771 50.6999 226.071 49.0999C226.271 48.6999 226.871 48.5999 227.071 48.0999C226.671 48.2999 226.271 48.5999 226.071 48.9999C224.971 50.1999 224.971 51.7999 224.371 53.1999C223.371 54.9999 221.671 56.1999 220.171 57.5999C219.471 58.1999 219.071 58.2999 218.671 58.0999Z" fill="#EFBDB3"/>
<path d="M254.671 118.1C246.771 122.1 238.771 121.3 230.871 118C229.671 111 231.371 104.6 234.271 98.3002C234.971 96.7002 235.171 94.8002 235.671 93.0002C236.871 92.0002 237.971 92.7002 238.771 93.5002C242.871 97.7002 247.771 100.1 253.571 100.9C254.571 101.1 255.971 101.3 255.571 103C253.471 108 253.971 113 254.671 118.1Z" fill="#EFBDB3"/>
<path d="M255.471 103.1C250.471 101.5 245.171 100.7 240.671 97.3C238.871 96 238.471 93 235.671 93C235.871 90.4 236.071 87.7 236.271 85.1C242.771 84.9 248.571 82.3 254.471 80C255.271 82 255.571 84.4 256.871 85.9C261.971 92.2 260.471 97.7 255.471 103.1Z" fill="#E8AA9D"/>
<path d="M247.571 41.8998C246.171 43.6998 244.371 43.0998 242.571 42.5998C235.571 40.6998 229.471 37.1997 224.171 32.2997C223.071 31.2997 222.171 30.0998 220.471 30.0998C220.571 29.7998 220.671 29.3997 220.871 29.2997C223.871 27.6997 224.471 22.2998 228.071 22.9998C230.971 23.5998 232.071 27.8998 234.171 30.4998C235.171 31.7998 236.271 32.9998 237.371 34.1998C238.571 34.9998 239.971 35.4998 241.071 36.3998C241.571 36.7998 241.871 37.3997 242.371 37.7997C243.971 38.5997 245.071 39.8998 246.471 40.8998C246.871 41.1998 247.171 41.4998 247.571 41.8998Z" fill="#E5A99C"/>
<path d="M260.871 67.7002C261.571 66.7002 262.371 65.7002 262.971 64.6002C264.571 61.8002 264.871 64.4002 265.571 65.2002C265.871 66.2002 266.271 67.1002 266.371 68.1002C266.471 69.7002 267.071 71.6002 264.571 72.0002C262.471 72.3002 261.671 70.9002 261.371 69.1002C261.371 68.6002 261.071 68.2002 260.871 67.7002Z" fill="#4869BE"/>
<path d="M219.371 42.7998C220.271 47.6998 217.871 52.2998 218.471 57.1998C215.171 51.2998 215.371 47.6998 219.371 42.7998Z" fill="#E0A599"/>
<path d="M286.171 48.2002C291.071 48.9002 291.671 50.0002 289.371 54.3002C288.271 52.2002 287.271 50.2002 286.171 48.2002Z" fill="#D7DCFA"/>
<path d="M296.271 82.2002C301.271 82.8002 301.471 83.4002 298.371 88.2002C297.671 86.2002 296.971 84.2002 296.271 82.2002Z" fill="#D7DCFA"/>
<path d="M291.271 67.1001C296.771 67.1001 295.571 70.3001 294.271 73.5001C293.271 71.4001 292.271 69.2001 291.271 67.1001Z" fill="#D7DCFA"/>
<path d="M246.471 40.8001C244.371 40.9001 242.971 39.5001 241.571 38.2001C241.771 37.7001 241.871 37.1001 242.671 37.1001C244.771 37.4001 246.071 38.7001 246.471 40.8001Z" fill="#32313E"/>
<path d="M242.671 37.1001C242.271 37.5001 241.971 37.8001 241.571 38.2001C241.171 37.8001 240.771 37.4001 240.371 37.0001C240.071 36.1001 238.771 35.4001 239.671 34.2001C241.671 34.1001 242.471 35.2001 242.671 37.1001Z" fill="#B18581"/>
<path d="M285.271 53.7998C288.071 54.9998 287.971 56.4998 288.471 58.1998C285.571 57.4998 286.471 55.6998 285.271 53.7998Z" fill="#AAADC6"/>
<path d="M289.671 61.0002C289.371 61.4002 289.071 61.8002 288.871 62.1003C288.471 61.4003 288.071 60.8002 287.871 60.0002C287.771 59.5002 288.371 59.0002 288.771 59.4002C289.271 59.7002 289.371 60.4002 289.671 61.0002Z" fill="#86899E"/>
<path d="M295.571 77.1001C297.071 78.7001 296.271 80.5001 296.271 82.3001C293.671 80.8001 296.671 78.7001 295.571 77.1001Z" fill="#D7DCFA"/>
<path d="M219.471 58.1001C219.371 59.8001 219.371 61.5001 219.271 63.2001C217.771 61.7001 218.571 59.8001 218.571 58.1001C218.871 58.1001 219.171 58.1001 219.471 58.1001Z" fill="#EDB7AB"/>
<path d="M239.671 34.1C239.871 35 240.171 36 240.371 36.9C238.971 36.3 238.071 35.3 237.471 34C238.171 34.1 238.871 34.1 239.671 34.1Z" fill="#433B46"/>
<path d="M249.471 42.0998C249.071 42.0998 248.771 41.9998 248.371 41.9998C248.471 41.5998 248.671 40.7998 248.771 40.7998C249.671 40.7998 249.271 41.5998 249.471 42.0998Z" fill="#785E62"/>
<path d="M267.271 251.8C269.871 254.3 272.171 251.9 274.571 251.3C279.971 249.9 284.371 245.5 290.371 245.9C291.671 245.9 292.971 246 294.171 246C296.071 247.1 298.571 244.8 300.371 247C304.571 248.3 308.771 249.1 313.171 249C315.071 250.1 317.571 247.8 319.371 250C328.671 252.5 338.371 253.2 347.871 254.9C356.371 256.4 365.071 257.6 373.571 259C375.271 259.3 376.371 260 376.171 261.9C376.071 264.3 374.371 265.7 372.571 267C368.671 270.9 366.971 276.7 362.271 280C355.371 281 348.371 280.2 341.371 280.5C339.271 280.6 337.071 280.1 334.971 280.9C310.171 280.9 285.471 280.9 260.671 280.9C252.171 280.9 243.671 281.1 235.271 281.1C229.471 281.8 223.671 281.4 217.871 281.4C196.371 281.5 174.971 281.4 153.471 281.4C151.671 281.4 149.771 281 148.071 281.8C123.071 281.8 98.1712 281.9 73.1712 281.8C61.3712 281.7 49.5712 282.8 37.7712 281C34.7712 280.5 30.2712 280.8 29.8712 277.3C29.5712 274.2 34.0712 273.6 36.6712 272.5C68.8712 258.6 101.071 244.8 133.371 230.9C138.771 232.2 137.971 237.1 139.271 240.8C141.771 243.6 145.471 244.4 148.671 246.2C151.471 247.9 154.671 248.8 157.671 250.2C161.871 252.5 166.271 254.5 170.671 256.2C178.571 260 186.471 263.8 194.671 266.9C196.771 267.6 198.571 266.5 200.371 266C207.471 263.7 214.471 261.3 221.571 259C223.471 258.4 225.371 257.7 227.371 258.1C233.271 262.3 240.371 262.4 247.171 263.5C249.271 263.9 251.471 263.5 253.371 262.4C256.371 261.1 258.071 258.4 260.171 256.1C262.271 254.1 263.571 250.8 267.271 251.8Z" fill="#4D5A9D"/>
<path d="M253.371 144.1C254.371 149.3 251.371 152.7 248.171 156C246.971 157.3 245.571 158.5 244.271 159.7C239.471 165.3 232.871 166.6 226.071 167.3C223.271 167 220.671 167.9 217.871 167.9C221.671 169.7 224.371 172.5 227.171 175.3C228.171 176.9 229.271 178.5 230.271 180.1C231.871 183.2 232.771 186.6 233.771 189.9C234.071 191.9 235.071 193.8 233.871 195.8C231.171 197 229.971 194.7 228.571 193.4C226.271 191.2 225.171 191.7 223.971 194.5C222.971 196.8 222.771 200.9 220.071 200.8C216.871 200.7 216.971 196.6 216.071 194.1C214.671 190.2 213.271 186.3 211.671 182.5C210.271 179.3 208.771 176.2 207.171 173.2C205.671 170.3 203.671 170 201.371 172.4C198.171 176 195.571 180 194.171 184.6C192.271 189.3 191.971 194.3 190.771 199.1C190.471 200.2 190.471 201.7 189.071 201.9C187.471 202.2 187.071 200.5 186.271 199.5C184.671 197.3 185.371 193 182.371 192.6C179.771 192.3 178.971 196.3 176.971 198C174.271 200.3 173.371 198.4 173.271 196.1C172.771 188.8 174.671 182 178.571 175.7C183.271 171.9 187.571 167.4 193.271 166C190.871 166.1 187.971 166.6 185.071 166.6C179.571 165.3 173.571 165.5 169.171 161C164.871 157.5 159.871 155 156.971 149.9C155.571 147.3 153.871 144.9 156.271 142C160.771 140 165.071 141.6 169.371 142.6C177.971 144.7 185.271 149.4 191.071 155.8C194.471 159.5 197.171 160.7 201.371 158.1C202.071 157.9 202.871 157.8 203.571 157.7C205.571 157.6 207.771 157.1 209.471 157.9C213.971 160.2 216.671 157.9 219.671 155C227.471 147.7 236.371 142.5 247.471 142.6C249.671 142.7 251.671 142.7 253.371 144.1Z" fill="#D44639"/>
<path d="M148.471 247C144.971 245.6 141.271 244.6 138.371 241.9C137.971 241.1 137.871 240.2 138.071 239.5C139.271 234.5 139.571 229.7 136.771 224.9C135.471 222.6 137.071 220.5 139.871 219.8C141.671 219.4 142.871 218.2 141.171 216.7C135.171 211.3 137.171 204.6 137.871 198.1C137.971 197.3 138.071 196.5 138.071 195.6C137.771 190.8 138.671 185.9 137.571 181.1C137.571 177.4 137.671 173.8 137.471 170.1C137.271 167 138.371 165.3 141.571 165.1C144.471 167 148.771 167.2 149.771 171.6C150.671 180.9 150.071 190.2 150.171 199.5C150.271 213 150.271 226.5 150.171 239.9C150.071 242.4 150.471 245 148.471 247Z" fill="#F0ECEC"/>
<path d="M201.471 159.1C200.171 159.7 198.471 160.1 197.571 161C195.471 163.2 194.371 161.5 193.371 160.1C183.971 148.2 171.571 142.2 156.471 141.8C161.571 138.1 167.371 135.3 173.171 133.2C179.371 131 185.171 133.5 190.271 137.5C193.971 142.8 196.171 148.8 198.771 154.7C200.271 156 201.271 157.3 201.471 159.1Z" fill="#DC705F"/>
<path d="M138.471 196C138.471 199.1 138.571 202.3 138.471 205.4C138.371 209.4 137.971 213.4 142.571 215.6C143.871 216.2 144.871 217.7 144.071 219.4C143.471 220.9 142.071 220.9 140.671 220.9C135.371 221.2 137.371 224 138.671 226.6C139.871 229.2 143.071 232 140.671 234.6C138.571 236.9 138.671 239.2 138.371 241.8C137.771 237.7 137.171 233.6 133.571 230.8C132.471 228.8 131.271 226.8 130.171 224.8C129.571 223.8 128.471 222.4 128.771 221.7C132.471 214.6 127.171 204.8 135.671 199.2C136.771 198.5 137.571 197.3 137.571 195.9C137.871 195.5 138.171 195.5 138.471 196Z" fill="#EFBDB4"/>
<path d="M148.471 170C146.571 167.7 142.471 168.6 141.471 165C148.671 163.9 155.771 162.9 162.871 161.6C164.971 161.2 167.071 161.1 169.271 161C174.671 162.7 180.071 164.3 185.471 166C184.971 167.4 183.771 168 182.471 168.3C174.571 170.1 166.771 172.6 158.571 173.3C154.971 173.1 151.371 172.5 148.471 170Z" fill="#F7F7F7"/>
<path d="M148.171 281.8C152.071 280.5 156.071 281.3 160.071 281.2C185.171 281.1 210.271 281.1 235.371 281C234.471 282 233.271 281.8 232.071 281.8C204.171 281.9 176.171 281.8 148.171 281.8Z" fill="#D7DCFA"/>
<path d="M333.471 109C336.571 112.5 337.171 117.2 339.471 121C340.871 122.4 340.671 124.4 341.471 126C342.171 129 342.771 132 343.471 135C344.171 137 344.271 139 343.471 141C342.471 141.1 341.571 144.8 340.471 141C341.271 138.6 341.271 136.3 340.471 133.9C338.571 125.5 335.771 117.5 331.571 109.9C331.971 109.3 332.571 108.9 333.471 109Z" fill="#B6BDDF"/>
<path d="M333.471 109C333.071 109.8 332.371 110 331.571 110C326.571 99.8001 320.771 90.1001 311.471 83.0001C311.871 82.1001 312.371 81.5001 313.471 82.0001C322.771 89.0001 328.671 98.6001 333.471 109Z" fill="#B1B8DD"/>
<path d="M401.371 266.9C401.271 272.3 397.971 276.4 392.371 277.9C391.671 278.3 390.971 278.4 390.371 277.7C390.471 272.4 393.871 268.3 399.371 266.8C400.071 266.4 400.771 266.3 401.371 266.9Z" fill="#D7DCFA"/>
<path d="M401.371 263.8C399.671 258.6 405.471 257.2 406.871 253.6C407.471 252.1 410.371 253 411.671 254.5C412.971 256 412.571 257.8 410.771 258.7C407.971 260.1 407.371 264.5 403.271 264.2C402.671 264.5 401.971 264.5 401.371 263.8Z" fill="#D7DCFA"/>
<path d="M301.371 237.8C303.771 234.7 307.471 233.2 310.471 230.8C310.571 235.2 307.171 237.9 301.371 237.8Z" fill="#D7DCFA"/>
<path d="M335.171 280.8C344.271 279.4 353.371 280.7 362.471 279.9C358.971 282 355.071 280.6 351.471 280.8C345.971 281.1 340.571 280.8 335.171 280.8Z" fill="#D7DCFA"/>
<path d="M322.171 133.1C320.671 130.3 320.271 127.2 319.571 124.1C324.171 126.2 325.471 130.5 322.171 133.1Z" fill="#D7DCFA"/>
<path d="M343.171 108.7C343.171 110.1 342.271 110.9 340.971 110.9C338.871 110.8 338.171 109.2 338.071 107.5C337.971 106.4 338.671 105.1 340.171 105.2C342.171 105.4 342.471 107.2 343.171 108.7Z" fill="#D7DCFA"/>
<path d="M332.371 189.1C330.871 186.5 331.571 183.7 331.471 181C334.771 180.9 334.971 183 333.971 185.2C333.371 186.5 332.271 187.5 332.371 189.1Z" fill="#D7DCFA"/>
<path d="M372.671 266.9C373.571 265 374.671 263.2 376.271 261.8C379.271 266.5 376.371 267 372.671 266.9Z" fill="#D7DCFA"/>
<path d="M316.371 114.2C314.971 112.4 313.971 110.3 313.571 108C319.271 107.9 317.571 111.1 316.371 114.2Z" fill="#D7DCFA"/>
<path d="M312.271 105.1C310.971 103.4 309.671 101.7 308.371 100C314.071 100.1 314.371 100.5 312.271 105.1Z" fill="#D7DCFA"/>
<path d="M138.471 196H137.971H137.471C137.471 191 137.471 186 137.471 181C139.671 185.9 137.971 191 138.471 196Z" fill="#F0E4DC"/>
<path d="M319.371 122.2C318.471 119.8 317.471 117.4 316.571 115C323.071 115.2 318.871 119.6 319.371 122.2Z" fill="#D7DCFA"/>
<path d="M296.271 240.8C297.571 239.2 299.271 238.2 301.371 237.8C301.571 242 299.671 242.6 296.271 240.8Z" fill="#D7DCFA"/>
<path d="M330.271 169C328.971 167.6 329.571 165.7 329.071 164.1C330.471 164 331.671 164.3 332.171 165.7C332.771 167.4 331.671 168.4 330.271 169Z" fill="#D7DCFA"/>
<path d="M300.471 247C298.371 247 296.171 247.2 294.271 246C296.371 245.9 299.271 241 300.471 247Z" fill="#D7DCFA"/>
<path d="M319.471 250C317.371 250 315.171 250.2 313.271 249C315.371 248.9 318.271 244 319.471 250Z" fill="#D7DCFA"/>
<path d="M327.371 155.1C325.971 153.7 326.671 151.8 326.171 150.1C330.871 150.7 329.671 152.8 327.371 155.1Z" fill="#D7DCFA"/>
<path d="M307.371 99.2002C306.071 98.2002 304.771 97.1001 303.371 96.1001C306.771 94.4001 308.571 94.9002 307.371 99.2002Z" fill="#D7DCFA"/>
<path d="M103.571 229.8C101.871 230.7 100.271 231.6 97.7712 231.6C99.6712 229.7 101.571 229.3 103.571 229.1C103.871 229.3 103.971 229.4 103.871 229.6C103.771 229.7 103.671 229.8 103.571 229.8Z" fill="#A1A9D6"/>
<path d="M85.4713 236.8C83.8713 237.5 82.1713 238.1 80.5713 238.8C81.6713 236.8 83.5713 236.4 85.4713 236C85.7713 236.2 85.8713 236.4 85.7713 236.5C85.6713 236.7 85.5713 236.8 85.4713 236.8Z" fill="#949DCE"/>
<path d="M57.5712 247.8C55.8712 248.5 54.1712 249.2 52.4712 249.9C53.6712 247.7 55.5712 247.3 57.5712 247C57.8712 247.2 57.9712 247.3 57.8712 247.5C57.7712 247.7 57.6712 247.8 57.5712 247.8Z" fill="#A1A9D6"/>
<path d="M390.371 277.7C391.071 277.8 391.671 277.9 392.371 277.9C391.371 279.5 390.171 280.9 388.471 281.8C388.571 280.3 389.171 278.9 390.371 277.7Z" fill="#A6ADD9"/>
<path d="M313.471 82C312.771 82.3 312.171 82.7 311.471 83C310.771 82.9 309.171 82.8 309.471 82.5C310.471 81.2 311.871 80.3 313.471 82Z" fill="#D7DCFA"/>
<path d="M340.471 134C341.971 136.4 341.971 138.7 340.471 141.1C340.471 138.7 340.471 136.3 340.471 134Z" fill="#D7DCFA"/>
<path d="M57.5713 247.8C57.5713 247.5 57.5713 247.3 57.5713 247C58.9713 245.6 60.7713 245.3 62.5713 245C62.8713 245.2 62.9713 245.4 62.8713 245.5C62.7713 245.7 62.6713 245.7 62.5713 245.7C60.8713 246.5 59.2713 247.1 57.5713 247.8Z" fill="#959ECE"/>
<path d="M401.371 263.8C402.071 263.9 402.671 264 403.371 264C402.671 265 402.071 266 401.371 267C400.671 267 400.071 267 399.371 266.9C400.071 265.8 400.771 264.8 401.371 263.8Z" fill="#A5ADD9"/>
<path d="M85.4712 236.8C85.4712 236.5 85.4712 236.3 85.4712 236C86.3712 234.7 87.6712 234.6 89.3712 234.7C88.2712 236.4 86.6712 236.2 85.4712 236.8Z" fill="#A1A9D6"/>
<path d="M343.371 141C343.371 139 343.371 137 343.371 135C344.971 137 344.971 139 343.371 141Z" fill="#D7DCFA"/>
<path d="M103.571 229.8C103.571 229.5 103.571 229.3 103.571 229C104.471 227.8 105.671 227.7 107.271 227.7C106.471 229.5 104.671 229 103.571 229.8Z" fill="#959ECE"/>
<path d="M62.4712 245.8C62.4712 245.5 62.4712 245.3 62.4712 245C63.3712 243.6 64.7712 243.8 66.5712 243.4C65.3712 245.3 63.7712 245.2 62.4712 245.8Z" fill="#A1A9D6"/>
<path d="M341.471 126C340.171 124.6 339.871 122.8 339.471 121C341.771 122 341.371 124.1 341.471 126Z" fill="#D7DCFA"/>
<path d="M76.1712 240.4C75.7712 240.6 75.1712 241 74.6712 241.2C74.0712 241.4 73.6712 241 73.9712 240.4C74.1712 240 74.7712 239.9 75.1712 239.7C75.5712 239.5 76.0712 239.5 76.1712 240.4Z" fill="#A2AAD6"/>
<path d="M331.371 178.2C330.171 176.6 330.571 174.8 330.571 173.1C332.071 174.6 331.271 176.4 331.371 178.2Z" fill="#D7DCFA"/>
<path d="M114.271 225.4C113.671 225.7 113.171 226 112.571 226.2C111.971 226.4 111.571 225.8 111.971 225.4C112.371 225 113.071 224.8 113.671 224.6C113.771 224.6 113.971 225 114.271 225.4Z" fill="#A2ABD7"/>
<path d="M276.371 215.9C271.171 221.2 265.971 226.5 260.671 231.8C258.871 233.7 256.771 233.4 254.571 232.5C254.071 232.1 253.671 231.6 253.371 231C252.471 228.2 252.771 225.4 252.771 222.6C252.771 207 252.771 191.3 252.771 175.7C252.771 173.9 254.071 173 255.571 172.7C262.471 171.2 269.171 168.6 276.371 169.2V168.8C278.571 169.2 278.771 171 278.771 172.6C278.571 186.2 277.771 199.8 277.671 213.4C277.771 214.3 277.171 215.2 276.371 215.9Z" fill="#E8DEDE"/>
<path d="M276.371 215.9C276.371 207 276.071 198 276.471 189.1C276.671 183.9 277.871 178.7 277.471 173.4C277.371 171.8 278.171 170 276.471 168.8C279.471 162.2 281.271 155.3 282.171 148C282.671 143.7 281.271 139.8 281.471 135.7C281.471 134.7 281.471 133.6 282.671 133.3C283.971 133 284.271 134.1 284.571 135.1C287.071 145.8 291.871 156 292.571 167.2C293.371 171.1 293.371 175.1 293.671 179.1C294.071 183.9 293.871 188.8 295.971 193.3C296.471 194.4 296.271 195.6 295.671 196.7C296.071 198 295.971 199.1 294.771 200.3C289.571 205.4 284.371 210.6 279.271 215.8C278.371 216.5 277.471 217.4 276.371 215.9Z" fill="#6473C4"/>
<path d="M253.371 144.1C238.171 142.5 226.671 149.2 216.871 160C216.171 160.8 214.971 162.4 214.071 161.4C210.971 158 206.971 159.6 203.371 158.9C205.071 156.1 209.171 156.1 210.571 152.9C213.871 146.5 217.171 140.3 223.571 136.2C228.571 133 233.671 131.9 239.071 134.9C243.971 137.7 250.471 138.1 253.371 144.1Z" fill="#DC705F"/>
<path d="M276.471 169.1C269.471 170.7 262.571 172.3 255.571 173.9C254.871 174.1 254.171 174.6 253.471 174.9C252.471 176.1 251.071 176.1 249.671 176.2C249.171 176.2 248.571 176.2 248.071 176.2C240.271 174.6 232.771 172 225.171 169.6C224.071 169.3 222.271 168.9 222.671 167.1C222.971 165.8 224.771 166.8 225.771 166C232.571 165.7 238.471 162.7 244.371 159.6C253.471 162.1 262.471 164.5 271.571 167C273.171 167.6 274.771 168.5 276.471 169.1Z" fill="#F7F7F7"/>
<path d="M254.471 232C256.571 231.9 258.671 231.8 260.771 231.8C264.371 233 268.071 234.1 270.471 237.3C273.971 242.1 273.071 246.1 267.371 251.8C264.071 252.6 262.671 255.5 260.671 257.8C258.871 259.9 257.271 262.2 254.671 263.3C254.371 262.7 254.471 263.6 254.371 262.9C252.071 252.6 251.771 242.3 254.471 232Z" fill="#EFBDB3"/>
<path d="M295.671 196.6C291.671 187.1 291.271 177.2 292.571 167.2C296.471 175.5 298.071 184.3 297.471 193.4C297.371 194.8 297.171 196.1 295.671 196.6Z" fill="#D4D9F9"/>
<path d="M210.471 152.9C210.771 158.1 206.571 158 203.271 158.9C202.671 159 202.071 159.1 201.471 159.2C199.371 158.6 199.371 156.6 198.771 155C202.671 153.8 206.571 153.2 210.471 152.9Z" fill="#F4F2F4"/>
<path d="M249.371 55.9001C249.871 57.6001 252.971 56.5001 252.671 58.8001C252.471 60.0001 250.971 60.3001 249.971 60.6001C247.971 61.3001 246.071 61.1001 244.371 59.8001C243.271 58.9001 243.871 58.0001 244.771 57.5001C245.871 56.9001 247.471 56.9001 247.371 55.1001C248.571 54.4001 248.871 55.4001 249.371 55.9001Z" fill="#EEB7AB"/>
<path d="M225.271 54.7C226.171 55.9 228.871 55.5 228.471 58C228.471 58.6 227.771 58.6 227.471 59C224.771 58.9 221.971 59.6 219.471 58C218.871 54.9 222.371 54.9 223.371 53C224.271 53.3 224.671 54.2 225.271 54.7Z" fill="#EDB7AB"/>
<path d="M227.471 58.9998C227.771 58.6998 228.171 58.2998 228.471 57.9998C229.771 57.9998 231.071 57.9998 232.471 57.9998C233.171 57.3998 233.771 57.3998 234.471 57.9998C233.371 59.3998 230.671 59.7998 231.971 62.5998C228.971 62.7998 230.071 58.7998 227.471 58.9998Z" fill="#E4AC9D"/>
<path d="M234.471 58.0998C233.771 58.0998 233.171 58.0998 232.471 58.0998C232.671 55.0998 234.171 52.3998 234.471 49.2998C234.471 52.1998 234.471 55.0998 234.471 58.0998Z" fill="#E7B5A3"/>
<path d="M264.271 52.7C265.471 50.4 266.171 49.1 267.971 49.5C268.371 49.6 269.071 50.6 268.971 50.9C268.171 52.8 266.371 51.9 264.271 52.7Z" fill="#E9AEA1"/>
<path d="M225.271 54.7C223.871 55.1 223.671 53.9 223.371 53C223.671 51.5 223.971 50 225.271 48.9C225.771 48.4 226.171 48.5 226.571 49C225.471 50.8 225.271 52.8 225.271 54.7Z" fill="#7C5745"/>
<path d="M238.171 73.4001C236.571 75.4001 235.071 75.3001 232.571 73.9001C234.671 72.8001 236.271 72.9001 238.171 73.4001Z" fill="#916B59"/>
<path d="M243.071 50.5C243.171 53.1 242.871 54.6 241.971 56C241.171 53.6 241.171 53.6 243.071 50.5Z" fill="#8B6554"/>
<path d="M226.671 49.0998C226.271 49.0998 225.771 48.9998 225.371 48.9998C225.871 48.4998 226.371 47.6998 227.071 47.3998C228.271 46.9998 229.671 47.5998 229.471 48.7998C228.971 50.4998 227.571 48.5998 226.671 49.0998Z" fill="#7B5443"/>
<path d="M230.871 44.1002C228.371 44.0002 227.171 43.9002 225.471 43.8002C227.171 41.8002 228.371 42.4002 230.871 44.1002Z" fill="#8C6654"/>
<path d="M231.071 54.4998C229.971 53.2998 229.271 52.3998 229.871 51.1998C229.971 50.8998 230.971 50.7998 231.071 50.8998C231.771 51.8998 231.671 53.0998 231.071 54.4998Z" fill="#9B7564"/>
<path d="M247.671 53.8999C247.371 52.8999 247.071 51.8999 246.671 50.9999C246.871 50.5999 246.971 49.9999 247.571 49.8999C248.371 50.2999 248.571 51.0999 248.671 51.8999C248.771 52.7999 249.571 54.0999 247.671 53.8999Z" fill="#8A6452"/>
<path d="M247.571 49.9C247.271 50.3 246.971 50.6 246.671 51C245.971 50.4 245.171 49.8 244.071 48.9C245.871 48.1 246.771 49 247.571 49.9Z" fill="#6F4837"/>
<path d="M247.671 53.8999C247.971 53.1999 248.371 52.5999 248.671 51.8999C249.771 53.0999 249.471 54.4999 249.371 55.8999C248.771 55.5999 248.071 55.2999 247.471 54.9999C247.471 54.6999 247.571 54.2999 247.671 53.8999Z" fill="#B18B79"/>
<path d="M212.571 181.9C215.671 187.7 217.171 194.2 219.971 201C221.171 198.1 222.171 195.7 223.071 193.4C225.071 188.4 225.071 188.4 229.171 192.2C230.471 193.4 231.871 194.6 233.171 195.9C233.771 195.6 234.371 195.7 234.871 196.2C236.671 199.5 235.971 203 235.971 206.5C236.071 212.3 236.071 218.1 235.971 223.9C235.571 230.4 235.971 236.9 235.771 243.4C235.571 248.3 235.071 248.8 230.171 248.5C227.171 248.4 224.271 248.9 220.971 249.2C222.271 253.1 227.371 254.3 227.371 258.8C217.871 261.9 208.271 265 198.771 268C197.371 268.5 195.771 270 194.371 268C195.571 249.6 194.671 231.1 194.871 212.7C194.971 206.1 194.871 199.4 194.971 192.8C194.971 190.3 194.971 187.7 197.271 186C202.071 183.7 207.271 182.8 212.571 181.9Z" fill="#E9DDE4"/>
<path d="M198.471 186C196.071 187.5 196.471 189.9 196.471 192.3C196.471 215.8 196.471 239.3 196.471 262.7C196.471 264.6 197.671 267.3 194.371 268C186.171 264.9 178.271 261.2 170.471 257.1C170.071 255.6 169.871 254.2 169.871 252.7C169.971 229.8 169.871 206.9 169.971 184C169.971 181.5 169.871 178.9 171.871 177C174.071 175 176.671 174 179.471 176C176.471 183.1 173.471 190.2 174.871 198.9C176.871 196.2 178.471 194 180.171 191.9C182.271 189.1 183.971 188.3 185.271 192.6C186.171 195.5 187.471 198.3 188.971 202.1C190.771 195.3 190.671 189.1 193.471 183.7C195.071 184.3 197.071 184.5 198.471 186Z" fill="#F0EBEE"/>
<path d="M179.471 176C171.871 176.2 171.271 176.8 171.271 184.2C171.271 206.8 171.271 229.4 171.271 251.9C171.271 253.7 171.871 255.6 170.471 257.1C165.871 255.6 161.471 253.7 157.371 251.1C155.871 249.1 155.871 246.8 155.871 244.4C155.871 222.7 155.771 201 155.871 179.3C155.871 176.6 155.271 173.4 158.771 172.1C167.771 170.6 176.671 168.6 185.471 166C188.371 164.1 191.471 165.4 194.771 165.6C189.071 168.3 184.771 172.7 179.471 176Z" fill="#DC705F"/>
<path d="M227.371 258.7C224.571 255.8 221.871 253 219.071 250.1C218.371 249.4 217.371 248.6 218.071 247.6C218.371 247.1 219.671 246.9 220.271 247.1C224.371 248.5 228.371 246 232.571 247.3C235.071 248.1 234.371 245.6 234.371 244.3C234.471 237.8 234.471 231.3 234.571 224.8C238.071 226.4 236.771 229.6 236.871 232.2C236.971 234.8 237.771 235.3 240.171 234.6C245.971 233.1 246.871 232.2 246.871 226.1C246.871 211.5 246.871 196.9 246.871 182.3C246.871 179.9 246.371 177.3 248.171 175.1C248.571 175 248.971 175 249.271 174.9C251.171 176.9 250.871 179.5 250.871 182C250.871 196.3 250.971 210.5 250.871 224.8C250.871 227.8 251.271 230.4 254.371 231.8V231.9C254.371 242.3 254.471 252.8 254.471 263.2C250.571 266.3 246.371 264.4 242.171 263.8C236.971 263.3 231.371 263.2 227.371 258.7Z" fill="#EEB3CA"/>
<path d="M158.871 172.1C156.971 173.6 157.571 175.7 157.571 177.7C157.471 202.2 157.471 226.6 157.371 251.1C154.171 250.1 151.171 249 148.471 247C148.471 221.3 148.471 195.7 148.471 170C152.071 170 155.171 172.4 158.871 172.1Z" fill="#F0EBEE"/>
<path d="M248.271 175.2C248.371 193.8 248.471 212.4 248.571 231C248.571 233.1 247.571 234 245.771 234.5C242.471 235.4 239.171 236.3 235.771 237.2C234.571 232.9 236.271 228.7 234.571 224.7C234.471 215.1 234.371 205.5 234.271 195.9C233.471 191 233.071 186 232.971 181C232.871 180.6 232.671 180.1 232.471 179.7C230.871 177.8 228.371 177.2 226.471 175.8C223.071 173 220.071 169.7 215.071 167.3C219.371 166.8 222.371 165.3 225.671 166C224.871 166.5 224.071 166.9 222.771 167.6C231.571 170.3 239.871 172.8 248.271 175.2Z" fill="#DC705F"/>
<path d="M198.471 186C196.571 185.7 193.871 187 193.271 183.7C194.571 178.6 197.671 174.4 201.071 170.5C203.371 167.9 205.571 168 207.471 171.1C209.471 174.5 211.471 178 212.471 181.9C208.471 185.3 203.271 185 198.471 186Z" fill="#F7F6F6"/>
<path d="M232.671 189.9C231.471 186.6 230.371 183.4 229.171 180.1C230.271 178.4 231.771 178 233.571 178.9C233.571 182.6 235.471 186.5 232.671 189.9Z" fill="#E9D2D6"/>
<path d="M232.671 189.9C234.471 186.4 232.971 182.5 233.571 178.9C235.271 184.5 234.171 190.3 234.271 196C233.871 195.9 233.571 195.9 233.171 195.8C233.771 193.8 232.571 191.9 232.671 189.9Z" fill="#E8CED1"/>
<path d="M233.571 178.9C232.071 179.3 230.571 179.7 229.171 180.1C228.071 178.9 226.971 177.6 226.571 175.9C229.371 175.7 231.571 177.1 233.571 178.9Z" fill="#F6EFEF"/>
<path d="M392.871 276.2C393.571 274 394.371 273 396.071 272.6C395.971 274.4 394.771 275.1 392.871 276.2Z" fill="#A5ADD9"/>
<path d="M406.971 258.4C406.971 260.5 405.771 261.2 404.171 261.9C404.371 259.9 405.371 259.2 406.971 258.4Z" fill="#A5ADD9"/>
<path d="M254.471 231.9C250.771 233.5 249.371 232.6 249.371 228.2C249.571 210.5 249.371 192.8 249.371 175C250.771 175 252.071 174.9 253.471 174.9C255.071 176.4 254.471 178.3 254.471 180.1C254.471 197.4 254.471 214.7 254.471 231.9Z" fill="#E9DAE1"/>
<path d="M235.471 244.7C235.171 242.7 235.371 241.5 238.271 241.9C240.471 242.2 242.771 241.2 245.071 241C246.271 240.9 247.971 240.4 248.371 242.3C248.671 243.7 249.071 245.5 247.771 246.5C244.971 248.6 241.771 249.8 238.071 249.3C235.271 248.8 235.371 246.8 235.471 244.7Z" fill="#DD7262"/>
</svg>
